<?xml version="1.0" encoding="us-ascii" standalone="no"?><svg xmlns="http://www.w3.org/2000/svg" xmlns:xlink="http://www.w3.org/1999/xlink" contentStyleType="text/css" height="706px" preserveAspectRatio="none" style="width:819px;height:706px;background:#FFFFFF;" version="1.1" viewBox="0 0 819 706" width="819px" zoomAndPan="magnify"><defs/><g><!--class Window--><g id="elem_Window"><rect codeLine="2" fill="#ADD8E6" height="48" id="Window" rx="2.5" ry="2.5" style="stroke:#181818;stroke-width:0.5;" width="81" x="47.5" y="121.5"/><ellipse cx="62.5" cy="137.5" fill="#ADD1B2" rx="11" ry="11" style="stroke:#181818;stroke-width:1.0;"/><path d="M65.2656,133.375 Q65.4219,133.1563 65.6094,133.0469 Q65.7969,132.9375 66.0156,132.9375 Q66.3906,132.9375 66.625,133.2031 Q66.8594,133.4531 66.8594,134.0625 L66.8594,135.5156 Q66.8594,136.125 66.625,136.3906 Q66.3906,136.6563 66.0156,136.6563 Q65.6719,136.6563 65.4688,136.4531 Q65.2656,136.2656 65.1563,135.75 Q65.1094,135.3906 64.9219,135.2031 Q64.5938,134.8281 63.9844,134.6094 Q63.375,134.3906 62.75,134.3906 Q61.9844,134.3906 61.3438,134.7188 Q60.7188,135.0469 60.2188,135.7969 Q59.7344,136.5469 59.7344,137.5781 L59.7344,138.6719 Q59.7344,139.9063 60.625,140.7344 Q61.5156,141.5469 63.1094,141.5469 Q64.0469,141.5469 64.7031,141.2969 Q65.0938,141.1406 65.5156,140.7031 Q65.7813,140.4375 65.9219,140.3594 Q66.0781,140.2813 66.2813,140.2813 Q66.6094,140.2813 66.8594,140.5469 Q67.125,140.7969 67.125,141.1406 Q67.125,141.4844 66.7813,141.8906 Q66.2813,142.4688 65.4844,142.7969 Q64.4063,143.25 63.1094,143.25 Q61.5938,143.25 60.3906,142.625 Q59.4063,142.125 58.7188,141.0625 Q58.0313,139.9844 58.0313,138.7031 L58.0313,137.5469 Q58.0313,136.2188 58.6406,135.0781 Q59.2656,133.9219 60.3594,133.3125 Q61.4531,132.6875 62.6875,132.6875 Q63.4219,132.6875 64.0625,132.8594 Q64.7188,133.0156 65.2656,133.375 Z " fill="#000000"/><text fill="#000000" font-family="sans-serif" font-size="14" lengthAdjust="spacing" textLength="49" x="76.5" y="143.2285">Window</text><line style="stroke:#181818;stroke-width:0.5;" x1="48.5" x2="127.5" y1="153.5" y2="153.5"/><line style="stroke:#181818;stroke-width:0.5;" x1="48.5" x2="127.5" y1="161.5" y2="161.5"/></g><g id="elem_GMN3"><path d="M6,9.5 L6,52.2031 A0,0 0 0 0 6,52.2031 L84,52.2031 L88,121.28 L92,52.2031 L170,52.2031 A0,0 0 0 0 170,52.2031 L170,19.5 L160,9.5 L6,9.5 A0,0 0 0 0 6,9.5 " fill="#FEFFDD" style="stroke:#181818;stroke-width:0.5;"/><path d="M160,9.5 L160,19.5 L170,19.5 L160,9.5 " fill="#FEFFDD" style="stroke:#181818;stroke-width:0.5;"/><text fill="#000000" font-family="sans-serif" font-size="13" lengthAdjust="spacing" textLength="143" x="12" y="27.9951">representa cada pesta&#241;a</text><text fill="#000000" font-family="sans-serif" font-size="13" lengthAdjust="spacing" textLength="46" x="12" y="44.3467">&lt;BOM&gt;</text></g><!--class Document--><g id="elem_Document"><rect codeLine="17" fill="#F1F1F1" height="65.6094" id="Document" rx="2.5" ry="2.5" style="stroke:#181818;stroke-width:0.5;" width="96" x="254" y="236"/><ellipse cx="269" cy="252" fill="#ADD1B2" rx="11" ry="11" style="stroke:#181818;stroke-width:1.0;"/><path d="M271.7656,247.875 Q271.9219,247.6563 272.1094,247.5469 Q272.2969,247.4375 272.5156,247.4375 Q272.8906,247.4375 273.125,247.7031 Q273.3594,247.9531 273.3594,248.5625 L273.3594,250.0156 Q273.3594,250.625 273.125,250.8906 Q272.8906,251.1563 272.5156,251.1563 Q272.1719,251.1563 271.9688,250.9531 Q271.7656,250.7656 271.6563,250.25 Q271.6094,249.8906 271.4219,249.7031 Q271.0938,249.3281 270.4844,249.1094 Q269.875,248.8906 269.25,248.8906 Q268.4844,248.8906 267.8438,249.2188 Q267.2188,249.5469 266.7188,250.2969 Q266.2344,251.0469 266.2344,252.0781 L266.2344,253.1719 Q266.2344,254.4063 267.125,255.2344 Q268.0156,256.0469 269.6094,256.0469 Q270.5469,256.0469 271.2031,255.7969 Q271.5938,255.6406 272.0156,255.2031 Q272.2813,254.9375 272.4219,254.8594 Q272.5781,254.7813 272.7813,254.7813 Q273.1094,254.7813 273.3594,255.0469 Q273.625,255.2969 273.625,255.6406 Q273.625,255.9844 273.2813,256.3906 Q272.7813,256.9688 271.9844,257.2969 Q270.9063,257.75 269.6094,257.75 Q268.0938,257.75 266.8906,257.125 Q265.9063,256.625 265.2188,255.5625 Q264.5313,254.4844 264.5313,253.2031 L264.5313,252.0469 Q264.5313,250.7188 265.1406,249.5781 Q265.7656,248.4219 266.8594,247.8125 Q267.9531,247.1875 269.1875,247.1875 Q269.9219,247.1875 270.5625,247.3594 Q271.2188,247.5156 271.7656,247.875 Z " fill="#000000"/><text fill="#000000" font-family="sans-serif" font-size="14" lengthAdjust="spacing" textLength="64" x="283" y="257.7285">Document</text><line style="stroke:#181818;stroke-width:0.5;" x1="255" x2="349" y1="268" y2="268"/><ellipse cx="265" cy="282.3047" fill="none" rx="3" ry="3" style="stroke:#038048;stroke-width:1.0;"/><text fill="#000000" font-family="sans-serif" font-size="14" lengthAdjust="spacing" textLength="49" x="274" y="286.5332">location</text><line style="stroke:#181818;stroke-width:0.5;" x1="255" x2="349" y1="293.6094" y2="293.6094"/></g><!--class EventTarget--><g id="elem_EventTarget"><rect codeLine="9" fill="#FFFFE0" height="48" id="EventTarget" rx="2.5" ry="2.5" style="stroke:#181818;stroke-width:0.5;" width="110" x="474" y="7"/><ellipse cx="489" cy="23" fill="#ADD1B2" rx="11" ry="11" style="stroke:#181818;stroke-width:1.0;"/><path d="M491.7656,18.875 Q491.9219,18.6563 492.1094,18.5469 Q492.2969,18.4375 492.5156,18.4375 Q492.8906,18.4375 493.125,18.7031 Q493.3594,18.9531 493.3594,19.5625 L493.3594,21.0156 Q493.3594,21.625 493.125,21.8906 Q492.8906,22.1563 492.5156,22.1563 Q492.1719,22.1563 491.9688,21.9531 Q491.7656,21.7656 491.6563,21.25 Q491.6094,20.8906 491.4219,20.7031 Q491.0938,20.3281 490.4844,20.1094 Q489.875,19.8906 489.25,19.8906 Q488.4844,19.8906 487.8438,20.2188 Q487.2188,20.5469 486.7188,21.2969 Q486.2344,22.0469 486.2344,23.0781 L486.2344,24.1719 Q486.2344,25.4063 487.125,26.2344 Q488.0156,27.0469 489.6094,27.0469 Q490.5469,27.0469 491.2031,26.7969 Q491.5938,26.6406 492.0156,26.2031 Q492.2813,25.9375 492.4219,25.8594 Q492.5781,25.7813 492.7813,25.7813 Q493.1094,25.7813 493.3594,26.0469 Q493.625,26.2969 493.625,26.6406 Q493.625,26.9844 493.2813,27.3906 Q492.7813,27.9688 491.9844,28.2969 Q490.9063,28.75 489.6094,28.75 Q488.0938,28.75 486.8906,28.125 Q485.9063,27.625 485.2188,26.5625 Q484.5313,25.4844 484.5313,24.2031 L484.5313,23.0469 Q484.5313,21.7188 485.1406,20.5781 Q485.7656,19.4219 486.8594,18.8125 Q487.9531,18.1875 489.1875,18.1875 Q489.9219,18.1875 490.5625,18.3594 Q491.2188,18.5156 491.7656,18.875 Z " fill="#000000"/><text fill="#000000" font-family="sans-serif" font-size="14" lengthAdjust="spacing" textLength="78" x="503" y="28.7285">EventTarget</text><line style="stroke:#181818;stroke-width:0.5;" x1="475" x2="583" y1="39" y2="39"/><line style="stroke:#181818;stroke-width:0.5;" x1="475" x2="583" y1="47" y2="47"/></g><!--class Node--><g id="elem_Node"><rect codeLine="10" fill="#F1F1F1" height="48" id="Node" rx="2.5" ry="2.5" style="stroke:#181818;stroke-width:0.5;" width="65" x="417.5" y="121.5"/><ellipse cx="432.5" cy="137.5" fill="#ADD1B2" rx="11" ry="11" style="stroke:#181818;stroke-width:1.0;"/><path d="M435.2656,133.375 Q435.4219,133.1563 435.6094,133.0469 Q435.7969,132.9375 436.0156,132.9375 Q436.3906,132.9375 436.625,133.2031 Q436.8594,133.4531 436.8594,134.0625 L436.8594,135.5156 Q436.8594,136.125 436.625,136.3906 Q436.3906,136.6563 436.0156,136.6563 Q435.6719,136.6563 435.4688,136.4531 Q435.2656,136.2656 435.1563,135.75 Q435.1094,135.3906 434.9219,135.2031 Q434.5938,134.8281 433.9844,134.6094 Q433.375,134.3906 432.75,134.3906 Q431.9844,134.3906 431.3438,134.7188 Q430.7188,135.0469 430.2188,135.7969 Q429.7344,136.5469 429.7344,137.5781 L429.7344,138.6719 Q429.7344,139.9063 430.625,140.7344 Q431.5156,141.5469 433.1094,141.5469 Q434.0469,141.5469 434.7031,141.2969 Q435.0938,141.1406 435.5156,140.7031 Q435.7813,140.4375 435.9219,140.3594 Q436.0781,140.2813 436.2813,140.2813 Q436.6094,140.2813 436.8594,140.5469 Q437.125,140.7969 437.125,141.1406 Q437.125,141.4844 436.7813,141.8906 Q436.2813,142.4688 435.4844,142.7969 Q434.4063,143.25 433.1094,143.25 Q431.5938,143.25 430.3906,142.625 Q429.4063,142.125 428.7188,141.0625 Q428.0313,139.9844 428.0313,138.7031 L428.0313,137.5469 Q428.0313,136.2188 428.6406,135.0781 Q429.2656,133.9219 430.3594,133.3125 Q431.4531,132.6875 432.6875,132.6875 Q433.4219,132.6875 434.0625,132.8594 Q434.7188,133.0156 435.2656,133.375 Z " fill="#000000"/><text fill="#000000" font-family="sans-serif" font-size="14" lengthAdjust="spacing" textLength="33" x="446.5" y="143.2285">Node</text><line style="stroke:#181818;stroke-width:0.5;" x1="418.5" x2="481.5" y1="153.5" y2="153.5"/><line style="stroke:#181818;stroke-width:0.5;" x1="418.5" x2="481.5" y1="161.5" y2="161.5"/></g><g id="elem_GMN10"><path d="M301.5,9.5 L301.5,52.2031 A0,0 0 0 0 301.5,52.2031 L380.67,52.2031 L433.49,121.28 L388.67,52.2031 L438.5,52.2031 A0,0 0 0 0 438.5,52.2031 L438.5,19.5 L428.5,9.5 L301.5,9.5 A0,0 0 0 0 301.5,9.5 " fill="#FEFFDD" style="stroke:#181818;stroke-width:0.5;"/><path d="M428.5,9.5 L428.5,19.5 L438.5,19.5 L428.5,9.5 " fill="#FEFFDD" style="stroke:#181818;stroke-width:0.5;"/><text fill="#000000" font-family="sans-serif" font-size="13" lengthAdjust="spacing" textLength="112" x="307.5" y="27.9951">per a moures dintre</text><text fill="#000000" font-family="sans-serif" font-size="13" lengthAdjust="spacing" textLength="83" x="307.5" y="44.3467">del arbol DOM</text></g><g id="elem_GMN14"><path d="M164,116 L164,175.0547 A0,0 0 0 0 164,175.0547 L275.87,175.0547 L294.36,235.99 L283.87,175.0547 L382,175.0547 A0,0 0 0 0 382,175.0547 L382,126 L372,116 L164,116 A0,0 0 0 0 164,116 " fill="#FEFFDD" style="stroke:#181818;stroke-width:0.5;"/><path d="M372,116 L372,126 L382,126 L372,116 " fill="#FEFFDD" style="stroke:#181818;stroke-width:0.5;"/><text fill="#000000" font-family="sans-serif" font-size="13" lengthAdjust="spacing" textLength="119" x="170" y="134.4951">info de la p&#224;gina que</text><text fill="#000000" font-family="sans-serif" font-size="13" lengthAdjust="spacing" textLength="89" x="170" y="150.8467">s'esta mostrant</text><text fill="#000000" font-family="sans-serif" font-size="13" lengthAdjust="spacing" textLength="197" x="170" y="167.1982">NODO RAIZ DEL ARBOL &lt;DOM&gt;</text></g><!--class Element--><g id="elem_Element"><rect codeLine="28" fill="#F1F1F1" height="48" id="Element" rx="2.5" ry="2.5" style="stroke:#181818;stroke-width:0.5;" width="83" x="353.5" y="363"/><ellipse cx="368.5" cy="379" fill="#ADD1B2" rx="11" ry="11" style="stroke:#181818;stroke-width:1.0;"/><path d="M371.2656,374.875 Q371.4219,374.6563 371.6094,374.5469 Q371.7969,374.4375 372.0156,374.4375 Q372.3906,374.4375 372.625,374.7031 Q372.8594,374.9531 372.8594,375.5625 L372.8594,377.0156 Q372.8594,377.625 372.625,377.8906 Q372.3906,378.1563 372.0156,378.1563 Q371.6719,378.1563 371.4688,377.9531 Q371.2656,377.7656 371.1563,377.25 Q371.1094,376.8906 370.9219,376.7031 Q370.5938,376.3281 369.9844,376.1094 Q369.375,375.8906 368.75,375.8906 Q367.9844,375.8906 367.3438,376.2188 Q366.7188,376.5469 366.2188,377.2969 Q365.7344,378.0469 365.7344,379.0781 L365.7344,380.1719 Q365.7344,381.4063 366.625,382.2344 Q367.5156,383.0469 369.1094,383.0469 Q370.0469,383.0469 370.7031,382.7969 Q371.0938,382.6406 371.5156,382.2031 Q371.7813,381.9375 371.9219,381.8594 Q372.0781,381.7813 372.2813,381.7813 Q372.6094,381.7813 372.8594,382.0469 Q373.125,382.2969 373.125,382.6406 Q373.125,382.9844 372.7813,383.3906 Q372.2813,383.9688 371.4844,384.2969 Q370.4063,384.75 369.1094,384.75 Q367.5938,384.75 366.3906,384.125 Q365.4063,383.625 364.7188,382.5625 Q364.0313,381.4844 364.0313,380.2031 L364.0313,379.0469 Q364.0313,377.7188 364.6406,376.5781 Q365.2656,375.4219 366.3594,374.8125 Q367.4531,374.1875 368.6875,374.1875 Q369.4219,374.1875 370.0625,374.3594 Q370.7188,374.5156 371.2656,374.875 Z " fill="#000000"/><text fill="#000000" font-family="sans-serif" font-size="14" lengthAdjust="spacing" textLength="51" x="382.5" y="384.7285">Element</text><line style="stroke:#181818;stroke-width:0.5;" x1="354.5" x2="435.5" y1="395" y2="395"/><line style="stroke:#181818;stroke-width:0.5;" x1="354.5" x2="435.5" y1="403" y2="403"/></g><g id="elem_GMN20"><path d="M216,474.5 L216,517.2031 A0,0 0 0 0 216,517.2031 L448,517.2031 A0,0 0 0 0 448,517.2031 L448,484.5 L438,474.5 L348.15,474.5 L381.33,411.22 L340.15,474.5 L216,474.5 A0,0 0 0 0 216,474.5 " fill="#FEFFDD" style="stroke:#181818;stroke-width:0.5;"/><path d="M438,474.5 L438,484.5 L448,484.5 L438,474.5 " fill="#FEFFDD" style="stroke:#181818;stroke-width:0.5;"/><text fill="#000000" font-family="sans-serif" font-size="13" lengthAdjust="spacing" textLength="123" x="222" y="492.9951">UN es el NODE RAIZ</text><text fill="#000000" font-family="sans-serif" font-size="13" lengthAdjust="spacing" textLength="211" x="222" y="509.3467">DEL DOCUMENT (html, xml, svg...).</text></g><!--class EtiquetaDelDocument--><g id="elem_EtiquetaDelDocument"><rect codeLine="40" fill="#FFB6C1" height="48" id="EtiquetaDelDocument" rx="2.5" ry="2.5" style="stroke:#181818;stroke-width:0.5;" width="169" x="149.5" y="363"/><ellipse cx="164.5" cy="379" fill="#ADD1B2" rx="11" ry="11" style="stroke:#181818;stroke-width:1.0;"/><path d="M167.2656,374.875 Q167.4219,374.6563 167.6094,374.5469 Q167.7969,374.4375 168.0156,374.4375 Q168.3906,374.4375 168.625,374.7031 Q168.8594,374.9531 168.8594,375.5625 L168.8594,377.0156 Q168.8594,377.625 168.625,377.8906 Q168.3906,378.1563 168.0156,378.1563 Q167.6719,378.1563 167.4688,377.9531 Q167.2656,377.7656 167.1563,377.25 Q167.1094,376.8906 166.9219,376.7031 Q166.5938,376.3281 165.9844,376.1094 Q165.375,375.8906 164.75,375.8906 Q163.9844,375.8906 163.3438,376.2188 Q162.7188,376.5469 162.2188,377.2969 Q161.7344,378.0469 161.7344,379.0781 L161.7344,380.1719 Q161.7344,381.4063 162.625,382.2344 Q163.5156,383.0469 165.1094,383.0469 Q166.0469,383.0469 166.7031,382.7969 Q167.0938,382.6406 167.5156,382.2031 Q167.7813,381.9375 167.9219,381.8594 Q168.0781,381.7813 168.2813,381.7813 Q168.6094,381.7813 168.8594,382.0469 Q169.125,382.2969 169.125,382.6406 Q169.125,382.9844 168.7813,383.3906 Q168.2813,383.9688 167.4844,384.2969 Q166.4063,384.75 165.1094,384.75 Q163.5938,384.75 162.3906,384.125 Q161.4063,383.625 160.7188,382.5625 Q160.0313,381.4844 160.0313,380.2031 L160.0313,379.0469 Q160.0313,377.7188 160.6406,376.5781 Q161.2656,375.4219 162.3594,374.8125 Q163.4531,374.1875 164.6875,374.1875 Q165.4219,374.1875 166.0625,374.3594 Q166.7188,374.5156 167.2656,374.875 Z " fill="#000000"/><text fill="#000000" font-family="sans-serif" font-size="14" lengthAdjust="spacing" textLength="137" x="178.5" y="384.7285">EtiquetaDelDocument</text><line style="stroke:#181818;stroke-width:0.5;" x1="150.5" x2="317.5" y1="395" y2="395"/><line style="stroke:#181818;stroke-width:0.5;" x1="150.5" x2="317.5" y1="403" y2="403"/></g><!--class HTMLElement--><g id="elem_HTMLElement"><rect codeLine="42" fill="#F1F1F1" height="48" id="HTMLElement" rx="2.5" ry="2.5" style="stroke:#181818;stroke-width:0.5;" width="120" x="483" y="472"/><ellipse cx="498" cy="488" fill="#ADD1B2" rx="11" ry="11" style="stroke:#181818;stroke-width:1.0;"/><path d="M500.7656,483.875 Q500.9219,483.6563 501.1094,483.5469 Q501.2969,483.4375 501.5156,483.4375 Q501.8906,483.4375 502.125,483.7031 Q502.3594,483.9531 502.3594,484.5625 L502.3594,486.0156 Q502.3594,486.625 502.125,486.8906 Q501.8906,487.1563 501.5156,487.1563 Q501.1719,487.1563 500.9688,486.9531 Q500.7656,486.7656 500.6563,486.25 Q500.6094,485.8906 500.4219,485.7031 Q500.0938,485.3281 499.4844,485.1094 Q498.875,484.8906 498.25,484.8906 Q497.4844,484.8906 496.8438,485.2188 Q496.2188,485.5469 495.7188,486.2969 Q495.2344,487.0469 495.2344,488.0781 L495.2344,489.1719 Q495.2344,490.4063 496.125,491.2344 Q497.0156,492.0469 498.6094,492.0469 Q499.5469,492.0469 500.2031,491.7969 Q500.5938,491.6406 501.0156,491.2031 Q501.2813,490.9375 501.4219,490.8594 Q501.5781,490.7813 501.7813,490.7813 Q502.1094,490.7813 502.3594,491.0469 Q502.625,491.2969 502.625,491.6406 Q502.625,491.9844 502.2813,492.3906 Q501.7813,492.9688 500.9844,493.2969 Q499.9063,493.75 498.6094,493.75 Q497.0938,493.75 495.8906,493.125 Q494.9063,492.625 494.2188,491.5625 Q493.5313,490.4844 493.5313,489.2031 L493.5313,488.0469 Q493.5313,486.7188 494.1406,485.5781 Q494.7656,484.4219 495.8594,483.8125 Q496.9531,483.1875 498.1875,483.1875 Q498.9219,483.1875 499.5625,483.3594 Q500.2188,483.5156 500.7656,483.875 Z " fill="#000000"/><text fill="#000000" font-family="sans-serif" font-size="14" lengthAdjust="spacing" textLength="88" x="512" y="493.7285">HTMLElement</text><line style="stroke:#181818;stroke-width:0.5;" x1="484" x2="602" y1="504" y2="504"/><line style="stroke:#181818;stroke-width:0.5;" x1="484" x2="602" y1="512" y2="512"/></g><!--class CSSDeclaration--><g id="elem_CSSDeclaration"><rect codeLine="50" fill="#F1F1F1" height="48" id="CSSDeclaration" rx="2.5" ry="2.5" style="stroke:#181818;stroke-width:0.5;" width="132" x="477" y="651"/><ellipse cx="492" cy="667" fill="#ADD1B2" rx="11" ry="11" style="stroke:#181818;stroke-width:1.0;"/><path d="M494.7656,662.875 Q494.9219,662.6563 495.1094,662.5469 Q495.2969,662.4375 495.5156,662.4375 Q495.8906,662.4375 496.125,662.7031 Q496.3594,662.9531 496.3594,663.5625 L496.3594,665.0156 Q496.3594,665.625 496.125,665.8906 Q495.8906,666.1563 495.5156,666.1563 Q495.1719,666.1563 494.9688,665.9531 Q494.7656,665.7656 494.6563,665.25 Q494.6094,664.8906 494.4219,664.7031 Q494.0938,664.3281 493.4844,664.1094 Q492.875,663.8906 492.25,663.8906 Q491.4844,663.8906 490.8438,664.2188 Q490.2188,664.5469 489.7188,665.2969 Q489.2344,666.0469 489.2344,667.0781 L489.2344,668.1719 Q489.2344,669.4063 490.125,670.2344 Q491.0156,671.0469 492.6094,671.0469 Q493.5469,671.0469 494.2031,670.7969 Q494.5938,670.6406 495.0156,670.2031 Q495.2813,669.9375 495.4219,669.8594 Q495.5781,669.7813 495.7813,669.7813 Q496.1094,669.7813 496.3594,670.0469 Q496.625,670.2969 496.625,670.6406 Q496.625,670.9844 496.2813,671.3906 Q495.7813,671.9688 494.9844,672.2969 Q493.9063,672.75 492.6094,672.75 Q491.0938,672.75 489.8906,672.125 Q488.9063,671.625 488.2188,670.5625 Q487.5313,669.4844 487.5313,668.2031 L487.5313,667.0469 Q487.5313,665.7188 488.1406,664.5781 Q488.7656,663.4219 489.8594,662.8125 Q490.9531,662.1875 492.1875,662.1875 Q492.9219,662.1875 493.5625,662.3594 Q494.2188,662.5156 494.7656,662.875 Z " fill="#000000"/><text fill="#000000" font-family="sans-serif" font-size="14" lengthAdjust="spacing" textLength="100" x="506" y="672.7285">CSSDeclaration</text><line style="stroke:#181818;stroke-width:0.5;" x1="478" x2="608" y1="683" y2="683"/><line style="stroke:#181818;stroke-width:0.5;" x1="478" x2="608" y1="691" y2="691"/></g><!--class EstilCSSAplicatEnEtiqueta--><g id="elem_EstilCSSAplicatEnEtiqueta"><rect codeLine="54" fill="#FFB6C1" height="48" id="EstilCSSAplicatEnEtiqueta" rx="2.5" ry="2.5" style="stroke:#181818;stroke-width:0.5;" width="197" x="244.5" y="651"/><ellipse cx="259.5" cy="667" fill="#ADD1B2" rx="11" ry="11" style="stroke:#181818;stroke-width:1.0;"/><path d="M262.2656,662.875 Q262.4219,662.6563 262.6094,662.5469 Q262.7969,662.4375 263.0156,662.4375 Q263.3906,662.4375 263.625,662.7031 Q263.8594,662.9531 263.8594,663.5625 L263.8594,665.0156 Q263.8594,665.625 263.625,665.8906 Q263.3906,666.1563 263.0156,666.1563 Q262.6719,666.1563 262.4688,665.9531 Q262.2656,665.7656 262.1563,665.25 Q262.1094,664.8906 261.9219,664.7031 Q261.5938,664.3281 260.9844,664.1094 Q260.375,663.8906 259.75,663.8906 Q258.9844,663.8906 258.3438,664.2188 Q257.7188,664.5469 257.2188,665.2969 Q256.7344,666.0469 256.7344,667.0781 L256.7344,668.1719 Q256.7344,669.4063 257.625,670.2344 Q258.5156,671.0469 260.1094,671.0469 Q261.0469,671.0469 261.7031,670.7969 Q262.0938,670.6406 262.5156,670.2031 Q262.7813,669.9375 262.9219,669.8594 Q263.0781,669.7813 263.2813,669.7813 Q263.6094,669.7813 263.8594,670.0469 Q264.125,670.2969 264.125,670.6406 Q264.125,670.9844 263.7813,671.3906 Q263.2813,671.9688 262.4844,672.2969 Q261.4063,672.75 260.1094,672.75 Q258.5938,672.75 257.3906,672.125 Q256.4063,671.625 255.7188,670.5625 Q255.0313,669.4844 255.0313,668.2031 L255.0313,667.0469 Q255.0313,665.7188 255.6406,664.5781 Q256.2656,663.4219 257.3594,662.8125 Q258.4531,662.1875 259.6875,662.1875 Q260.4219,662.1875 261.0625,662.3594 Q261.7188,662.5156 262.2656,662.875 Z " fill="#000000"/><text fill="#000000" font-family="sans-serif" font-size="14" lengthAdjust="spacing" textLength="165" x="273.5" y="672.7285">EstilCSSAplicatEnEtiqueta</text><line style="stroke:#181818;stroke-width:0.5;" x1="245.5" x2="440.5" y1="683" y2="683"/><line style="stroke:#181818;stroke-width:0.5;" x1="245.5" x2="440.5" y1="691" y2="691"/></g><!--link Window to Document--><g id="link_Window_Document"><path codeLine="7" d="M138.9365,175.4227 C174.5665,195.6427 210.8321,216.2379 248.5821,237.6679 " fill="none" id="Window-Document" style="stroke:#181818;stroke-width:1.0;"/><polygon fill="#181818" points="128.5,169.5,131.744,175.9402,138.9365,175.4227,135.6925,168.9825,128.5,169.5" style="stroke:#181818;stroke-width:1.0;"/><polygon fill="#181818" points="253.8,240.63,247.9479,232.7083,249.4518,238.1616,243.9985,239.6654,253.8,240.63" style="stroke:#181818;stroke-width:1.0;"/></g><!--reverse link EventTarget to Node--><g id="link_EventTarget_Node"><path codeLine="15" d="M502.4758,69.7708 C488.8458,89.1808 479.78,102.09 466.16,121.49 " fill="none" id="EventTarget-backto-Node" style="stroke:#181818;stroke-width:1.0;"/><polygon fill="none" points="512.82,55.04,497.5655,66.3228,507.3861,73.2189,512.82,55.04" style="stroke:#181818;stroke-width:1.0;"/></g><!--reverse link Node to Document--><g id="link_Node_Document"><path codeLine="25" d="M407.9002,181.0644 C385.0102,199.8644 366.37,215.15 340.98,236 " fill="none" id="Node-backto-Document" style="stroke:#181818;stroke-width:1.0;"/><polygon fill="none" points="421.81,169.64,404.092,176.4278,411.7083,185.701,421.81,169.64" style="stroke:#181818;stroke-width:1.0;"/></g><!--link Document to Element--><g id="link_Document_Element"><path codeLine="26" d="M335.1634,311.3647 C350.6434,330.6847 358.7569,340.7987 372.7469,358.2487 " fill="none" id="Document-Element" style="stroke:#181818;stroke-width:1.0;"/><polygon fill="#181818" points="327.66,302,328.2901,309.1835,335.1634,311.3647,334.5333,304.1812,327.66,302" style="stroke:#181818;stroke-width:1.0;"/><polygon fill="#181818" points="376.5,362.93,373.9912,353.406,373.3724,359.0289,367.7495,358.4101,376.5,362.93" style="stroke:#181818;stroke-width:1.0;"/><text fill="#000000" font-family="sans-serif" font-size="13" lengthAdjust="spacing" textLength="8" x="362.7344" y="352.2522">+</text></g><!--reverse link Node to Element--><g id="link_Node_Element"><path codeLine="33" d="M440.5979,187.4426 C430.0479,233.3426 410.81,317.16 400.31,362.86 " fill="none" id="Node-backto-Element" style="stroke:#181818;stroke-width:1.0;"/><polygon fill="none" points="444.63,169.9,434.7504,186.0985,446.4454,188.7866,444.63,169.9" style="stroke:#181818;stroke-width:1.0;"/><path d="M434,248 L434,290 L611,290 L611,258 L601,248 L434,248 " fill="#FEFFDD" style="stroke:#181818;stroke-width:0.5;"/><path d="M601,248 L601,258 L611,258 L601,248 " fill="#FEFFDD" style="stroke:#181818;stroke-width:0.5;"/><text fill="#000000" font-family="sans-serif" font-size="13" lengthAdjust="spacing" textLength="156" x="440" y="266.4951">A m&#233;s hi han altres nodos:</text><text fill="#000000" font-family="sans-serif" font-size="13" lengthAdjust="spacing" textLength="150" x="440" y="282.8467">text, atribut, comentaris...</text></g><!--reverse link EtiquetaDelDocument to Element--><g id="link_EtiquetaDelDocument_Element"><path codeLine="38" d="M324.59,387 C336.13,387 341.67,387 353.21,387 " fill="none" id="EtiquetaDelDocument-backto-Element" style="stroke:#181818;stroke-width:1.0;stroke-dasharray:7.0,7.0;"/><polygon fill="#181818" points="318.59,387,327.59,391,323.59,387,327.59,383,318.59,387" style="stroke:#181818;stroke-width:1.0;"/></g><!--reverse link Element to HTMLElement--><g id="link_Element_HTMLElement"><path codeLine="43" d="M441.7002,421.7616 C466.5302,439.7016 486.14,453.89 510.95,471.83 " fill="none" id="Element-backto-HTMLElement" style="stroke:#181818;stroke-width:1.0;"/><polygon fill="none" points="427.11,411.22,438.1863,426.625,445.2141,416.8982,427.11,411.22" style="stroke:#181818;stroke-width:1.0;"/></g><!--link HTMLElement to CSSDeclaration--><g id="link_HTMLElement_CSSDeclaration"><path codeLine="44" d="M543,520.14 C543,554.06 543,610.93 543,644.85 " fill="none" id="HTMLElement-to-CSSDeclaration" style="stroke:#181818;stroke-width:1.0;"/><polygon fill="#181818" points="543,650.85,547,641.85,543,645.85,539,641.85,543,650.85" style="stroke:#181818;stroke-width:1.0;"/><text fill="#000000" font-family="sans-serif" font-size="13" lengthAdjust="spacing" textLength="28" x="666" y="564.4951">style</text><path d="M548,573.3516 L548,615.3516 L812,615.3516 L812,583.3516 L802,573.3516 L548,573.3516 " fill="#FEFFDD" style="stroke:#181818;stroke-width:0.5;"/><path d="M802,573.3516 L802,583.3516 L812,583.3516 L802,573.3516 " fill="#FEFFDD" style="stroke:#181818;stroke-width:0.5;"/><text fill="#000000" font-family="sans-serif" font-size="13" lengthAdjust="spacing" textLength="156" x="554" y="591.8467">si prioritat no cal indicar-la:</text><text fill="#000000" font-family="sans-serif" font-size="13" lengthAdjust="spacing" textLength="243" x="554" y="608.1982">element.style.propiedadCSS = "xxxYYY";</text></g><!--reverse link EstilCSSAplicatEnEtiqueta to CSSDeclaration--><g id="link_EstilCSSAplicatEnEtiqueta_CSSDeclaration"><path codeLine="51" d="M447.83,675 C459.42,675 465.01,675 476.61,675 " fill="none" id="EstilCSSAplicatEnEtiqueta-backto-CSSDeclaration" style="stroke:#181818;stroke-width:1.0;stroke-dasharray:7.0,7.0;"/><polygon fill="#181818" points="441.83,675,450.83,679,446.83,675,450.83,671,441.83,675" style="stroke:#181818;stroke-width:1.0;"/></g><!--SRC=[TLBDRjD04BxlKtmA1w1j_00XH4fgIo0bCMfJLU6siRV9YlMksHstGS2xzCgHPyYBCNOS9w7WmyghcVd-TZ8ZGy2zjhbxmgkfNczeOYebh2C5SYM4LwLNGLcIo6GkKQf0SlTRYk4adOs4iZdgPj5YNFJx8yGkgmeU4I9hy9D7lYoaNojgIPRA6FVKbkSkL-WeHQay90fNCIzoRSbpDLS6qg-SGPpESAGzXHx-wFSRi0FlGGU-2_1t2UCoITfPyVD8f-s30mimx6ttlDPMucl5ZE5rxPHr1FAIlSpJECND-EDdnCaKuvj9EiKmFikWCTAew1Be93J1z2vxI8mwowQzDdfMZiWLucuEjiwEcJFPSugQD4wlxsR9V84t6ohC5RRr4HxNKHIzZVubumpSMHXjluWnYjslW8t6Hbf8GtNErkKk30IfBLr1ajUhYdyoLuzBhmDJd8I-XqLar0D58oIaEJAIiJ8ldlvbgLs1JxMMjkl3OZOzW7ReZOEJYZZjgjEylhsD5GFuvaqnGA1lHfsR3HgbryvhaiJYUOSDU5Dr9dtVo85GUxoe6OrAxqgjSfapDDwZjzrkbyjbxztHUYlud5hyfQJB9P0sN1kNXWafiOSqH1VF_pfEGle3]--></g></svg>