<?xml version="1.0" encoding="us-ascii" standalone="no"?><svg xmlns="http://www.w3.org/2000/svg" xmlns:xlink="http://www.w3.org/1999/xlink" contentStyleType="text/css" height="713px" preserveAspectRatio="none" style="width:913px;height:713px;background:#FFFFFF;" version="1.1" viewBox="0 0 913 713" width="913px" zoomAndPan="magnify"><defs/><g><!--class Window--><g id="elem_Window"><rect codeLine="2" fill="#ADD8E6" height="65.6094" id="Window" rx="2.5" ry="2.5" style="stroke:#181818;stroke-width:0.5;" width="135" x="20.5" y="116"/><ellipse cx="59.8" cy="132" fill="#ADD1B2" rx="11" ry="11" style="stroke:#181818;stroke-width:1.0;"/><path d="M62.5656,127.875 Q62.7219,127.6563 62.9094,127.5469 Q63.0969,127.4375 63.3156,127.4375 Q63.6906,127.4375 63.925,127.7031 Q64.1594,127.9531 64.1594,128.5625 L64.1594,130.0156 Q64.1594,130.625 63.925,130.8906 Q63.6906,131.1563 63.3156,131.1563 Q62.9719,131.1563 62.7688,130.9531 Q62.5656,130.7656 62.4563,130.25 Q62.4094,129.8906 62.2219,129.7031 Q61.8938,129.3281 61.2844,129.1094 Q60.675,128.8906 60.05,128.8906 Q59.2844,128.8906 58.6438,129.2188 Q58.0188,129.5469 57.5188,130.2969 Q57.0344,131.0469 57.0344,132.0781 L57.0344,133.1719 Q57.0344,134.4063 57.925,135.2344 Q58.8156,136.0469 60.4094,136.0469 Q61.3469,136.0469 62.0031,135.7969 Q62.3938,135.6406 62.8156,135.2031 Q63.0813,134.9375 63.2219,134.8594 Q63.3781,134.7813 63.5813,134.7813 Q63.9094,134.7813 64.1594,135.0469 Q64.425,135.2969 64.425,135.6406 Q64.425,135.9844 64.0813,136.3906 Q63.5813,136.9688 62.7844,137.2969 Q61.7063,137.75 60.4094,137.75 Q58.8938,137.75 57.6906,137.125 Q56.7063,136.625 56.0188,135.5625 Q55.3313,134.4844 55.3313,133.2031 L55.3313,132.0469 Q55.3313,130.7188 55.9406,129.5781 Q56.5656,128.4219 57.6594,127.8125 Q58.7531,127.1875 59.9875,127.1875 Q60.7219,127.1875 61.3625,127.3594 Q62.0188,127.5156 62.5656,127.875 Z " fill="#000000"/><text fill="#000000" font-family="sans-serif" font-size="14" lengthAdjust="spacing" textLength="49" x="79.2" y="137.7285">Window</text><line style="stroke:#181818;stroke-width:0.5;" x1="21.5" x2="154.5" y1="148" y2="148"/><line style="stroke:#181818;stroke-width:0.5;" x1="21.5" x2="154.5" y1="156" y2="156"/><ellipse cx="31.5" cy="170.3047" fill="#84BE84" rx="3" ry="3" style="stroke:#038048;stroke-width:1.0;"/><text fill="#000000" font-family="sans-serif" font-size="14" lengthAdjust="spacing" textLength="109" x="40.5" y="174.5332">alert(msg: String)</text></g><g id="elem_GMN3"><path d="M6,9.5 L6,52.2031 A0,0 0 0 0 6,52.2031 L84,52.2031 L88,115.62 L92,52.2031 L170,52.2031 A0,0 0 0 0 170,52.2031 L170,19.5 L160,9.5 L6,9.5 A0,0 0 0 0 6,9.5 " fill="#FEFFDD" style="stroke:#181818;stroke-width:0.5;"/><path d="M160,9.5 L160,19.5 L170,19.5 L160,9.5 " fill="#FEFFDD" style="stroke:#181818;stroke-width:0.5;"/><text fill="#000000" font-family="sans-serif" font-size="13" lengthAdjust="spacing" textLength="143" x="12" y="27.9951">representa cada pesta&#241;a</text><text fill="#000000" font-family="sans-serif" font-size="13" lengthAdjust="spacing" textLength="46" x="12" y="44.3467">&lt;BOM&gt;</text></g><!--class Document--><g id="elem_Document"><rect codeLine="19" fill="#F1F1F1" height="65.6094" id="Document" rx="2.5" ry="2.5" style="stroke:#181818;stroke-width:0.5;" width="96" x="281" y="243"/><ellipse cx="296" cy="259" fill="#ADD1B2" rx="11" ry="11" style="stroke:#181818;stroke-width:1.0;"/><path d="M298.7656,254.875 Q298.9219,254.6563 299.1094,254.5469 Q299.2969,254.4375 299.5156,254.4375 Q299.8906,254.4375 300.125,254.7031 Q300.3594,254.9531 300.3594,255.5625 L300.3594,257.0156 Q300.3594,257.625 300.125,257.8906 Q299.8906,258.1563 299.5156,258.1563 Q299.1719,258.1563 298.9688,257.9531 Q298.7656,257.7656 298.6563,257.25 Q298.6094,256.8906 298.4219,256.7031 Q298.0938,256.3281 297.4844,256.1094 Q296.875,255.8906 296.25,255.8906 Q295.4844,255.8906 294.8438,256.2188 Q294.2188,256.5469 293.7188,257.2969 Q293.2344,258.0469 293.2344,259.0781 L293.2344,260.1719 Q293.2344,261.4063 294.125,262.2344 Q295.0156,263.0469 296.6094,263.0469 Q297.5469,263.0469 298.2031,262.7969 Q298.5938,262.6406 299.0156,262.2031 Q299.2813,261.9375 299.4219,261.8594 Q299.5781,261.7813 299.7813,261.7813 Q300.1094,261.7813 300.3594,262.0469 Q300.625,262.2969 300.625,262.6406 Q300.625,262.9844 300.2813,263.3906 Q299.7813,263.9688 298.9844,264.2969 Q297.9063,264.75 296.6094,264.75 Q295.0938,264.75 293.8906,264.125 Q292.9063,263.625 292.2188,262.5625 Q291.5313,261.4844 291.5313,260.2031 L291.5313,259.0469 Q291.5313,257.7188 292.1406,256.5781 Q292.7656,255.4219 293.8594,254.8125 Q294.9531,254.1875 296.1875,254.1875 Q296.9219,254.1875 297.5625,254.3594 Q298.2188,254.5156 298.7656,254.875 Z " fill="#000000"/><text fill="#000000" font-family="sans-serif" font-size="14" lengthAdjust="spacing" textLength="64" x="310" y="264.7285">Document</text><line style="stroke:#181818;stroke-width:0.5;" x1="282" x2="376" y1="275" y2="275"/><ellipse cx="292" cy="289.3047" fill="none" rx="3" ry="3" style="stroke:#038048;stroke-width:1.0;"/><text fill="#000000" font-family="sans-serif" font-size="14" lengthAdjust="spacing" textLength="49" x="301" y="293.5332">location</text><line style="stroke:#181818;stroke-width:0.5;" x1="282" x2="376" y1="300.6094" y2="300.6094"/></g><!--class EventTarget--><g id="elem_EventTarget"><rect codeLine="11" fill="#FFFFE0" height="48" id="EventTarget" rx="2.5" ry="2.5" style="stroke:#181818;stroke-width:0.5;" width="110" x="501" y="7"/><ellipse cx="516" cy="23" fill="#ADD1B2" rx="11" ry="11" style="stroke:#181818;stroke-width:1.0;"/><path d="M518.7656,18.875 Q518.9219,18.6563 519.1094,18.5469 Q519.2969,18.4375 519.5156,18.4375 Q519.8906,18.4375 520.125,18.7031 Q520.3594,18.9531 520.3594,19.5625 L520.3594,21.0156 Q520.3594,21.625 520.125,21.8906 Q519.8906,22.1563 519.5156,22.1563 Q519.1719,22.1563 518.9688,21.9531 Q518.7656,21.7656 518.6563,21.25 Q518.6094,20.8906 518.4219,20.7031 Q518.0938,20.3281 517.4844,20.1094 Q516.875,19.8906 516.25,19.8906 Q515.4844,19.8906 514.8438,20.2188 Q514.2188,20.5469 513.7188,21.2969 Q513.2344,22.0469 513.2344,23.0781 L513.2344,24.1719 Q513.2344,25.4063 514.125,26.2344 Q515.0156,27.0469 516.6094,27.0469 Q517.5469,27.0469 518.2031,26.7969 Q518.5938,26.6406 519.0156,26.2031 Q519.2813,25.9375 519.4219,25.8594 Q519.5781,25.7813 519.7813,25.7813 Q520.1094,25.7813 520.3594,26.0469 Q520.625,26.2969 520.625,26.6406 Q520.625,26.9844 520.2813,27.3906 Q519.7813,27.9688 518.9844,28.2969 Q517.9063,28.75 516.6094,28.75 Q515.0938,28.75 513.8906,28.125 Q512.9063,27.625 512.2188,26.5625 Q511.5313,25.4844 511.5313,24.2031 L511.5313,23.0469 Q511.5313,21.7188 512.1406,20.5781 Q512.7656,19.4219 513.8594,18.8125 Q514.9531,18.1875 516.1875,18.1875 Q516.9219,18.1875 517.5625,18.3594 Q518.2188,18.5156 518.7656,18.875 Z " fill="#000000"/><text fill="#000000" font-family="sans-serif" font-size="14" lengthAdjust="spacing" textLength="78" x="530" y="28.7285">EventTarget</text><line style="stroke:#181818;stroke-width:0.5;" x1="502" x2="610" y1="39" y2="39"/><line style="stroke:#181818;stroke-width:0.5;" x1="502" x2="610" y1="47" y2="47"/></g><!--class Node--><g id="elem_Node"><rect codeLine="12" fill="#F1F1F1" height="48" id="Node" rx="2.5" ry="2.5" style="stroke:#181818;stroke-width:0.5;" width="65" x="444.5" y="125"/><ellipse cx="459.5" cy="141" fill="#ADD1B2" rx="11" ry="11" style="stroke:#181818;stroke-width:1.0;"/><path d="M462.2656,136.875 Q462.4219,136.6563 462.6094,136.5469 Q462.7969,136.4375 463.0156,136.4375 Q463.3906,136.4375 463.625,136.7031 Q463.8594,136.9531 463.8594,137.5625 L463.8594,139.0156 Q463.8594,139.625 463.625,139.8906 Q463.3906,140.1563 463.0156,140.1563 Q462.6719,140.1563 462.4688,139.9531 Q462.2656,139.7656 462.1563,139.25 Q462.1094,138.8906 461.9219,138.7031 Q461.5938,138.3281 460.9844,138.1094 Q460.375,137.8906 459.75,137.8906 Q458.9844,137.8906 458.3438,138.2188 Q457.7188,138.5469 457.2188,139.2969 Q456.7344,140.0469 456.7344,141.0781 L456.7344,142.1719 Q456.7344,143.4063 457.625,144.2344 Q458.5156,145.0469 460.1094,145.0469 Q461.0469,145.0469 461.7031,144.7969 Q462.0938,144.6406 462.5156,144.2031 Q462.7813,143.9375 462.9219,143.8594 Q463.0781,143.7813 463.2813,143.7813 Q463.6094,143.7813 463.8594,144.0469 Q464.125,144.2969 464.125,144.6406 Q464.125,144.9844 463.7813,145.3906 Q463.2813,145.9688 462.4844,146.2969 Q461.4063,146.75 460.1094,146.75 Q458.5938,146.75 457.3906,146.125 Q456.4063,145.625 455.7188,144.5625 Q455.0313,143.4844 455.0313,142.2031 L455.0313,141.0469 Q455.0313,139.7188 455.6406,138.5781 Q456.2656,137.4219 457.3594,136.8125 Q458.4531,136.1875 459.6875,136.1875 Q460.4219,136.1875 461.0625,136.3594 Q461.7188,136.5156 462.2656,136.875 Z " fill="#000000"/><text fill="#000000" font-family="sans-serif" font-size="14" lengthAdjust="spacing" textLength="33" x="473.5" y="146.7285">Node</text><line style="stroke:#181818;stroke-width:0.5;" x1="445.5" x2="508.5" y1="157" y2="157"/><line style="stroke:#181818;stroke-width:0.5;" x1="445.5" x2="508.5" y1="165" y2="165"/></g><g id="elem_GMN10"><path d="M328.5,9.5 L328.5,52.2031 A0,0 0 0 0 328.5,52.2031 L407.3,52.2031 L460.9,124.65 L415.3,52.2031 L465.5,52.2031 A0,0 0 0 0 465.5,52.2031 L465.5,19.5 L455.5,9.5 L328.5,9.5 A0,0 0 0 0 328.5,9.5 " fill="#FEFFDD" style="stroke:#181818;stroke-width:0.5;"/><path d="M455.5,9.5 L455.5,19.5 L465.5,19.5 L455.5,9.5 " fill="#FEFFDD" style="stroke:#181818;stroke-width:0.5;"/><text fill="#000000" font-family="sans-serif" font-size="13" lengthAdjust="spacing" textLength="112" x="334.5" y="27.9951">per a moures dintre</text><text fill="#000000" font-family="sans-serif" font-size="13" lengthAdjust="spacing" textLength="83" x="334.5" y="44.3467">del arbol DOM</text></g><g id="elem_GMN14"><path d="M191,119.5 L191,178.5547 A0,0 0 0 0 191,178.5547 L302.65,178.5547 L321.56,242.94 L310.65,178.5547 L409,178.5547 A0,0 0 0 0 409,178.5547 L409,129.5 L399,119.5 L191,119.5 A0,0 0 0 0 191,119.5 " fill="#FEFFDD" style="stroke:#181818;stroke-width:0.5;"/><path d="M399,119.5 L399,129.5 L409,129.5 L399,119.5 " fill="#FEFFDD" style="stroke:#181818;stroke-width:0.5;"/><text fill="#000000" font-family="sans-serif" font-size="13" lengthAdjust="spacing" textLength="119" x="197" y="137.9951">info de la p&#224;gina que</text><text fill="#000000" font-family="sans-serif" font-size="13" lengthAdjust="spacing" textLength="89" x="197" y="154.3467">s'esta mostrant</text><text fill="#000000" font-family="sans-serif" font-size="13" lengthAdjust="spacing" textLength="197" x="197" y="170.6982">NODO RAIZ DEL ARBOL &lt;DOM&gt;</text></g><!--class Element--><g id="elem_Element"><rect codeLine="30" fill="#F1F1F1" height="48" id="Element" rx="2.5" ry="2.5" style="stroke:#181818;stroke-width:0.5;" width="83" x="380.5" y="370"/><ellipse cx="395.5" cy="386" fill="#ADD1B2" rx="11" ry="11" style="stroke:#181818;stroke-width:1.0;"/><path d="M398.2656,381.875 Q398.4219,381.6563 398.6094,381.5469 Q398.7969,381.4375 399.0156,381.4375 Q399.3906,381.4375 399.625,381.7031 Q399.8594,381.9531 399.8594,382.5625 L399.8594,384.0156 Q399.8594,384.625 399.625,384.8906 Q399.3906,385.1563 399.0156,385.1563 Q398.6719,385.1563 398.4688,384.9531 Q398.2656,384.7656 398.1563,384.25 Q398.1094,383.8906 397.9219,383.7031 Q397.5938,383.3281 396.9844,383.1094 Q396.375,382.8906 395.75,382.8906 Q394.9844,382.8906 394.3438,383.2188 Q393.7188,383.5469 393.2188,384.2969 Q392.7344,385.0469 392.7344,386.0781 L392.7344,387.1719 Q392.7344,388.4063 393.625,389.2344 Q394.5156,390.0469 396.1094,390.0469 Q397.0469,390.0469 397.7031,389.7969 Q398.0938,389.6406 398.5156,389.2031 Q398.7813,388.9375 398.9219,388.8594 Q399.0781,388.7813 399.2813,388.7813 Q399.6094,388.7813 399.8594,389.0469 Q400.125,389.2969 400.125,389.6406 Q400.125,389.9844 399.7813,390.3906 Q399.2813,390.9688 398.4844,391.2969 Q397.4063,391.75 396.1094,391.75 Q394.5938,391.75 393.3906,391.125 Q392.4063,390.625 391.7188,389.5625 Q391.0313,388.4844 391.0313,387.2031 L391.0313,386.0469 Q391.0313,384.7188 391.6406,383.5781 Q392.2656,382.4219 393.3594,381.8125 Q394.4531,381.1875 395.6875,381.1875 Q396.4219,381.1875 397.0625,381.3594 Q397.7188,381.5156 398.2656,381.875 Z " fill="#000000"/><text fill="#000000" font-family="sans-serif" font-size="14" lengthAdjust="spacing" textLength="51" x="409.5" y="391.7285">Element</text><line style="stroke:#181818;stroke-width:0.5;" x1="381.5" x2="462.5" y1="402" y2="402"/><line style="stroke:#181818;stroke-width:0.5;" x1="381.5" x2="462.5" y1="410" y2="410"/></g><g id="elem_GMN20"><path d="M243,481.5 L243,524.2031 A0,0 0 0 0 243,524.2031 L475,524.2031 A0,0 0 0 0 475,524.2031 L475,491.5 L465,481.5 L375.15,481.5 L408.33,418.22 L367.15,481.5 L243,481.5 A0,0 0 0 0 243,481.5 " fill="#FEFFDD" style="stroke:#181818;stroke-width:0.5;"/><path d="M465,481.5 L465,491.5 L475,491.5 L465,481.5 " fill="#FEFFDD" style="stroke:#181818;stroke-width:0.5;"/><text fill="#000000" font-family="sans-serif" font-size="13" lengthAdjust="spacing" textLength="123" x="249" y="499.9951">UN es el NODE RAIZ</text><text fill="#000000" font-family="sans-serif" font-size="13" lengthAdjust="spacing" textLength="211" x="249" y="516.3467">DEL DOCUMENT (html, xml, svg...).</text></g><!--class EtiquetaDelDocument--><g id="elem_EtiquetaDelDocument"><rect codeLine="42" fill="#FFB6C1" height="48" id="EtiquetaDelDocument" rx="2.5" ry="2.5" style="stroke:#181818;stroke-width:0.5;" width="169" x="176.5" y="370"/><ellipse cx="191.5" cy="386" fill="#ADD1B2" rx="11" ry="11" style="stroke:#181818;stroke-width:1.0;"/><path d="M194.2656,381.875 Q194.4219,381.6563 194.6094,381.5469 Q194.7969,381.4375 195.0156,381.4375 Q195.3906,381.4375 195.625,381.7031 Q195.8594,381.9531 195.8594,382.5625 L195.8594,384.0156 Q195.8594,384.625 195.625,384.8906 Q195.3906,385.1563 195.0156,385.1563 Q194.6719,385.1563 194.4688,384.9531 Q194.2656,384.7656 194.1563,384.25 Q194.1094,383.8906 193.9219,383.7031 Q193.5938,383.3281 192.9844,383.1094 Q192.375,382.8906 191.75,382.8906 Q190.9844,382.8906 190.3438,383.2188 Q189.7188,383.5469 189.2188,384.2969 Q188.7344,385.0469 188.7344,386.0781 L188.7344,387.1719 Q188.7344,388.4063 189.625,389.2344 Q190.5156,390.0469 192.1094,390.0469 Q193.0469,390.0469 193.7031,389.7969 Q194.0938,389.6406 194.5156,389.2031 Q194.7813,388.9375 194.9219,388.8594 Q195.0781,388.7813 195.2813,388.7813 Q195.6094,388.7813 195.8594,389.0469 Q196.125,389.2969 196.125,389.6406 Q196.125,389.9844 195.7813,390.3906 Q195.2813,390.9688 194.4844,391.2969 Q193.4063,391.75 192.1094,391.75 Q190.5938,391.75 189.3906,391.125 Q188.4063,390.625 187.7188,389.5625 Q187.0313,388.4844 187.0313,387.2031 L187.0313,386.0469 Q187.0313,384.7188 187.6406,383.5781 Q188.2656,382.4219 189.3594,381.8125 Q190.4531,381.1875 191.6875,381.1875 Q192.4219,381.1875 193.0625,381.3594 Q193.7188,381.5156 194.2656,381.875 Z " fill="#000000"/><text fill="#000000" font-family="sans-serif" font-size="14" lengthAdjust="spacing" textLength="137" x="205.5" y="391.7285">EtiquetaDelDocument</text><line style="stroke:#181818;stroke-width:0.5;" x1="177.5" x2="344.5" y1="402" y2="402"/><line style="stroke:#181818;stroke-width:0.5;" x1="177.5" x2="344.5" y1="410" y2="410"/></g><!--class HTMLElement--><g id="elem_HTMLElement"><rect codeLine="44" fill="#F1F1F1" height="48" id="HTMLElement" rx="2.5" ry="2.5" style="stroke:#181818;stroke-width:0.5;" width="120" x="510" y="479"/><ellipse cx="525" cy="495" fill="#ADD1B2" rx="11" ry="11" style="stroke:#181818;stroke-width:1.0;"/><path d="M527.7656,490.875 Q527.9219,490.6563 528.1094,490.5469 Q528.2969,490.4375 528.5156,490.4375 Q528.8906,490.4375 529.125,490.7031 Q529.3594,490.9531 529.3594,491.5625 L529.3594,493.0156 Q529.3594,493.625 529.125,493.8906 Q528.8906,494.1563 528.5156,494.1563 Q528.1719,494.1563 527.9688,493.9531 Q527.7656,493.7656 527.6563,493.25 Q527.6094,492.8906 527.4219,492.7031 Q527.0938,492.3281 526.4844,492.1094 Q525.875,491.8906 525.25,491.8906 Q524.4844,491.8906 523.8438,492.2188 Q523.2188,492.5469 522.7188,493.2969 Q522.2344,494.0469 522.2344,495.0781 L522.2344,496.1719 Q522.2344,497.4063 523.125,498.2344 Q524.0156,499.0469 525.6094,499.0469 Q526.5469,499.0469 527.2031,498.7969 Q527.5938,498.6406 528.0156,498.2031 Q528.2813,497.9375 528.4219,497.8594 Q528.5781,497.7813 528.7813,497.7813 Q529.1094,497.7813 529.3594,498.0469 Q529.625,498.2969 529.625,498.6406 Q529.625,498.9844 529.2813,499.3906 Q528.7813,499.9688 527.9844,500.2969 Q526.9063,500.75 525.6094,500.75 Q524.0938,500.75 522.8906,500.125 Q521.9063,499.625 521.2188,498.5625 Q520.5313,497.4844 520.5313,496.2031 L520.5313,495.0469 Q520.5313,493.7188 521.1406,492.5781 Q521.7656,491.4219 522.8594,490.8125 Q523.9531,490.1875 525.1875,490.1875 Q525.9219,490.1875 526.5625,490.3594 Q527.2188,490.5156 527.7656,490.875 Z " fill="#000000"/><text fill="#000000" font-family="sans-serif" font-size="14" lengthAdjust="spacing" textLength="88" x="539" y="500.7285">HTMLElement</text><line style="stroke:#181818;stroke-width:0.5;" x1="511" x2="629" y1="511" y2="511"/><line style="stroke:#181818;stroke-width:0.5;" x1="511" x2="629" y1="519" y2="519"/></g><!--class CSSDeclaration--><g id="elem_CSSDeclaration"><rect codeLine="52" fill="#F1F1F1" height="48" id="CSSDeclaration" rx="2.5" ry="2.5" style="stroke:#181818;stroke-width:0.5;" width="132" x="504" y="658"/><ellipse cx="519" cy="674" fill="#ADD1B2" rx="11" ry="11" style="stroke:#181818;stroke-width:1.0;"/><path d="M521.7656,669.875 Q521.9219,669.6563 522.1094,669.5469 Q522.2969,669.4375 522.5156,669.4375 Q522.8906,669.4375 523.125,669.7031 Q523.3594,669.9531 523.3594,670.5625 L523.3594,672.0156 Q523.3594,672.625 523.125,672.8906 Q522.8906,673.1563 522.5156,673.1563 Q522.1719,673.1563 521.9688,672.9531 Q521.7656,672.7656 521.6563,672.25 Q521.6094,671.8906 521.4219,671.7031 Q521.0938,671.3281 520.4844,671.1094 Q519.875,670.8906 519.25,670.8906 Q518.4844,670.8906 517.8438,671.2188 Q517.2188,671.5469 516.7188,672.2969 Q516.2344,673.0469 516.2344,674.0781 L516.2344,675.1719 Q516.2344,676.4063 517.125,677.2344 Q518.0156,678.0469 519.6094,678.0469 Q520.5469,678.0469 521.2031,677.7969 Q521.5938,677.6406 522.0156,677.2031 Q522.2813,676.9375 522.4219,676.8594 Q522.5781,676.7813 522.7813,676.7813 Q523.1094,676.7813 523.3594,677.0469 Q523.625,677.2969 523.625,677.6406 Q523.625,677.9844 523.2813,678.3906 Q522.7813,678.9688 521.9844,679.2969 Q520.9063,679.75 519.6094,679.75 Q518.0938,679.75 516.8906,679.125 Q515.9063,678.625 515.2188,677.5625 Q514.5313,676.4844 514.5313,675.2031 L514.5313,674.0469 Q514.5313,672.7188 515.1406,671.5781 Q515.7656,670.4219 516.8594,669.8125 Q517.9531,669.1875 519.1875,669.1875 Q519.9219,669.1875 520.5625,669.3594 Q521.2188,669.5156 521.7656,669.875 Z " fill="#000000"/><text fill="#000000" font-family="sans-serif" font-size="14" lengthAdjust="spacing" textLength="100" x="533" y="679.7285">CSSDeclaration</text><line style="stroke:#181818;stroke-width:0.5;" x1="505" x2="635" y1="690" y2="690"/><line style="stroke:#181818;stroke-width:0.5;" x1="505" x2="635" y1="698" y2="698"/></g><!--class EstilCSSAplicatEnEtiqueta--><g id="elem_EstilCSSAplicatEnEtiqueta"><rect codeLine="56" fill="#FFB6C1" height="48" id="EstilCSSAplicatEnEtiqueta" rx="2.5" ry="2.5" style="stroke:#181818;stroke-width:0.5;" width="197" x="271.5" y="658"/><ellipse cx="286.5" cy="674" fill="#ADD1B2" rx="11" ry="11" style="stroke:#181818;stroke-width:1.0;"/><path d="M289.2656,669.875 Q289.4219,669.6563 289.6094,669.5469 Q289.7969,669.4375 290.0156,669.4375 Q290.3906,669.4375 290.625,669.7031 Q290.8594,669.9531 290.8594,670.5625 L290.8594,672.0156 Q290.8594,672.625 290.625,672.8906 Q290.3906,673.1563 290.0156,673.1563 Q289.6719,673.1563 289.4688,672.9531 Q289.2656,672.7656 289.1563,672.25 Q289.1094,671.8906 288.9219,671.7031 Q288.5938,671.3281 287.9844,671.1094 Q287.375,670.8906 286.75,670.8906 Q285.9844,670.8906 285.3438,671.2188 Q284.7188,671.5469 284.2188,672.2969 Q283.7344,673.0469 283.7344,674.0781 L283.7344,675.1719 Q283.7344,676.4063 284.625,677.2344 Q285.5156,678.0469 287.1094,678.0469 Q288.0469,678.0469 288.7031,677.7969 Q289.0938,677.6406 289.5156,677.2031 Q289.7813,676.9375 289.9219,676.8594 Q290.0781,676.7813 290.2813,676.7813 Q290.6094,676.7813 290.8594,677.0469 Q291.125,677.2969 291.125,677.6406 Q291.125,677.9844 290.7813,678.3906 Q290.2813,678.9688 289.4844,679.2969 Q288.4063,679.75 287.1094,679.75 Q285.5938,679.75 284.3906,679.125 Q283.4063,678.625 282.7188,677.5625 Q282.0313,676.4844 282.0313,675.2031 L282.0313,674.0469 Q282.0313,672.7188 282.6406,671.5781 Q283.2656,670.4219 284.3594,669.8125 Q285.4531,669.1875 286.6875,669.1875 Q287.4219,669.1875 288.0625,669.3594 Q288.7188,669.5156 289.2656,669.875 Z " fill="#000000"/><text fill="#000000" font-family="sans-serif" font-size="14" lengthAdjust="spacing" textLength="165" x="300.5" y="679.7285">EstilCSSAplicatEnEtiqueta</text><line style="stroke:#181818;stroke-width:0.5;" x1="272.5" x2="467.5" y1="690" y2="690"/><line style="stroke:#181818;stroke-width:0.5;" x1="272.5" x2="467.5" y1="698" y2="698"/></g><!--link Window to Document--><g id="link_Window_Document"><path codeLine="9" d="M160.4024,187.555 C201.1224,208.675 237.7236,227.6578 275.3836,247.1878 " fill="none" id="Window-Document" style="stroke:#181818;stroke-width:1.0;"/><polygon fill="#181818" points="149.75,182.03,153.2345,188.3433,160.4024,187.555,156.9179,181.2417,149.75,182.03" style="stroke:#181818;stroke-width:1.0;"/><polygon fill="#181818" points="280.71,249.95,274.5619,242.2558,276.2714,247.6482,270.879,249.3576,280.71,249.95" style="stroke:#181818;stroke-width:1.0;"/></g><!--reverse link EventTarget to Node--><g id="link_EventTarget_Node"><path codeLine="17" d="M530.0666,70.0766 C516.2866,90.3066 506.54,104.62 492.77,124.84 " fill="none" id="EventTarget-backto-Node" style="stroke:#181818;stroke-width:1.0;"/><polygon fill="none" points="540.2,55.2,525.1077,66.6988,535.0254,73.4544,540.2,55.2" style="stroke:#181818;stroke-width:1.0;"/></g><!--reverse link Node to Document--><g id="link_Node_Document"><path codeLine="27" d="M435.759,184.835 C412.519,204.465 392.74,221.17 366.94,242.95 " fill="none" id="Node-backto-Document" style="stroke:#181818;stroke-width:1.0;"/><polygon fill="none" points="449.51,173.22,431.8873,180.2513,439.6306,189.4187,449.51,173.22" style="stroke:#181818;stroke-width:1.0;"/></g><!--link Document to Element--><g id="link_Document_Element"><path codeLine="28" d="M362.1634,318.3647 C377.6434,337.6847 385.7569,347.7987 399.7469,365.2487 " fill="none" id="Document-Element" style="stroke:#181818;stroke-width:1.0;"/><polygon fill="#181818" points="354.66,309,355.2901,316.1835,362.1634,318.3647,361.5333,311.1812,354.66,309" style="stroke:#181818;stroke-width:1.0;"/><polygon fill="#181818" points="403.5,369.93,400.9912,360.406,400.3724,366.0289,394.7495,365.4101,403.5,369.93" style="stroke:#181818;stroke-width:1.0;"/><text fill="#000000" font-family="sans-serif" font-size="13" lengthAdjust="spacing" textLength="8" x="389.7344" y="359.2522">+</text></g><!--reverse link Node to Element--><g id="link_Node_Element"><path codeLine="35" d="M467.7541,190.8554 C457.2341,237.3054 437.76,323.38 427.26,369.77 " fill="none" id="Node-backto-Element" style="stroke:#181818;stroke-width:1.0;"/><polygon fill="none" points="471.73,173.3,461.9023,189.5301,473.6059,192.1807,471.73,173.3" style="stroke:#181818;stroke-width:1.0;"/><path d="M460,255 L460,297 L637,297 L637,265 L627,255 L460,255 " fill="#FEFFDD" style="stroke:#181818;stroke-width:0.5;"/><path d="M627,255 L627,265 L637,265 L627,255 " fill="#FEFFDD" style="stroke:#181818;stroke-width:0.5;"/><text fill="#000000" font-family="sans-serif" font-size="13" lengthAdjust="spacing" textLength="156" x="466" y="273.4951">A m&#233;s hi han altres nodos:</text><text fill="#000000" font-family="sans-serif" font-size="13" lengthAdjust="spacing" textLength="150" x="466" y="289.8467">text, atribut, comentaris...</text></g><!--reverse link EtiquetaDelDocument to Element--><g id="link_EtiquetaDelDocument_Element"><path codeLine="40" d="M351.59,394 C363.13,394 368.67,394 380.21,394 " fill="none" id="EtiquetaDelDocument-backto-Element" style="stroke:#181818;stroke-width:1.0;stroke-dasharray:7.0,7.0;"/><polygon fill="#181818" points="345.59,394,354.59,398,350.59,394,354.59,390,345.59,394" style="stroke:#181818;stroke-width:1.0;"/></g><!--reverse link Element to HTMLElement--><g id="link_Element_HTMLElement"><path codeLine="45" d="M468.7002,428.7616 C493.5302,446.7016 513.14,460.89 537.95,478.83 " fill="none" id="Element-backto-HTMLElement" style="stroke:#181818;stroke-width:1.0;"/><polygon fill="none" points="454.11,418.22,465.1863,433.625,472.2141,423.8982,454.11,418.22" style="stroke:#181818;stroke-width:1.0;"/></g><!--link HTMLElement to CSSDeclaration--><g id="link_HTMLElement_CSSDeclaration"><path codeLine="46" d="M570,527.14 C570,561.06 570,617.93 570,651.85 " fill="none" id="HTMLElement-to-CSSDeclaration" style="stroke:#181818;stroke-width:1.0;"/><polygon fill="#181818" points="570,657.85,574,648.85,570,652.85,566,648.85,570,657.85" style="stroke:#181818;stroke-width:1.0;"/><text fill="#000000" font-family="sans-serif" font-size="13" lengthAdjust="spacing" textLength="28" x="726.5" y="571.4951">style</text><path d="M575,580.3516 L575,622.3516 L906,622.3516 L906,590.3516 L896,580.3516 L575,580.3516 " fill="#FEFFDD" style="stroke:#181818;stroke-width:0.5;"/><path d="M896,580.3516 L896,590.3516 L906,590.3516 L896,580.3516 " fill="#FEFFDD" style="stroke:#181818;stroke-width:0.5;"/><text fill="#000000" font-family="sans-serif" font-size="13" lengthAdjust="spacing" textLength="156" x="581" y="598.8467">si prioritat no cal indicar-la:</text><text fill="#000000" font-family="sans-serif" font-size="13" lengthAdjust="spacing" textLength="310" x="581" y="615.1982">element.style.propiedadCSSCamelCase = "xxxYYY";</text></g><!--reverse link EstilCSSAplicatEnEtiqueta to CSSDeclaration--><g id="link_EstilCSSAplicatEnEtiqueta_CSSDeclaration"><path codeLine="53" d="M474.83,682 C486.42,682 492.01,682 503.61,682 " fill="none" id="EstilCSSAplicatEnEtiqueta-backto-CSSDeclaration" style="stroke:#181818;stroke-width:1.0;stroke-dasharray:7.0,7.0;"/><polygon fill="#181818" points="468.83,682,477.83,686,473.83,682,477.83,678,468.83,682" style="stroke:#181818;stroke-width:1.0;"/></g><!--SRC=[TLBDRjD04BxlKup2WPOsVe0G8YMn9P3oWzfKADmczjHPiTurkvCs27YNNZdo37annexZEXHyM7ariz_VJ6em1FYaRUOUuTLCvrkUc1t1TmNoNG4QydnHX7m0j-orpI_LJsKT4x0hGNagFGMoZ91YXb1IO3pyHZMSBESZHJQ3gbar16_w_H74BjqLyaIfj2PF7kIoGfyJDmhMP8nxRCeBbn6qbAea3mY5smalPDgobsf61j1ld85uEOTdsYxqy4U_NuETU4ywMg_6fSZQsOv3fUsz0n5WnDlXATSMuQl4eyBhogde2EnHl2oMyH9knXy-GvpCO7mpMSvW69zbK1kfLRG9j1BgO7fNFKWCdMNJN6iz6yVi2dMt0B4kZeKpENAgYZHUJk_coM855rikp3NigoCyv54KNKR_ad46xYmORR-eCHI7Nm6s6hPePVnSvMnTvi90CUtv6b3sOBEJdzHLpz7h81ITq8-m41cwvsW42Mk9Z34cysBqBqlD2doij3HTxrVpsGcqHQyTT2ggsrMbERszZKa0V3rJ643WRuREpGODfTVEQqOMyRB31cHJTOg-Rt2Ww8WNrK-ZqhjIKuQPG4-n83F5GF0EUllzVhrUzzu-Pz0eFzUW_fBK1XHO6wcDIoFCdDXJBAhDwNyTdRJ-0000]--></g></svg>