<?xml version="1.0" encoding="us-ascii" standalone="no"?><svg xmlns="http://www.w3.org/2000/svg" xmlns:xlink="http://www.w3.org/1999/xlink" contentStyleType="text/css" height="188px" preserveAspectRatio="none" style="width:513px;height:188px;background:#FFFFFF;" version="1.1" viewBox="0 0 513 188" width="513px" zoomAndPan="magnify"><defs/><g><!--class EventTarget--><g id="elem_EventTarget"><rect codeLine="1" fill="#F1F1F1" height="65.6094" id="EventTarget" rx="2.5" ry="2.5" style="stroke:#181818;stroke-width:0.5;" width="499" x="7" y="7"/><ellipse cx="213.25" cy="23" fill="#ADD1B2" rx="11" ry="11" style="stroke:#181818;stroke-width:1.0;"/><path d="M216.0156,18.875 Q216.1719,18.6563 216.3594,18.5469 Q216.5469,18.4375 216.7656,18.4375 Q217.1406,18.4375 217.375,18.7031 Q217.6094,18.9531 217.6094,19.5625 L217.6094,21.0156 Q217.6094,21.625 217.375,21.8906 Q217.1406,22.1563 216.7656,22.1563 Q216.4219,22.1563 216.2188,21.9531 Q216.0156,21.7656 215.9063,21.25 Q215.8594,20.8906 215.6719,20.7031 Q215.3438,20.3281 214.7344,20.1094 Q214.125,19.8906 213.5,19.8906 Q212.7344,19.8906 212.0938,20.2188 Q211.4688,20.5469 210.9688,21.2969 Q210.4844,22.0469 210.4844,23.0781 L210.4844,24.1719 Q210.4844,25.4063 211.375,26.2344 Q212.2656,27.0469 213.8594,27.0469 Q214.7969,27.0469 215.4531,26.7969 Q215.8438,26.6406 216.2656,26.2031 Q216.5313,25.9375 216.6719,25.8594 Q216.8281,25.7813 217.0313,25.7813 Q217.3594,25.7813 217.6094,26.0469 Q217.875,26.2969 217.875,26.6406 Q217.875,26.9844 217.5313,27.3906 Q217.0313,27.9688 216.2344,28.2969 Q215.1563,28.75 213.8594,28.75 Q212.3438,28.75 211.1406,28.125 Q210.1563,27.625 209.4688,26.5625 Q208.7813,25.4844 208.7813,24.2031 L208.7813,23.0469 Q208.7813,21.7188 209.3906,20.5781 Q210.0156,19.4219 211.1094,18.8125 Q212.2031,18.1875 213.4375,18.1875 Q214.1719,18.1875 214.8125,18.3594 Q215.4688,18.5156 216.0156,18.875 Z " fill="#000000"/><text fill="#000000" font-family="sans-serif" font-size="14" lengthAdjust="spacing" textLength="78" x="233.75" y="28.7285">EventTarget</text><line style="stroke:#181818;stroke-width:0.5;" x1="8" x2="505" y1="39" y2="39"/><line style="stroke:#181818;stroke-width:0.5;" x1="8" x2="505" y1="47" y2="47"/><ellipse cx="18" cy="61.3047" fill="#84BE84" rx="3" ry="3" style="stroke:#038048;stroke-width:1.0;"/><text fill="#000000" font-family="sans-serif" font-size="14" lengthAdjust="spacing" textLength="473" x="27" y="65.5332">addEventListener(type, callback(Event) or object with .handleEvent(Event))</text></g><!--class Event--><g id="elem_Event"><rect codeLine="7" fill="#F1F1F1" height="48" id="Event" rx="2.5" ry="2.5" style="stroke:#181818;stroke-width:0.5;" width="68" x="222.5" y="133"/><ellipse cx="237.5" cy="149" fill="#ADD1B2" rx="11" ry="11" style="stroke:#181818;stroke-width:1.0;"/><path d="M240.2656,144.875 Q240.4219,144.6563 240.6094,144.5469 Q240.7969,144.4375 241.0156,144.4375 Q241.3906,144.4375 241.625,144.7031 Q241.8594,144.9531 241.8594,145.5625 L241.8594,147.0156 Q241.8594,147.625 241.625,147.8906 Q241.3906,148.1563 241.0156,148.1563 Q240.6719,148.1563 240.4688,147.9531 Q240.2656,147.7656 240.1563,147.25 Q240.1094,146.8906 239.9219,146.7031 Q239.5938,146.3281 238.9844,146.1094 Q238.375,145.8906 237.75,145.8906 Q236.9844,145.8906 236.3438,146.2188 Q235.7188,146.5469 235.2188,147.2969 Q234.7344,148.0469 234.7344,149.0781 L234.7344,150.1719 Q234.7344,151.4063 235.625,152.2344 Q236.5156,153.0469 238.1094,153.0469 Q239.0469,153.0469 239.7031,152.7969 Q240.0938,152.6406 240.5156,152.2031 Q240.7813,151.9375 240.9219,151.8594 Q241.0781,151.7813 241.2813,151.7813 Q241.6094,151.7813 241.8594,152.0469 Q242.125,152.2969 242.125,152.6406 Q242.125,152.9844 241.7813,153.3906 Q241.2813,153.9688 240.4844,154.2969 Q239.4063,154.75 238.1094,154.75 Q236.5938,154.75 235.3906,154.125 Q234.4063,153.625 233.7188,152.5625 Q233.0313,151.4844 233.0313,150.2031 L233.0313,149.0469 Q233.0313,147.7188 233.6406,146.5781 Q234.2656,145.4219 235.3594,144.8125 Q236.4531,144.1875 237.6875,144.1875 Q238.4219,144.1875 239.0625,144.3594 Q239.7188,144.5156 240.2656,144.875 Z " fill="#000000"/><text fill="#000000" font-family="sans-serif" font-size="14" lengthAdjust="spacing" textLength="36" x="251.5" y="154.7285">Event</text><line style="stroke:#181818;stroke-width:0.5;" x1="223.5" x2="289.5" y1="165" y2="165"/><line style="stroke:#181818;stroke-width:0.5;" x1="223.5" x2="289.5" y1="173" y2="173"/></g><!--link EventTarget to Event--><g id="link_EventTarget_Event"><path codeLine="5" d="M256.5,73.03 C256.5,92.04 256.5,109.7 256.5,126.89 " fill="none" id="EventTarget-to-Event" style="stroke:#181818;stroke-width:1.0;stroke-dasharray:7.0,7.0;"/><polygon fill="#181818" points="256.5,132.89,260.5,123.89,256.5,127.89,252.5,123.89,256.5,132.89" style="stroke:#181818;stroke-width:1.0;"/></g><!--SRC=[Iyv9B2vMS2rBpIi9IInAJorHgERYKW02RON4b1Imk4zcSKbgNcgHHabbGQgEGd9YJavIOdAs1bXIKo6_I24_AIirkKIXFBCaGq4l8p4l9ISLB0bLeibLouLiWvwU7SH6BgvaXFK0]--></g></svg>