<?xml version="1.0" encoding="us-ascii" standalone="no"?><svg xmlns="http://www.w3.org/2000/svg" xmlns:xlink="http://www.w3.org/1999/xlink" contentStyleType="text/css" height="258px" preserveAspectRatio="none" style="width:342px;height:258px;background:#FFFFFF;" version="1.1" viewBox="0 0 342 258" width="342px" zoomAndPan="magnify"><defs/><g><!--class Document--><g id="elem_Document"><rect codeLine="2" fill="#F1F1F1" height="136.0469" id="Document" rx="2.5" ry="2.5" style="stroke:#181818;stroke-width:0.5;" width="328" x="7" y="115"/><ellipse cx="134.75" cy="131" fill="#ADD1B2" rx="11" ry="11" style="stroke:#181818;stroke-width:1.0;"/><path d="M137.5156,126.875 Q137.6719,126.6563 137.8594,126.5469 Q138.0469,126.4375 138.2656,126.4375 Q138.6406,126.4375 138.875,126.7031 Q139.1094,126.9531 139.1094,127.5625 L139.1094,129.0156 Q139.1094,129.625 138.875,129.8906 Q138.6406,130.1563 138.2656,130.1563 Q137.9219,130.1563 137.7188,129.9531 Q137.5156,129.7656 137.4063,129.25 Q137.3594,128.8906 137.1719,128.7031 Q136.8438,128.3281 136.2344,128.1094 Q135.625,127.8906 135,127.8906 Q134.2344,127.8906 133.5938,128.2188 Q132.9688,128.5469 132.4688,129.2969 Q131.9844,130.0469 131.9844,131.0781 L131.9844,132.1719 Q131.9844,133.4063 132.875,134.2344 Q133.7656,135.0469 135.3594,135.0469 Q136.2969,135.0469 136.9531,134.7969 Q137.3438,134.6406 137.7656,134.2031 Q138.0313,133.9375 138.1719,133.8594 Q138.3281,133.7813 138.5313,133.7813 Q138.8594,133.7813 139.1094,134.0469 Q139.375,134.2969 139.375,134.6406 Q139.375,134.9844 139.0313,135.3906 Q138.5313,135.9688 137.7344,136.2969 Q136.6563,136.75 135.3594,136.75 Q133.8438,136.75 132.6406,136.125 Q131.6563,135.625 130.9688,134.5625 Q130.2813,133.4844 130.2813,132.2031 L130.2813,131.0469 Q130.2813,129.7188 130.8906,128.5781 Q131.5156,127.4219 132.6094,126.8125 Q133.7031,126.1875 134.9375,126.1875 Q135.6719,126.1875 136.3125,126.3594 Q136.9688,126.5156 137.5156,126.875 Z " fill="#000000"/><text fill="#000000" font-family="sans-serif" font-size="14" lengthAdjust="spacing" textLength="64" x="155.25" y="136.7285">Document</text><line style="stroke:#181818;stroke-width:0.5;" x1="8" x2="334" y1="147" y2="147"/><line style="stroke:#181818;stroke-width:0.5;" x1="8" x2="334" y1="155" y2="155"/><ellipse cx="18" cy="169.3047" fill="#84BE84" rx="3" ry="3" style="stroke:#038048;stroke-width:1.0;"/><text fill="#000000" font-family="sans-serif" font-size="14" lengthAdjust="spacing" textLength="182" x="27" y="173.5332">getElementById(id) : Element</text><ellipse cx="18" cy="186.9141" fill="#84BE84" rx="3" ry="3" style="stroke:#038048;stroke-width:1.0;"/><text fill="#000000" font-family="sans-serif" font-size="14" lengthAdjust="spacing" textLength="143" x="27" y="191.1426">getElementsByYYY(...)</text><ellipse cx="18" cy="204.5234" fill="#84BE84" rx="3" ry="3" style="stroke:#038048;stroke-width:1.0;"/><text fill="#000000" font-family="sans-serif" font-size="14" lengthAdjust="spacing" textLength="110" x="27" y="208.752">querySelector(...)</text><ellipse cx="18" cy="222.1328" fill="#84BE84" rx="3" ry="3" style="stroke:#038048;stroke-width:1.0;"/><text fill="#000000" font-family="sans-serif" font-size="14" lengthAdjust="spacing" textLength="302" x="27" y="226.3613">createElement(&lt;tagName&gt;): Element or Derived</text><ellipse cx="18" cy="239.7422" fill="#84BE84" rx="3" ry="3" style="stroke:#038048;stroke-width:1.0;"/><text fill="#000000" font-family="sans-serif" font-size="14" lengthAdjust="spacing" textLength="180" x="27" y="243.9707">createTextNode(string): Text</text></g><!--class Node--><g id="elem_Node"><rect codeLine="12" fill="#F1F1F1" height="48" id="Node" rx="2.5" ry="2.5" style="stroke:#181818;stroke-width:0.5;" width="65" x="138.5" y="7"/><ellipse cx="153.5" cy="23" fill="#ADD1B2" rx="11" ry="11" style="stroke:#181818;stroke-width:1.0;"/><path d="M156.2656,18.875 Q156.4219,18.6563 156.6094,18.5469 Q156.7969,18.4375 157.0156,18.4375 Q157.3906,18.4375 157.625,18.7031 Q157.8594,18.9531 157.8594,19.5625 L157.8594,21.0156 Q157.8594,21.625 157.625,21.8906 Q157.3906,22.1563 157.0156,22.1563 Q156.6719,22.1563 156.4688,21.9531 Q156.2656,21.7656 156.1563,21.25 Q156.1094,20.8906 155.9219,20.7031 Q155.5938,20.3281 154.9844,20.1094 Q154.375,19.8906 153.75,19.8906 Q152.9844,19.8906 152.3438,20.2188 Q151.7188,20.5469 151.2188,21.2969 Q150.7344,22.0469 150.7344,23.0781 L150.7344,24.1719 Q150.7344,25.4063 151.625,26.2344 Q152.5156,27.0469 154.1094,27.0469 Q155.0469,27.0469 155.7031,26.7969 Q156.0938,26.6406 156.5156,26.2031 Q156.7813,25.9375 156.9219,25.8594 Q157.0781,25.7813 157.2813,25.7813 Q157.6094,25.7813 157.8594,26.0469 Q158.125,26.2969 158.125,26.6406 Q158.125,26.9844 157.7813,27.3906 Q157.2813,27.9688 156.4844,28.2969 Q155.4063,28.75 154.1094,28.75 Q152.5938,28.75 151.3906,28.125 Q150.4063,27.625 149.7188,26.5625 Q149.0313,25.4844 149.0313,24.2031 L149.0313,23.0469 Q149.0313,21.7188 149.6406,20.5781 Q150.2656,19.4219 151.3594,18.8125 Q152.4531,18.1875 153.6875,18.1875 Q154.4219,18.1875 155.0625,18.3594 Q155.7188,18.5156 156.2656,18.875 Z " fill="#000000"/><text fill="#000000" font-family="sans-serif" font-size="14" lengthAdjust="spacing" textLength="33" x="167.5" y="28.7285">Node</text><line style="stroke:#181818;stroke-width:0.5;" x1="139.5" x2="202.5" y1="39" y2="39"/><line style="stroke:#181818;stroke-width:0.5;" x1="139.5" x2="202.5" y1="47" y2="47"/></g><!--reverse link Node to Document--><g id="link_Node_Document"><path codeLine="10" d="M171,73.11 C171,89.13 171,93.36 171,114.74 " fill="none" id="Node-backto-Document" style="stroke:#181818;stroke-width:1.0;"/><polygon fill="none" points="171,55.11,165,73.11,177,73.11,171,55.11" style="stroke:#181818;stroke-width:1.0;"/></g><!--SRC=[PO-n2i8m54NtVCKRKwJz02aEfGukNNJf699B2QGD9gzYKF_THafHVEEvzpousgaOgVLw7Z4nFOIWvNOqW8yEcJNfPAGr1Urf9N-LsAI-xsLLLSMQNMU4T8Q3PX- -0nsW6AidQrP3fqOSYkqv-K0jWht1_2WNtBdp1Z9oiDEm29c8byYGwcTPRYk4q9zLENa3]--></g></svg>