<?xml version="1.0" encoding="us-ascii" standalone="no"?><svg xmlns="http://www.w3.org/2000/svg" xmlns:xlink="http://www.w3.org/1999/xlink" contentStyleType="text/css" height="139px" preserveAspectRatio="none" style="width:239px;height:139px;background:#FFFFFF;" version="1.1" viewBox="0 0 239 139" width="239px" zoomAndPan="magnify"><defs/><g><!--class Event--><g id="elem_Event"><rect codeLine="2" fill="#F1F1F1" height="118.4375" id="Event" rx="2.5" ry="2.5" style="stroke:#181818;stroke-width:0.5;" width="218" x="7" y="7"/><ellipse cx="93.75" cy="23" fill="#ADD1B2" rx="11" ry="11" style="stroke:#181818;stroke-width:1.0;"/><path d="M96.5156,18.875 Q96.6719,18.6563 96.8594,18.5469 Q97.0469,18.4375 97.2656,18.4375 Q97.6406,18.4375 97.875,18.7031 Q98.1094,18.9531 98.1094,19.5625 L98.1094,21.0156 Q98.1094,21.625 97.875,21.8906 Q97.6406,22.1563 97.2656,22.1563 Q96.9219,22.1563 96.7188,21.9531 Q96.5156,21.7656 96.4063,21.25 Q96.3594,20.8906 96.1719,20.7031 Q95.8438,20.3281 95.2344,20.1094 Q94.625,19.8906 94,19.8906 Q93.2344,19.8906 92.5938,20.2188 Q91.9688,20.5469 91.4688,21.2969 Q90.9844,22.0469 90.9844,23.0781 L90.9844,24.1719 Q90.9844,25.4063 91.875,26.2344 Q92.7656,27.0469 94.3594,27.0469 Q95.2969,27.0469 95.9531,26.7969 Q96.3438,26.6406 96.7656,26.2031 Q97.0313,25.9375 97.1719,25.8594 Q97.3281,25.7813 97.5313,25.7813 Q97.8594,25.7813 98.1094,26.0469 Q98.375,26.2969 98.375,26.6406 Q98.375,26.9844 98.0313,27.3906 Q97.5313,27.9688 96.7344,28.2969 Q95.6563,28.75 94.3594,28.75 Q92.8438,28.75 91.6406,28.125 Q90.6563,27.625 89.9688,26.5625 Q89.2813,25.4844 89.2813,24.2031 L89.2813,23.0469 Q89.2813,21.7188 89.8906,20.5781 Q90.5156,19.4219 91.6094,18.8125 Q92.7031,18.1875 93.9375,18.1875 Q94.6719,18.1875 95.3125,18.3594 Q95.9688,18.5156 96.5156,18.875 Z " fill="#000000"/><text fill="#000000" font-family="sans-serif" font-size="14" lengthAdjust="spacing" textLength="36" x="114.25" y="28.7285">Event</text><line style="stroke:#181818;stroke-width:0.5;" x1="8" x2="224" y1="39" y2="39"/><ellipse cx="18" cy="53.3047" fill="none" rx="3" ry="3" style="stroke:#038048;stroke-width:1.0;"/><text fill="#000000" font-family="sans-serif" font-size="14" lengthAdjust="spacing" textLength="192" x="27" y="57.5332">type: String del NOM del event</text><ellipse cx="18" cy="70.9141" fill="none" rx="3" ry="3" style="stroke:#038048;stroke-width:1.0;"/><text fill="#000000" font-family="sans-serif" font-size="14" lengthAdjust="spacing" textLength="123" x="27" y="75.1426">target: EventTarget</text><line style="stroke:#181818;stroke-width:0.5;" x1="8" x2="224" y1="82.2188" y2="82.2188"/><ellipse cx="18" cy="96.5234" fill="#84BE84" rx="3" ry="3" style="stroke:#038048;stroke-width:1.0;"/><text fill="#000000" font-family="sans-serif" font-size="14" lengthAdjust="spacing" textLength="103" x="27" y="100.752">preventDefault()</text><ellipse cx="18" cy="114.1328" fill="#84BE84" rx="3" ry="3" style="stroke:#038048;stroke-width:1.0;"/><text fill="#000000" font-family="sans-serif" font-size="14" lengthAdjust="spacing" textLength="114" x="27" y="118.3613">stopPropagation()</text></g><!--SRC=[Iyv9B2vMS2rBpIjHgEPI009jXPBAWbGhXU2IeioyT8MKr1m5FtzVC9qAKWPJb5YKdbfY1T4Q0kPmGQKAYi0ANLBJ4ajpIZGqeSB59Va50KNv1OdfYIMP-Nb0yLe0]--></g></svg>