<?xml version="1.0" encoding="us-ascii" standalone="no"?><svg xmlns="http://www.w3.org/2000/svg" xmlns:xlink="http://www.w3.org/1999/xlink" contentStyleType="text/css" height="593px" preserveAspectRatio="none" style="width:1338px;height:593px;background:#FFFFFF;" version="1.1" viewBox="0 0 1338 593" width="1338px" zoomAndPan="magnify"><defs/><g><!--class Event--><g id="elem_Event"><rect codeLine="2" fill="#F1F1F1" height="65.6094" id="Event" rx="2.5" ry="2.5" style="stroke:#181818;stroke-width:0.5;" width="218" x="435" y="10"/><ellipse cx="522.25" cy="26" fill="#A9DCDF" rx="11" ry="11" style="stroke:#181818;stroke-width:1.0;"/><path d="M524.4375,27.7656 L520.2969,27.7656 L519.875,28.7969 L520.2969,28.7969 Q520.9063,28.7969 521.1719,29.0313 Q521.4375,29.2656 521.4375,29.6563 Q521.4375,30.0313 521.1719,30.2656 Q520.9063,30.5 520.2969,30.5 L518,30.5 Q517.3906,30.5 517.1406,30.2656 Q516.875,30.0313 516.875,29.6406 Q516.875,29.2656 517.1563,29.0313 Q517.4219,28.7813 518.0469,28.7969 L520.7188,22.1406 L519.6094,22.1406 Q519,22.1406 518.7344,21.9063 Q518.4688,21.6719 518.4688,21.2813 Q518.4688,20.9063 518.7344,20.6719 Q519,20.4375 519.6094,20.4375 L523.2813,20.4375 L526.6719,28.7969 Q527.2656,28.7969 527.4531,28.9375 Q527.8438,29.2031 527.8438,29.6563 Q527.8438,30.0313 527.5781,30.2656 Q527.3281,30.5 526.7188,30.5 L524.4219,30.5 Q523.8125,30.5 523.5469,30.2656 Q523.2813,30.0313 523.2813,29.6406 Q523.2813,29.2656 523.5469,29.0313 Q523.8125,28.7969 524.4219,28.7969 L524.8438,28.7969 L524.4375,27.7656 Z M523.7188,26.0625 L522.3594,22.6875 L520.9844,26.0625 L523.7188,26.0625 Z " fill="#000000"/><text fill="#000000" font-family="sans-serif" font-size="14" font-style="italic" lengthAdjust="spacing" textLength="35" x="542.75" y="31.7285">Event</text><line style="stroke:#181818;stroke-width:0.5;" x1="436" x2="652" y1="42" y2="42"/><ellipse cx="446" cy="56.3047" fill="none" rx="3" ry="3" style="stroke:#038048;stroke-width:1.0;"/><text fill="#000000" font-family="sans-serif" font-size="14" lengthAdjust="spacing" textLength="192" x="455" y="60.5332">type: String del NOM del event</text><line style="stroke:#181818;stroke-width:0.5;" x1="436" x2="652" y1="67.6094" y2="67.6094"/></g><!--class EventTarget--><g id="elem_EventTarget"><rect codeLine="20" fill="#F1F1F1" height="65.6094" id="EventTarget" rx="2.5" ry="2.5" style="stroke:#181818;stroke-width:0.5;" width="322" x="169" y="154"/><ellipse cx="286.75" cy="170" fill="#ADD1B2" rx="11" ry="11" style="stroke:#181818;stroke-width:1.0;"/><path d="M289.5156,165.875 Q289.6719,165.6563 289.8594,165.5469 Q290.0469,165.4375 290.2656,165.4375 Q290.6406,165.4375 290.875,165.7031 Q291.1094,165.9531 291.1094,166.5625 L291.1094,168.0156 Q291.1094,168.625 290.875,168.8906 Q290.6406,169.1563 290.2656,169.1563 Q289.9219,169.1563 289.7188,168.9531 Q289.5156,168.7656 289.4063,168.25 Q289.3594,167.8906 289.1719,167.7031 Q288.8438,167.3281 288.2344,167.1094 Q287.625,166.8906 287,166.8906 Q286.2344,166.8906 285.5938,167.2188 Q284.9688,167.5469 284.4688,168.2969 Q283.9844,169.0469 283.9844,170.0781 L283.9844,171.1719 Q283.9844,172.4063 284.875,173.2344 Q285.7656,174.0469 287.3594,174.0469 Q288.2969,174.0469 288.9531,173.7969 Q289.3438,173.6406 289.7656,173.2031 Q290.0313,172.9375 290.1719,172.8594 Q290.3281,172.7813 290.5313,172.7813 Q290.8594,172.7813 291.1094,173.0469 Q291.375,173.2969 291.375,173.6406 Q291.375,173.9844 291.0313,174.3906 Q290.5313,174.9688 289.7344,175.2969 Q288.6563,175.75 287.3594,175.75 Q285.8438,175.75 284.6406,175.125 Q283.6563,174.625 282.9688,173.5625 Q282.2813,172.4844 282.2813,171.2031 L282.2813,170.0469 Q282.2813,168.7188 282.8906,167.5781 Q283.5156,166.4219 284.6094,165.8125 Q285.7031,165.1875 286.9375,165.1875 Q287.6719,165.1875 288.3125,165.3594 Q288.9688,165.5156 289.5156,165.875 Z " fill="#000000"/><text fill="#000000" font-family="sans-serif" font-size="14" lengthAdjust="spacing" textLength="78" x="307.25" y="175.7285">EventTarget</text><line style="stroke:#181818;stroke-width:0.5;" x1="170" x2="490" y1="186" y2="186"/><line style="stroke:#181818;stroke-width:0.5;" x1="170" x2="490" y1="194" y2="194"/><ellipse cx="180" cy="208.3047" fill="#84BE84" rx="3" ry="3" style="stroke:#038048;stroke-width:1.0;"/><text fill="#000000" font-family="sans-serif" font-size="14" lengthAdjust="spacing" textLength="296" x="189" y="212.5332">addEventListener(eventName: String, callback)</text></g><!--class UIEvent--><g id="elem_UIEvent"><rect codeLine="7" fill="#F1F1F1" height="48" id="UIEvent" rx="2.5" ry="2.5" style="stroke:#181818;stroke-width:0.5;" width="81" x="606.5" y="163"/><ellipse cx="621.5" cy="179" fill="#A9DCDF" rx="11" ry="11" style="stroke:#181818;stroke-width:1.0;"/><path d="M623.6875,180.7656 L619.5469,180.7656 L619.125,181.7969 L619.5469,181.7969 Q620.1563,181.7969 620.4219,182.0313 Q620.6875,182.2656 620.6875,182.6563 Q620.6875,183.0313 620.4219,183.2656 Q620.1563,183.5 619.5469,183.5 L617.25,183.5 Q616.6406,183.5 616.3906,183.2656 Q616.125,183.0313 616.125,182.6406 Q616.125,182.2656 616.4063,182.0313 Q616.6719,181.7813 617.2969,181.7969 L619.9688,175.1406 L618.8594,175.1406 Q618.25,175.1406 617.9844,174.9063 Q617.7188,174.6719 617.7188,174.2813 Q617.7188,173.9063 617.9844,173.6719 Q618.25,173.4375 618.8594,173.4375 L622.5313,173.4375 L625.9219,181.7969 Q626.5156,181.7969 626.7031,181.9375 Q627.0938,182.2031 627.0938,182.6563 Q627.0938,183.0313 626.8281,183.2656 Q626.5781,183.5 625.9688,183.5 L623.6719,183.5 Q623.0625,183.5 622.7969,183.2656 Q622.5313,183.0313 622.5313,182.6406 Q622.5313,182.2656 622.7969,182.0313 Q623.0625,181.7969 623.6719,181.7969 L624.0938,181.7969 L623.6875,180.7656 Z M622.9688,179.0625 L621.6094,175.6875 L620.2344,179.0625 L622.9688,179.0625 Z " fill="#000000"/><text fill="#000000" font-family="sans-serif" font-size="14" font-style="italic" lengthAdjust="spacing" textLength="49" x="635.5" y="184.7285">UIEvent</text><line style="stroke:#181818;stroke-width:0.5;" x1="607.5" x2="686.5" y1="195" y2="195"/><line style="stroke:#181818;stroke-width:0.5;" x1="607.5" x2="686.5" y1="203" y2="203"/></g><!--class MouseEvent--><g id="elem_MouseEvent"><rect codeLine="10" fill="#F1F1F1" height="48" id="MouseEvent" rx="2.5" ry="2.5" style="stroke:#181818;stroke-width:0.5;" width="110" x="933" y="303.5"/><ellipse cx="948" cy="319.5" fill="#ADD1B2" rx="11" ry="11" style="stroke:#181818;stroke-width:1.0;"/><path d="M950.7656,315.375 Q950.9219,315.1563 951.1094,315.0469 Q951.2969,314.9375 951.5156,314.9375 Q951.8906,314.9375 952.125,315.2031 Q952.3594,315.4531 952.3594,316.0625 L952.3594,317.5156 Q952.3594,318.125 952.125,318.3906 Q951.8906,318.6563 951.5156,318.6563 Q951.1719,318.6563 950.9688,318.4531 Q950.7656,318.2656 950.6563,317.75 Q950.6094,317.3906 950.4219,317.2031 Q950.0938,316.8281 949.4844,316.6094 Q948.875,316.3906 948.25,316.3906 Q947.4844,316.3906 946.8438,316.7188 Q946.2188,317.0469 945.7188,317.7969 Q945.2344,318.5469 945.2344,319.5781 L945.2344,320.6719 Q945.2344,321.9063 946.125,322.7344 Q947.0156,323.5469 948.6094,323.5469 Q949.5469,323.5469 950.2031,323.2969 Q950.5938,323.1406 951.0156,322.7031 Q951.2813,322.4375 951.4219,322.3594 Q951.5781,322.2813 951.7813,322.2813 Q952.1094,322.2813 952.3594,322.5469 Q952.625,322.7969 952.625,323.1406 Q952.625,323.4844 952.2813,323.8906 Q951.7813,324.4688 950.9844,324.7969 Q949.9063,325.25 948.6094,325.25 Q947.0938,325.25 945.8906,324.625 Q944.9063,324.125 944.2188,323.0625 Q943.5313,321.9844 943.5313,320.7031 L943.5313,319.5469 Q943.5313,318.2188 944.1406,317.0781 Q944.7656,315.9219 945.8594,315.3125 Q946.9531,314.6875 948.1875,314.6875 Q948.9219,314.6875 949.5625,314.8594 Q950.2188,315.0156 950.7656,315.375 Z " fill="#000000"/><text fill="#000000" font-family="sans-serif" font-size="14" lengthAdjust="spacing" textLength="78" x="962" y="325.2285">MouseEvent</text><line style="stroke:#181818;stroke-width:0.5;" x1="934" x2="1042" y1="335.5" y2="335.5"/><line style="stroke:#181818;stroke-width:0.5;" x1="934" x2="1042" y1="343.5" y2="343.5"/></g><!--class KeyboardEvend--><g id="elem_KeyboardEvend"><rect codeLine="13" fill="#F1F1F1" height="48" id="KeyboardEvend" rx="2.5" ry="2.5" style="stroke:#181818;stroke-width:0.5;" width="133" x="636.5" y="303.5"/><ellipse cx="651.5" cy="319.5" fill="#ADD1B2" rx="11" ry="11" style="stroke:#181818;stroke-width:1.0;"/><path d="M654.2656,315.375 Q654.4219,315.1563 654.6094,315.0469 Q654.7969,314.9375 655.0156,314.9375 Q655.3906,314.9375 655.625,315.2031 Q655.8594,315.4531 655.8594,316.0625 L655.8594,317.5156 Q655.8594,318.125 655.625,318.3906 Q655.3906,318.6563 655.0156,318.6563 Q654.6719,318.6563 654.4688,318.4531 Q654.2656,318.2656 654.1563,317.75 Q654.1094,317.3906 653.9219,317.2031 Q653.5938,316.8281 652.9844,316.6094 Q652.375,316.3906 651.75,316.3906 Q650.9844,316.3906 650.3438,316.7188 Q649.7188,317.0469 649.2188,317.7969 Q648.7344,318.5469 648.7344,319.5781 L648.7344,320.6719 Q648.7344,321.9063 649.625,322.7344 Q650.5156,323.5469 652.1094,323.5469 Q653.0469,323.5469 653.7031,323.2969 Q654.0938,323.1406 654.5156,322.7031 Q654.7813,322.4375 654.9219,322.3594 Q655.0781,322.2813 655.2813,322.2813 Q655.6094,322.2813 655.8594,322.5469 Q656.125,322.7969 656.125,323.1406 Q656.125,323.4844 655.7813,323.8906 Q655.2813,324.4688 654.4844,324.7969 Q653.4063,325.25 652.1094,325.25 Q650.5938,325.25 649.3906,324.625 Q648.4063,324.125 647.7188,323.0625 Q647.0313,321.9844 647.0313,320.7031 L647.0313,319.5469 Q647.0313,318.2188 647.6406,317.0781 Q648.2656,315.9219 649.3594,315.3125 Q650.4531,314.6875 651.6875,314.6875 Q652.4219,314.6875 653.0625,314.8594 Q653.7188,315.0156 654.2656,315.375 Z " fill="#000000"/><text fill="#000000" font-family="sans-serif" font-size="14" lengthAdjust="spacing" textLength="101" x="665.5" y="325.2285">KeyboardEvend</text><line style="stroke:#181818;stroke-width:0.5;" x1="637.5" x2="768.5" y1="335.5" y2="335.5"/><line style="stroke:#181818;stroke-width:0.5;" x1="637.5" x2="768.5" y1="343.5" y2="343.5"/></g><!--class ProgressEvent--><g id="elem_ProgressEvent"><rect codeLine="16" fill="#F1F1F1" height="48" id="ProgressEvent" rx="2.5" ry="2.5" style="stroke:#181818;stroke-width:0.5;" width="125" x="476.5" y="303.5"/><ellipse cx="491.5" cy="319.5" fill="#ADD1B2" rx="11" ry="11" style="stroke:#181818;stroke-width:1.0;"/><path d="M494.2656,315.375 Q494.4219,315.1563 494.6094,315.0469 Q494.7969,314.9375 495.0156,314.9375 Q495.3906,314.9375 495.625,315.2031 Q495.8594,315.4531 495.8594,316.0625 L495.8594,317.5156 Q495.8594,318.125 495.625,318.3906 Q495.3906,318.6563 495.0156,318.6563 Q494.6719,318.6563 494.4688,318.4531 Q494.2656,318.2656 494.1563,317.75 Q494.1094,317.3906 493.9219,317.2031 Q493.5938,316.8281 492.9844,316.6094 Q492.375,316.3906 491.75,316.3906 Q490.9844,316.3906 490.3438,316.7188 Q489.7188,317.0469 489.2188,317.7969 Q488.7344,318.5469 488.7344,319.5781 L488.7344,320.6719 Q488.7344,321.9063 489.625,322.7344 Q490.5156,323.5469 492.1094,323.5469 Q493.0469,323.5469 493.7031,323.2969 Q494.0938,323.1406 494.5156,322.7031 Q494.7813,322.4375 494.9219,322.3594 Q495.0781,322.2813 495.2813,322.2813 Q495.6094,322.2813 495.8594,322.5469 Q496.125,322.7969 496.125,323.1406 Q496.125,323.4844 495.7813,323.8906 Q495.2813,324.4688 494.4844,324.7969 Q493.4063,325.25 492.1094,325.25 Q490.5938,325.25 489.3906,324.625 Q488.4063,324.125 487.7188,323.0625 Q487.0313,321.9844 487.0313,320.7031 L487.0313,319.5469 Q487.0313,318.2188 487.6406,317.0781 Q488.2656,315.9219 489.3594,315.3125 Q490.4531,314.6875 491.6875,314.6875 Q492.4219,314.6875 493.0625,314.8594 Q493.7188,315.0156 494.2656,315.375 Z " fill="#000000"/><text fill="#000000" font-family="sans-serif" font-size="14" lengthAdjust="spacing" textLength="93" x="505.5" y="325.2285">ProgressEvent</text><line style="stroke:#181818;stroke-width:0.5;" x1="477.5" x2="600.5" y1="335.5" y2="335.5"/><line style="stroke:#181818;stroke-width:0.5;" x1="477.5" x2="600.5" y1="343.5" y2="343.5"/></g><g id="elem_GMN13"><path d="M6,298 L6,357.0547 A0,0 0 0 0 6,357.0547 L320,357.0547 A0,0 0 0 0 320,357.0547 L320,308 L310,298 L201.55,298 L291.27,220.12 L193.55,298 L6,298 A0,0 0 0 0 6,298 " fill="#FEFFDD" style="stroke:#181818;stroke-width:0.5;"/><path d="M310,298 L310,308 L320,308 L310,298 " fill="#FEFFDD" style="stroke:#181818;stroke-width:0.5;"/><text fill="#000000" font-family="sans-serif" font-size="13" lengthAdjust="spacing" textLength="171" x="12" y="316.4951">eventName &#233;s com una KEY.</text><text fill="#000000" font-family="sans-serif" font-size="13" lengthAdjust="spacing" textLength="293" x="12" y="332.8467">REGISTRA EL CALLBACK como SUBSCRIPTOR,</text><text fill="#000000" font-family="sans-serif" font-size="13" lengthAdjust="spacing" textLength="154" x="12" y="349.1982">en el manejador del evento</text></g><!--class EventNameHandler--><g id="elem_EventNameHandler"><rect codeLine="29" fill="#F1F1F1" height="65.6094" id="EventNameHandler" rx="2.5" ry="2.5" style="stroke:#181818;stroke-width:0.5;" width="223" x="934.5" y="10"/><ellipse cx="950.4" cy="26" fill="#A9DCDF" rx="11" ry="11" style="stroke:#181818;stroke-width:1.0;"/><path d="M952.5875,27.7656 L948.4469,27.7656 L948.025,28.7969 L948.4469,28.7969 Q949.0563,28.7969 949.3219,29.0313 Q949.5875,29.2656 949.5875,29.6563 Q949.5875,30.0313 949.3219,30.2656 Q949.0563,30.5 948.4469,30.5 L946.15,30.5 Q945.5406,30.5 945.2906,30.2656 Q945.025,30.0313 945.025,29.6406 Q945.025,29.2656 945.3063,29.0313 Q945.5719,28.7813 946.1969,28.7969 L948.8688,22.1406 L947.7594,22.1406 Q947.15,22.1406 946.8844,21.9063 Q946.6188,21.6719 946.6188,21.2813 Q946.6188,20.9063 946.8844,20.6719 Q947.15,20.4375 947.7594,20.4375 L951.4313,20.4375 L954.8219,28.7969 Q955.4156,28.7969 955.6031,28.9375 Q955.9938,29.2031 955.9938,29.6563 Q955.9938,30.0313 955.7281,30.2656 Q955.4781,30.5 954.8688,30.5 L952.5719,30.5 Q951.9625,30.5 951.6969,30.2656 Q951.4313,30.0313 951.4313,29.6406 Q951.4313,29.2656 951.6969,29.0313 Q951.9625,28.7969 952.5719,28.7969 L952.9938,28.7969 L952.5875,27.7656 Z M951.8688,26.0625 L950.5094,22.6875 L949.1344,26.0625 L951.8688,26.0625 Z " fill="#000000"/><text fill="#000000" font-family="sans-serif" font-size="14" font-style="italic" lengthAdjust="spacing" textLength="122" x="964.6" y="31.7285">EventNameHandler</text><rect fill="#FFFFFF" height="17.0938" style="stroke:#181818;stroke-width:1.0;stroke-dasharray:2.0,2.0;" width="65" x="1095.5" y="7"/><text fill="#000000" font-family="sans-serif" font-size="12" font-style="italic" lengthAdjust="spacing" textLength="63" x="1096.5" y="20.457">observable</text><line style="stroke:#181818;stroke-width:0.5;" x1="935.5" x2="1156.5" y1="42" y2="42"/><rect fill="none" height="6" style="stroke:#C82930;stroke-width:1.0;" width="6" x="942.5" y="53.3047"/><text fill="#000000" font-family="sans-serif" font-size="14" lengthAdjust="spacing" textLength="197" x="954.5" y="60.5332">callbackSubscribers: Function[]</text><line style="stroke:#181818;stroke-width:0.5;" x1="935.5" x2="1156.5" y1="67.6094" y2="67.6094"/></g><!--class ClickEventHandler--><g id="elem_ClickEventHandler"><rect codeLine="33" fill="#F1F1F1" height="48" id="ClickEventHandler" rx="2.5" ry="2.5" style="stroke:#181818;stroke-width:0.5;" width="147" x="1104.5" y="163"/><ellipse cx="1119.5" cy="179" fill="#ADD1B2" rx="11" ry="11" style="stroke:#181818;stroke-width:1.0;"/><path d="M1122.2656,174.875 Q1122.4219,174.6563 1122.6094,174.5469 Q1122.7969,174.4375 1123.0156,174.4375 Q1123.3906,174.4375 1123.625,174.7031 Q1123.8594,174.9531 1123.8594,175.5625 L1123.8594,177.0156 Q1123.8594,177.625 1123.625,177.8906 Q1123.3906,178.1563 1123.0156,178.1563 Q1122.6719,178.1563 1122.4688,177.9531 Q1122.2656,177.7656 1122.1563,177.25 Q1122.1094,176.8906 1121.9219,176.7031 Q1121.5938,176.3281 1120.9844,176.1094 Q1120.375,175.8906 1119.75,175.8906 Q1118.9844,175.8906 1118.3438,176.2188 Q1117.7188,176.5469 1117.2188,177.2969 Q1116.7344,178.0469 1116.7344,179.0781 L1116.7344,180.1719 Q1116.7344,181.4063 1117.625,182.2344 Q1118.5156,183.0469 1120.1094,183.0469 Q1121.0469,183.0469 1121.7031,182.7969 Q1122.0938,182.6406 1122.5156,182.2031 Q1122.7813,181.9375 1122.9219,181.8594 Q1123.0781,181.7813 1123.2813,181.7813 Q1123.6094,181.7813 1123.8594,182.0469 Q1124.125,182.2969 1124.125,182.6406 Q1124.125,182.9844 1123.7813,183.3906 Q1123.2813,183.9688 1122.4844,184.2969 Q1121.4063,184.75 1120.1094,184.75 Q1118.5938,184.75 1117.3906,184.125 Q1116.4063,183.625 1115.7188,182.5625 Q1115.0313,181.4844 1115.0313,180.2031 L1115.0313,179.0469 Q1115.0313,177.7188 1115.6406,176.5781 Q1116.2656,175.4219 1117.3594,174.8125 Q1118.4531,174.1875 1119.6875,174.1875 Q1120.4219,174.1875 1121.0625,174.3594 Q1121.7188,174.5156 1122.2656,174.875 Z " fill="#000000"/><text fill="#000000" font-family="sans-serif" font-size="14" lengthAdjust="spacing" textLength="115" x="1133.5" y="184.7285">ClickEventHandler</text><line style="stroke:#181818;stroke-width:0.5;" x1="1105.5" x2="1250.5" y1="195" y2="195"/><line style="stroke:#181818;stroke-width:0.5;" x1="1105.5" x2="1250.5" y1="203" y2="203"/></g><!--class MouseLeaveHandler--><g id="elem_MouseLeaveHandler"><rect codeLine="37" fill="#F1F1F1" height="48" id="MouseLeaveHandler" rx="2.5" ry="2.5" style="stroke:#181818;stroke-width:0.5;" width="162" x="907" y="163"/><ellipse cx="922" cy="179" fill="#ADD1B2" rx="11" ry="11" style="stroke:#181818;stroke-width:1.0;"/><path d="M924.7656,174.875 Q924.9219,174.6563 925.1094,174.5469 Q925.2969,174.4375 925.5156,174.4375 Q925.8906,174.4375 926.125,174.7031 Q926.3594,174.9531 926.3594,175.5625 L926.3594,177.0156 Q926.3594,177.625 926.125,177.8906 Q925.8906,178.1563 925.5156,178.1563 Q925.1719,178.1563 924.9688,177.9531 Q924.7656,177.7656 924.6563,177.25 Q924.6094,176.8906 924.4219,176.7031 Q924.0938,176.3281 923.4844,176.1094 Q922.875,175.8906 922.25,175.8906 Q921.4844,175.8906 920.8438,176.2188 Q920.2188,176.5469 919.7188,177.2969 Q919.2344,178.0469 919.2344,179.0781 L919.2344,180.1719 Q919.2344,181.4063 920.125,182.2344 Q921.0156,183.0469 922.6094,183.0469 Q923.5469,183.0469 924.2031,182.7969 Q924.5938,182.6406 925.0156,182.2031 Q925.2813,181.9375 925.4219,181.8594 Q925.5781,181.7813 925.7813,181.7813 Q926.1094,181.7813 926.3594,182.0469 Q926.625,182.2969 926.625,182.6406 Q926.625,182.9844 926.2813,183.3906 Q925.7813,183.9688 924.9844,184.2969 Q923.9063,184.75 922.6094,184.75 Q921.0938,184.75 919.8906,184.125 Q918.9063,183.625 918.2188,182.5625 Q917.5313,181.4844 917.5313,180.2031 L917.5313,179.0469 Q917.5313,177.7188 918.1406,176.5781 Q918.7656,175.4219 919.8594,174.8125 Q920.9531,174.1875 922.1875,174.1875 Q922.9219,174.1875 923.5625,174.3594 Q924.2188,174.5156 924.7656,174.875 Z " fill="#000000"/><text fill="#000000" font-family="sans-serif" font-size="14" lengthAdjust="spacing" textLength="130" x="936" y="184.7285">MouseLeaveHandler</text><line style="stroke:#181818;stroke-width:0.5;" x1="908" x2="1068" y1="195" y2="195"/><line style="stroke:#181818;stroke-width:0.5;" x1="908" x2="1068" y1="203" y2="203"/></g><!--class LoadEventHandler--><g id="elem_LoadEventHandler"><rect codeLine="41" fill="#F1F1F1" height="48" id="LoadEventHandler" rx="2.5" ry="2.5" style="stroke:#181818;stroke-width:0.5;" width="149" x="722.5" y="163"/><ellipse cx="737.5" cy="179" fill="#ADD1B2" rx="11" ry="11" style="stroke:#181818;stroke-width:1.0;"/><path d="M740.2656,174.875 Q740.4219,174.6563 740.6094,174.5469 Q740.7969,174.4375 741.0156,174.4375 Q741.3906,174.4375 741.625,174.7031 Q741.8594,174.9531 741.8594,175.5625 L741.8594,177.0156 Q741.8594,177.625 741.625,177.8906 Q741.3906,178.1563 741.0156,178.1563 Q740.6719,178.1563 740.4688,177.9531 Q740.2656,177.7656 740.1563,177.25 Q740.1094,176.8906 739.9219,176.7031 Q739.5938,176.3281 738.9844,176.1094 Q738.375,175.8906 737.75,175.8906 Q736.9844,175.8906 736.3438,176.2188 Q735.7188,176.5469 735.2188,177.2969 Q734.7344,178.0469 734.7344,179.0781 L734.7344,180.1719 Q734.7344,181.4063 735.625,182.2344 Q736.5156,183.0469 738.1094,183.0469 Q739.0469,183.0469 739.7031,182.7969 Q740.0938,182.6406 740.5156,182.2031 Q740.7813,181.9375 740.9219,181.8594 Q741.0781,181.7813 741.2813,181.7813 Q741.6094,181.7813 741.8594,182.0469 Q742.125,182.2969 742.125,182.6406 Q742.125,182.9844 741.7813,183.3906 Q741.2813,183.9688 740.4844,184.2969 Q739.4063,184.75 738.1094,184.75 Q736.5938,184.75 735.3906,184.125 Q734.4063,183.625 733.7188,182.5625 Q733.0313,181.4844 733.0313,180.2031 L733.0313,179.0469 Q733.0313,177.7188 733.6406,176.5781 Q734.2656,175.4219 735.3594,174.8125 Q736.4531,174.1875 737.6875,174.1875 Q738.4219,174.1875 739.0625,174.3594 Q739.7188,174.5156 740.2656,174.875 Z " fill="#000000"/><text fill="#000000" font-family="sans-serif" font-size="14" lengthAdjust="spacing" textLength="117" x="751.5" y="184.7285">LoadEventHandler</text><line style="stroke:#181818;stroke-width:0.5;" x1="723.5" x2="870.5" y1="195" y2="195"/><line style="stroke:#181818;stroke-width:0.5;" x1="723.5" x2="870.5" y1="203" y2="203"/></g><!--class X--><g id="elem_X"><rect codeLine="45" fill="#F1F1F1" height="48" id="X" rx="2.5" ry="2.5" style="stroke:#181818;stroke-width:0.5;" width="44" x="1287" y="163"/><ellipse cx="1302" cy="179" fill="#ADD1B2" rx="11" ry="11" style="stroke:#181818;stroke-width:1.0;"/><path d="M1304.7656,174.875 Q1304.9219,174.6563 1305.1094,174.5469 Q1305.2969,174.4375 1305.5156,174.4375 Q1305.8906,174.4375 1306.125,174.7031 Q1306.3594,174.9531 1306.3594,175.5625 L1306.3594,177.0156 Q1306.3594,177.625 1306.125,177.8906 Q1305.8906,178.1563 1305.5156,178.1563 Q1305.1719,178.1563 1304.9688,177.9531 Q1304.7656,177.7656 1304.6563,177.25 Q1304.6094,176.8906 1304.4219,176.7031 Q1304.0938,176.3281 1303.4844,176.1094 Q1302.875,175.8906 1302.25,175.8906 Q1301.4844,175.8906 1300.8438,176.2188 Q1300.2188,176.5469 1299.7188,177.2969 Q1299.2344,178.0469 1299.2344,179.0781 L1299.2344,180.1719 Q1299.2344,181.4063 1300.125,182.2344 Q1301.0156,183.0469 1302.6094,183.0469 Q1303.5469,183.0469 1304.2031,182.7969 Q1304.5938,182.6406 1305.0156,182.2031 Q1305.2813,181.9375 1305.4219,181.8594 Q1305.5781,181.7813 1305.7813,181.7813 Q1306.1094,181.7813 1306.3594,182.0469 Q1306.625,182.2969 1306.625,182.6406 Q1306.625,182.9844 1306.2813,183.3906 Q1305.7813,183.9688 1304.9844,184.2969 Q1303.9063,184.75 1302.6094,184.75 Q1301.0938,184.75 1299.8906,184.125 Q1298.9063,183.625 1298.2188,182.5625 Q1297.5313,181.4844 1297.5313,180.2031 L1297.5313,179.0469 Q1297.5313,177.7188 1298.1406,176.5781 Q1298.7656,175.4219 1299.8594,174.8125 Q1300.9531,174.1875 1302.1875,174.1875 Q1302.9219,174.1875 1303.5625,174.3594 Q1304.2188,174.5156 1304.7656,174.875 Z " fill="#000000"/><text fill="#000000" font-family="sans-serif" font-size="14" lengthAdjust="spacing" textLength="12" x="1316" y="184.7285">...</text><line style="stroke:#181818;stroke-width:0.5;" x1="1288" x2="1330" y1="195" y2="195"/><line style="stroke:#181818;stroke-width:0.5;" x1="1288" x2="1330" y1="203" y2="203"/></g><!--class Element--><g id="elem_Element"><rect codeLine="51" fill="#ADD8E6" height="48" id="Element" rx="2.5" ry="2.5" style="stroke:#181818;stroke-width:0.5;" width="83" x="346.5" y="418"/><ellipse cx="361.5" cy="434" fill="#ADD1B2" rx="11" ry="11" style="stroke:#181818;stroke-width:1.0;"/><path d="M364.2656,429.875 Q364.4219,429.6563 364.6094,429.5469 Q364.7969,429.4375 365.0156,429.4375 Q365.3906,429.4375 365.625,429.7031 Q365.8594,429.9531 365.8594,430.5625 L365.8594,432.0156 Q365.8594,432.625 365.625,432.8906 Q365.3906,433.1563 365.0156,433.1563 Q364.6719,433.1563 364.4688,432.9531 Q364.2656,432.7656 364.1563,432.25 Q364.1094,431.8906 363.9219,431.7031 Q363.5938,431.3281 362.9844,431.1094 Q362.375,430.8906 361.75,430.8906 Q360.9844,430.8906 360.3438,431.2188 Q359.7188,431.5469 359.2188,432.2969 Q358.7344,433.0469 358.7344,434.0781 L358.7344,435.1719 Q358.7344,436.4063 359.625,437.2344 Q360.5156,438.0469 362.1094,438.0469 Q363.0469,438.0469 363.7031,437.7969 Q364.0938,437.6406 364.5156,437.2031 Q364.7813,436.9375 364.9219,436.8594 Q365.0781,436.7813 365.2813,436.7813 Q365.6094,436.7813 365.8594,437.0469 Q366.125,437.2969 366.125,437.6406 Q366.125,437.9844 365.7813,438.3906 Q365.2813,438.9688 364.4844,439.2969 Q363.4063,439.75 362.1094,439.75 Q360.5938,439.75 359.3906,439.125 Q358.4063,438.625 357.7188,437.5625 Q357.0313,436.4844 357.0313,435.2031 L357.0313,434.0469 Q357.0313,432.7188 357.6406,431.5781 Q358.2656,430.4219 359.3594,429.8125 Q360.4531,429.1875 361.6875,429.1875 Q362.4219,429.1875 363.0625,429.3594 Q363.7188,429.5156 364.2656,429.875 Z " fill="#000000"/><text fill="#000000" font-family="sans-serif" font-size="14" lengthAdjust="spacing" textLength="51" x="375.5" y="439.7285">Element</text><line style="stroke:#181818;stroke-width:0.5;" x1="347.5" x2="428.5" y1="450" y2="450"/><line style="stroke:#181818;stroke-width:0.5;" x1="347.5" x2="428.5" y1="458" y2="458"/></g><g id="elem_GMN29"><path d="M184.5,527 L184.5,586.0547 A0,0 0 0 0 184.5,586.0547 L591.5,586.0547 A0,0 0 0 0 591.5,586.0547 L591.5,537 L581.5,527 L392,527 L388,466.04 L384,527 L184.5,527 A0,0 0 0 0 184.5,527 " fill="#FEFFDD" style="stroke:#181818;stroke-width:0.5;"/><path d="M581.5,527 L581.5,537 L591.5,537 L581.5,527 " fill="#FEFFDD" style="stroke:#181818;stroke-width:0.5;"/><text fill="#000000" font-family="sans-serif" font-size="13" lengthAdjust="spacing" textLength="208" x="190.5" y="545.4951">Per donar d'alta la gesti&#243; d'un event:</text><text fill="#000000" font-family="sans-serif" font-size="13" lengthAdjust="spacing" textLength="386" x="190.5" y="561.8467">Opci&#243;A: element.addEventListener('eventName', callbackFunction);</text><text fill="#000000" font-family="sans-serif" font-size="13" lengthAdjust="spacing" textLength="297" x="190.5" y="578.1982">Opci&#243; B: element.onEventType = callbackFunction;</text></g><!--class Node--><g id="elem_Node"><rect codeLine="59" fill="#ADD8E6" height="48" id="Node" rx="2.5" ry="2.5" style="stroke:#181818;stroke-width:0.5;" width="65" x="355.5" y="303.5"/><ellipse cx="370.5" cy="319.5" fill="#ADD1B2" rx="11" ry="11" style="stroke:#181818;stroke-width:1.0;"/><path d="M373.2656,315.375 Q373.4219,315.1563 373.6094,315.0469 Q373.7969,314.9375 374.0156,314.9375 Q374.3906,314.9375 374.625,315.2031 Q374.8594,315.4531 374.8594,316.0625 L374.8594,317.5156 Q374.8594,318.125 374.625,318.3906 Q374.3906,318.6563 374.0156,318.6563 Q373.6719,318.6563 373.4688,318.4531 Q373.2656,318.2656 373.1563,317.75 Q373.1094,317.3906 372.9219,317.2031 Q372.5938,316.8281 371.9844,316.6094 Q371.375,316.3906 370.75,316.3906 Q369.9844,316.3906 369.3438,316.7188 Q368.7188,317.0469 368.2188,317.7969 Q367.7344,318.5469 367.7344,319.5781 L367.7344,320.6719 Q367.7344,321.9063 368.625,322.7344 Q369.5156,323.5469 371.1094,323.5469 Q372.0469,323.5469 372.7031,323.2969 Q373.0938,323.1406 373.5156,322.7031 Q373.7813,322.4375 373.9219,322.3594 Q374.0781,322.2813 374.2813,322.2813 Q374.6094,322.2813 374.8594,322.5469 Q375.125,322.7969 375.125,323.1406 Q375.125,323.4844 374.7813,323.8906 Q374.2813,324.4688 373.4844,324.7969 Q372.4063,325.25 371.1094,325.25 Q369.5938,325.25 368.3906,324.625 Q367.4063,324.125 366.7188,323.0625 Q366.0313,321.9844 366.0313,320.7031 L366.0313,319.5469 Q366.0313,318.2188 366.6406,317.0781 Q367.2656,315.9219 368.3594,315.3125 Q369.4531,314.6875 370.6875,314.6875 Q371.4219,314.6875 372.0625,314.8594 Q372.7188,315.0156 373.2656,315.375 Z " fill="#000000"/><text fill="#000000" font-family="sans-serif" font-size="14" lengthAdjust="spacing" textLength="33" x="384.5" y="325.2285">Node</text><line style="stroke:#181818;stroke-width:0.5;" x1="356.5" x2="419.5" y1="335.5" y2="335.5"/><line style="stroke:#181818;stroke-width:0.5;" x1="356.5" x2="419.5" y1="343.5" y2="343.5"/></g><!--link Event to EventTarget--><g id="link_Event_EventTarget"><path codeLine="5" d="M495.71,76.04 C460.7,99.28 418.5393,127.2523 383.4893,150.5123 " fill="none" id="Event-to-EventTarget" style="stroke:#181818;stroke-width:1.0;"/><polygon fill="#181818" points="378.49,153.83,388.2007,152.1864,382.6561,151.0653,383.7772,145.5206,378.49,153.83" style="stroke:#181818;stroke-width:1.0;"/><ellipse cx="456" cy="115.6758" fill="none" rx="3" ry="3" style="stroke:#038048;stroke-width:1.0;"/><text fill="#000000" font-family="sans-serif" font-size="13" lengthAdjust="spacing" textLength="33" x="463" y="120.4951">target</text></g><!--reverse link Event to UIEvent--><g id="link_Event_UIEvent"><path codeLine="8" d="M577.9377,90.7913 C597.0477,117.1413 613.05,139.2 630.14,162.75 " fill="none" id="Event-backto-UIEvent" style="stroke:#181818;stroke-width:1.0;"/><polygon fill="none" points="567.37,76.22,573.0806,94.3139,582.7948,87.2688,567.37,76.22" style="stroke:#181818;stroke-width:1.0;"/></g><!--reverse link UIEvent to MouseEvent--><g id="link_UIEvent_MouseEvent"><path codeLine="11" d="M687.8355,222.3916 C709.9155,240.2816 728.72,253.12 761,268 C816.81,293.73 885.76,309.46 932.93,318.04 " fill="none" id="UIEvent-backto-MouseEvent" style="stroke:#181818;stroke-width:1.0;"/><polygon fill="none" points="673.85,211.06,684.0583,227.0534,691.6127,217.7297,673.85,211.06" style="stroke:#181818;stroke-width:1.0;"/></g><!--reverse link UIEvent to KeyboardEvend--><g id="link_UIEvent_KeyboardEvend"><path codeLine="14" d="M663.118,227.8673 C673.458,253.4373 683.25,277.65 693.6,303.24 " fill="none" id="UIEvent-backto-KeyboardEvend" style="stroke:#181818;stroke-width:1.0;"/><polygon fill="none" points="656.37,211.18,657.5556,230.1166,668.6804,225.6179,656.37,211.18" style="stroke:#181818;stroke-width:1.0;"/></g><!--reverse link Event to ProgressEvent--><g id="link_Event_ProgressEvent"><path codeLine="17" d="M543.1111,94.1272 C542.0911,151.6872 540.3,253.05 539.41,303.35 " fill="none" id="Event-backto-ProgressEvent" style="stroke:#181818;stroke-width:1.0;"/><polygon fill="none" points="543.43,76.13,537.112,94.0209,549.1101,94.2335,543.43,76.13" style="stroke:#181818;stroke-width:1.0;"/></g><!--link ClickEventHandler to MouseEvent--><g id="link_ClickEventHandler_MouseEvent"><path codeLine="34" d="M1146.2,211.18 C1111.02,236.83 1059.5285,274.3555 1024.4385,299.9355 " fill="none" id="ClickEventHandler-to-MouseEvent" style="stroke:#181818;stroke-width:1.0;stroke-dasharray:7.0,7.0;"/><polygon fill="#181818" points="1019.59,303.47,1029.219,301.4006,1023.6304,300.5246,1024.5064,294.936,1019.59,303.47" style="stroke:#181818;stroke-width:1.0;"/><text fill="#000000" font-family="sans-serif" font-size="13" lengthAdjust="spacing" textLength="23" x="1089" y="264.4951">new</text></g><!--reverse link EventNameHandler to ClickEventHandler--><g id="link_EventNameHandler_ClickEventHandler"><path codeLine="35" d="M1088.2068,89.4023 C1112.7068,115.7523 1134.49,139.2 1156.39,162.75 " fill="none" id="EventNameHandler-backto-ClickEventHandler" style="stroke:#181818;stroke-width:1.0;"/><polygon fill="none" points="1075.95,76.22,1083.8127,93.4878,1092.6008,85.3167,1075.95,76.22" style="stroke:#181818;stroke-width:1.0;"/></g><!--link MouseLeaveHandler to MouseEvent--><g id="link_MouseLeaveHandler_MouseEvent"><path codeLine="38" d="M988,211.18 C988,236.75 988,271.65 988,297.24 " fill="none" id="MouseLeaveHandler-to-MouseEvent" style="stroke:#181818;stroke-width:1.0;stroke-dasharray:7.0,7.0;"/><polygon fill="#181818" points="988,303.24,992,294.24,988,298.24,984,294.24,988,303.24" style="stroke:#181818;stroke-width:1.0;"/><text fill="#000000" font-family="sans-serif" font-size="13" lengthAdjust="spacing" textLength="23" x="989" y="264.4951">new</text></g><!--reverse link EventNameHandler to MouseLeaveHandler--><g id="link_EventNameHandler_MouseLeaveHandler"><path codeLine="39" d="M1026.0352,92.8842 C1015.2752,119.2342 1007.12,139.2 997.5,162.75 " fill="none" id="EventNameHandler-backto-MouseLeaveHandler" style="stroke:#181818;stroke-width:1.0;"/><polygon fill="none" points="1032.84,76.22,1020.4805,90.6159,1031.5899,95.1524,1032.84,76.22" style="stroke:#181818;stroke-width:1.0;"/></g><!--link LoadEventHandler to ProgressEvent--><g id="link_LoadEventHandler_ProgressEvent"><path codeLine="42" d="M754.11,211.03 C706.39,236.64 635.0361,274.9415 587.2861,300.5815 " fill="none" id="LoadEventHandler-to-ProgressEvent" style="stroke:#181818;stroke-width:1.0;stroke-dasharray:7.0,7.0;"/><polygon fill="#181818" points="582,303.42,591.8215,302.6864,586.4051,301.0546,588.0369,295.6382,582,303.42" style="stroke:#181818;stroke-width:1.0;"/><text fill="#000000" font-family="sans-serif" font-size="13" lengthAdjust="spacing" textLength="23" x="677" y="264.4951">new</text></g><!--reverse link EventNameHandler to LoadEventHandler--><g id="link_EventNameHandler_LoadEventHandler"><path codeLine="43" d="M974.1752,84.9592 C927.8452,111.3892 878.87,139.31 837.48,162.91 " fill="none" id="EventNameHandler-backto-LoadEventHandler" style="stroke:#181818;stroke-width:1.0;"/><polygon fill="none" points="989.81,76.04,971.2021,79.7476,977.1483,90.1708,989.81,76.04" style="stroke:#181818;stroke-width:1.0;"/></g><!--reverse link EventNameHandler to X--><g id="link_EventNameHandler_X"><path codeLine="46" d="M1137.378,83.5054 C1181.708,103.6454 1221.83,124 1269,154 C1275,157.82 1281.16,162.38 1286.79,166.84 " fill="none" id="EventNameHandler-backto-X" style="stroke:#181818;stroke-width:1.0;"/><polygon fill="none" points="1120.99,76.06,1134.8962,88.9681,1139.8598,78.0427,1120.99,76.06" style="stroke:#181818;stroke-width:1.0;"/></g><!--reverse link Node to Element--><g id="link_Node_Element"><path codeLine="57" d="M388,369.54 C388,388.95 388,398.59 388,417.99 " fill="none" id="Node-backto-Element" style="stroke:#181818;stroke-width:1.0;"/><polygon fill="none" points="388,351.54,382,369.54,394,369.54,388,351.54" style="stroke:#181818;stroke-width:1.0;"/></g><!--reverse link EventTarget to Node--><g id="link_EventTarget_Node"><path codeLine="60" d="M350.4023,236.7232 C361.0423,262.1332 368.7,280.42 378.24,303.2 " fill="none" id="EventTarget-backto-Node" style="stroke:#181818;stroke-width:1.0;"/><polygon fill="none" points="343.45,220.12,344.8679,239.0406,355.9367,234.4057,343.45,220.12" style="stroke:#181818;stroke-width:1.0;"/></g><!--SRC=[bLJHRfim57ttLrnr3rcrmWVGBb8IiIqAJQAGIfscFLpWYh4Qkx9DfchR1_Lvdz0Vcp4GO6YJnWEWutFFzJq-W8as2bC3uOc4WUyCxFK6pDCZ1H0RLOWSCkAmtTsw9zKqzfCrTC-RDuL7L3aP2EfIzyeOTiftQqTfIsv-UDuPOYb7hU5MLfeQf5rfQ0EyPMxeAP6eiXhCnkJnKilVAvahqdgoW_52Hn_Eqbc1cPCqKQ4D2LAldGLRBCy6NK6Ad2UOFbnQPuGq18aqHfRiJ8MNPmsfBA4I29lmeyyEuVjrV3mi88nWjOYYvMArgHaIuhjbl3gizyVTuOgH0EjwYOA-OYPLVmRIBcLGDnjO7NRzFg38E2cuaOacTSA4qxmPo3jlDguIdQeY8QK3U5U9r1HIVFfiHsZTMF4YVN2IhHoR8E3xyy4nsG08-iQcswWjdyeDZpyYF7LyDa7-fyzKhkqJISn6_Vy4N9THClxPQABNzha7r73X-_u5_ANodh4-SvpAkjEhgCY_c2MlQ1WXO7jRb4c1zZv3RX0uGaxQ52-_B5A99Wu1spsc5be4DYzEq9y4TtQEuwoFR7VmbzUj0Ynx2IcQByB-3U3jfEIwZ-1MPkH6QwVfXdFuOBBX1-QSg0c_0G00]--></g></svg>