<?xml version="1.0" encoding="us-ascii" standalone="no"?><svg xmlns="http://www.w3.org/2000/svg" xmlns:xlink="http://www.w3.org/1999/xlink" contentStyleType="text/css" height="222px" preserveAspectRatio="none" style="width:427px;height:222px;background:#FFFFFF;" version="1.1" viewBox="0 0 427 222" width="427px" zoomAndPan="magnify"><defs/><g><!--class HTMLFormElement--><g id="elem_HTMLFormElement"><rect codeLine="1" fill="#F1F1F1" height="100.8281" id="HTMLFormElement" rx="2.5" ry="2.5" style="stroke:#181818;stroke-width:0.5;" width="413" x="7" y="115"/><ellipse cx="148.75" cy="131" fill="#ADD1B2" rx="11" ry="11" style="stroke:#181818;stroke-width:1.0;"/><path d="M151.5156,126.875 Q151.6719,126.6563 151.8594,126.5469 Q152.0469,126.4375 152.2656,126.4375 Q152.6406,126.4375 152.875,126.7031 Q153.1094,126.9531 153.1094,127.5625 L153.1094,129.0156 Q153.1094,129.625 152.875,129.8906 Q152.6406,130.1563 152.2656,130.1563 Q151.9219,130.1563 151.7188,129.9531 Q151.5156,129.7656 151.4063,129.25 Q151.3594,128.8906 151.1719,128.7031 Q150.8438,128.3281 150.2344,128.1094 Q149.625,127.8906 149,127.8906 Q148.2344,127.8906 147.5938,128.2188 Q146.9688,128.5469 146.4688,129.2969 Q145.9844,130.0469 145.9844,131.0781 L145.9844,132.1719 Q145.9844,133.4063 146.875,134.2344 Q147.7656,135.0469 149.3594,135.0469 Q150.2969,135.0469 150.9531,134.7969 Q151.3438,134.6406 151.7656,134.2031 Q152.0313,133.9375 152.1719,133.8594 Q152.3281,133.7813 152.5313,133.7813 Q152.8594,133.7813 153.1094,134.0469 Q153.375,134.2969 153.375,134.6406 Q153.375,134.9844 153.0313,135.3906 Q152.5313,135.9688 151.7344,136.2969 Q150.6563,136.75 149.3594,136.75 Q147.8438,136.75 146.6406,136.125 Q145.6563,135.625 144.9688,134.5625 Q144.2813,133.4844 144.2813,132.2031 L144.2813,131.0469 Q144.2813,129.7188 144.8906,128.5781 Q145.5156,127.4219 146.6094,126.8125 Q147.7031,126.1875 148.9375,126.1875 Q149.6719,126.1875 150.3125,126.3594 Q150.9688,126.5156 151.5156,126.875 Z " fill="#000000"/><text fill="#000000" font-family="sans-serif" font-size="14" lengthAdjust="spacing" textLength="121" x="169.25" y="136.7285">HTMLFormElement</text><line style="stroke:#181818;stroke-width:0.5;" x1="8" x2="419" y1="147" y2="147"/><ellipse cx="18" cy="161.3047" fill="none" rx="3" ry="3" style="stroke:#038048;stroke-width:1.0;"/><text fill="#000000" font-family="sans-serif" font-size="14" lengthAdjust="spacing" textLength="159" x="27" y="165.5332">method: String post o get</text><line style="stroke:#181818;stroke-width:0.5;" x1="8" x2="419" y1="172.6094" y2="172.6094"/><ellipse cx="18" cy="186.9141" fill="#84BE84" rx="3" ry="3" style="stroke:#038048;stroke-width:1.0;"/><text fill="#000000" font-family="sans-serif" font-size="14" lengthAdjust="spacing" textLength="387" x="27" y="191.1426">action: String URL (o ruta relativa) on est&#224; el servei a solicitar</text><ellipse cx="18" cy="204.5234" fill="#84BE84" rx="3" ry="3" style="stroke:#038048;stroke-width:1.0;"/><text fill="#000000" font-family="sans-serif" font-size="14" lengthAdjust="spacing" textLength="51" x="27" y="208.752">submit()</text></g><!--class HTMLElement--><g id="elem_HTMLElement"><rect fill="#F1F1F1" height="48" id="HTMLElement" rx="2.5" ry="2.5" style="stroke:#181818;stroke-width:0.5;" width="120" x="153.5" y="7"/><ellipse cx="168.5" cy="23" fill="#ADD1B2" rx="11" ry="11" style="stroke:#181818;stroke-width:1.0;"/><path d="M171.2656,18.875 Q171.4219,18.6563 171.6094,18.5469 Q171.7969,18.4375 172.0156,18.4375 Q172.3906,18.4375 172.625,18.7031 Q172.8594,18.9531 172.8594,19.5625 L172.8594,21.0156 Q172.8594,21.625 172.625,21.8906 Q172.3906,22.1563 172.0156,22.1563 Q171.6719,22.1563 171.4688,21.9531 Q171.2656,21.7656 171.1563,21.25 Q171.1094,20.8906 170.9219,20.7031 Q170.5938,20.3281 169.9844,20.1094 Q169.375,19.8906 168.75,19.8906 Q167.9844,19.8906 167.3438,20.2188 Q166.7188,20.5469 166.2188,21.2969 Q165.7344,22.0469 165.7344,23.0781 L165.7344,24.1719 Q165.7344,25.4063 166.625,26.2344 Q167.5156,27.0469 169.1094,27.0469 Q170.0469,27.0469 170.7031,26.7969 Q171.0938,26.6406 171.5156,26.2031 Q171.7813,25.9375 171.9219,25.8594 Q172.0781,25.7813 172.2813,25.7813 Q172.6094,25.7813 172.8594,26.0469 Q173.125,26.2969 173.125,26.6406 Q173.125,26.9844 172.7813,27.3906 Q172.2813,27.9688 171.4844,28.2969 Q170.4063,28.75 169.1094,28.75 Q167.5938,28.75 166.3906,28.125 Q165.4063,27.625 164.7188,26.5625 Q164.0313,25.4844 164.0313,24.2031 L164.0313,23.0469 Q164.0313,21.7188 164.6406,20.5781 Q165.2656,19.4219 166.3594,18.8125 Q167.4531,18.1875 168.6875,18.1875 Q169.4219,18.1875 170.0625,18.3594 Q170.7188,18.5156 171.2656,18.875 Z " fill="#000000"/><text fill="#000000" font-family="sans-serif" font-size="14" lengthAdjust="spacing" textLength="88" x="182.5" y="28.7285">HTMLElement</text><line style="stroke:#181818;stroke-width:0.5;" x1="154.5" x2="272.5" y1="39" y2="39"/><line style="stroke:#181818;stroke-width:0.5;" x1="154.5" x2="272.5" y1="47" y2="47"/></g><!--reverse link HTMLElement to HTMLFormElement--><g id="link_HTMLElement_HTMLFormElement"><path codeLine="7" d="M213.5,73.08 C213.5,89.54 213.5,94.3 213.5,114.8 " fill="none" id="HTMLElement-backto-HTMLFormElement" style="stroke:#181818;stroke-width:1.0;"/><polygon fill="none" points="213.5,55.08,207.5,73.08,219.5,73.08,213.5,55.08" style="stroke:#181818;stroke-width:1.0;"/></g><!--SRC=[NSwx3S9048JX_AgOq1Po0uWKH60I7WKiPcLMkhj5jsidG2_qGcE0P0YOUFJhwoAPORtVj2ijQHavSNPS0zwRWJeNpNFil4ZkSTYsg1HbS4BXI2uZrT0CDdy-m176PMG1mJHA9qvbAYNsivv-fOkQGz6pX-bWmp69LtMuXu_cArdSckQVzm80]--></g></svg>