<?xml version="1.0" encoding="us-ascii" standalone="no"?><svg xmlns="http://www.w3.org/2000/svg" xmlns:xlink="http://www.w3.org/1999/xlink" contentStyleType="text/css" height="266px" preserveAspectRatio="none" style="width:165px;height:266px;background:#FFFFFF;" version="1.1" viewBox="0 0 165 266" width="165px" zoomAndPan="magnify"><defs/><g><!--class HTMLInputElement--><g id="elem_HTMLInputElement"><rect codeLine="1" fill="#F1F1F1" height="83.2188" id="HTMLInputElement" rx="2.5" ry="2.5" style="stroke:#181818;stroke-width:0.5;" width="151" x="7" y="176"/><ellipse cx="22" cy="192" fill="#ADD1B2" rx="11" ry="11" style="stroke:#181818;stroke-width:1.0;"/><path d="M24.7656,187.875 Q24.9219,187.6563 25.1094,187.5469 Q25.2969,187.4375 25.5156,187.4375 Q25.8906,187.4375 26.125,187.7031 Q26.3594,187.9531 26.3594,188.5625 L26.3594,190.0156 Q26.3594,190.625 26.125,190.8906 Q25.8906,191.1563 25.5156,191.1563 Q25.1719,191.1563 24.9688,190.9531 Q24.7656,190.7656 24.6563,190.25 Q24.6094,189.8906 24.4219,189.7031 Q24.0938,189.3281 23.4844,189.1094 Q22.875,188.8906 22.25,188.8906 Q21.4844,188.8906 20.8438,189.2188 Q20.2188,189.5469 19.7188,190.2969 Q19.2344,191.0469 19.2344,192.0781 L19.2344,193.1719 Q19.2344,194.4063 20.125,195.2344 Q21.0156,196.0469 22.6094,196.0469 Q23.5469,196.0469 24.2031,195.7969 Q24.5938,195.6406 25.0156,195.2031 Q25.2813,194.9375 25.4219,194.8594 Q25.5781,194.7813 25.7813,194.7813 Q26.1094,194.7813 26.3594,195.0469 Q26.625,195.2969 26.625,195.6406 Q26.625,195.9844 26.2813,196.3906 Q25.7813,196.9688 24.9844,197.2969 Q23.9063,197.75 22.6094,197.75 Q21.0938,197.75 19.8906,197.125 Q18.9063,196.625 18.2188,195.5625 Q17.5313,194.4844 17.5313,193.2031 L17.5313,192.0469 Q17.5313,190.7188 18.1406,189.5781 Q18.7656,188.4219 19.8594,187.8125 Q20.9531,187.1875 22.1875,187.1875 Q22.9219,187.1875 23.5625,187.3594 Q24.2188,187.5156 24.7656,187.875 Z " fill="#000000"/><text fill="#000000" font-family="sans-serif" font-size="14" lengthAdjust="spacing" textLength="119" x="36" y="197.7285">HTMLInputElement</text><line style="stroke:#181818;stroke-width:0.5;" x1="8" x2="157" y1="208" y2="208"/><ellipse cx="18" cy="222.3047" fill="none" rx="3" ry="3" style="stroke:#038048;stroke-width:1.0;"/><text fill="#000000" font-family="sans-serif" font-size="14" lengthAdjust="spacing" textLength="34" x="27" y="226.5332">value</text><ellipse cx="18" cy="239.9141" fill="none" rx="3" ry="3" style="stroke:#038048;stroke-width:1.0;"/><text fill="#000000" font-family="sans-serif" font-size="14" lengthAdjust="spacing" textLength="112" x="27" y="244.1426">checked: boolean</text><line style="stroke:#181818;stroke-width:0.5;" x1="8" x2="157" y1="251.2188" y2="251.2188"/></g><!--class HTMLElement--><g id="elem_HTMLElement"><rect fill="#F1F1F1" height="48" id="HTMLElement" rx="2.5" ry="2.5" style="stroke:#181818;stroke-width:0.5;" width="120" x="22.5" y="7"/><ellipse cx="37.5" cy="23" fill="#ADD1B2" rx="11" ry="11" style="stroke:#181818;stroke-width:1.0;"/><path d="M40.2656,18.875 Q40.4219,18.6563 40.6094,18.5469 Q40.7969,18.4375 41.0156,18.4375 Q41.3906,18.4375 41.625,18.7031 Q41.8594,18.9531 41.8594,19.5625 L41.8594,21.0156 Q41.8594,21.625 41.625,21.8906 Q41.3906,22.1563 41.0156,22.1563 Q40.6719,22.1563 40.4688,21.9531 Q40.2656,21.7656 40.1563,21.25 Q40.1094,20.8906 39.9219,20.7031 Q39.5938,20.3281 38.9844,20.1094 Q38.375,19.8906 37.75,19.8906 Q36.9844,19.8906 36.3438,20.2188 Q35.7188,20.5469 35.2188,21.2969 Q34.7344,22.0469 34.7344,23.0781 L34.7344,24.1719 Q34.7344,25.4063 35.625,26.2344 Q36.5156,27.0469 38.1094,27.0469 Q39.0469,27.0469 39.7031,26.7969 Q40.0938,26.6406 40.5156,26.2031 Q40.7813,25.9375 40.9219,25.8594 Q41.0781,25.7813 41.2813,25.7813 Q41.6094,25.7813 41.8594,26.0469 Q42.125,26.2969 42.125,26.6406 Q42.125,26.9844 41.7813,27.3906 Q41.2813,27.9688 40.4844,28.2969 Q39.4063,28.75 38.1094,28.75 Q36.5938,28.75 35.3906,28.125 Q34.4063,27.625 33.7188,26.5625 Q33.0313,25.4844 33.0313,24.2031 L33.0313,23.0469 Q33.0313,21.7188 33.6406,20.5781 Q34.2656,19.4219 35.3594,18.8125 Q36.4531,18.1875 37.6875,18.1875 Q38.4219,18.1875 39.0625,18.3594 Q39.7188,18.5156 40.2656,18.875 Z " fill="#000000"/><text fill="#000000" font-family="sans-serif" font-size="14" lengthAdjust="spacing" textLength="88" x="51.5" y="28.7285">HTMLElement</text><line style="stroke:#181818;stroke-width:0.5;" x1="23.5" x2="141.5" y1="39" y2="39"/><line style="stroke:#181818;stroke-width:0.5;" x1="23.5" x2="141.5" y1="47" y2="47"/></g><!--reverse link HTMLElement to HTMLInputElement--><g id="link_HTMLElement_HTMLInputElement"><path codeLine="5" d="M82.5,73.37 C82.5,103.62 82.5,138.84 82.5,175.8 " fill="none" id="HTMLElement-backto-HTMLInputElement" style="stroke:#181818;stroke-width:1.0;"/><polygon fill="none" points="82.5,55.37,76.5,73.37,88.5,73.37,82.5,55.37" style="stroke:#181818;stroke-width:1.0;"/></g><!--SRC=[Iyv9B2vMy0ZnzV7CAoWjSSr9pKtDAr6evb800cs5iiISqbGeEpaZDJaxDSLA8Ia_FoSrCO-hbWka3wR5faPNLnV39000]--></g></svg>