<?xml version="1.0" encoding="us-ascii" standalone="no"?><svg xmlns="http://www.w3.org/2000/svg" xmlns:xlink="http://www.w3.org/1999/xlink" contentStyleType="text/css" height="293px" preserveAspectRatio="none" style="width:927px;height:293px;background:#FFFFFF;" version="1.1" viewBox="0 0 927 293" width="927px" zoomAndPan="magnify"><defs/><g><!--class XMLHttpRequest--><g id="elem_XMLHttpRequest"><rect codeLine="2" fill="#F1F1F1" height="171.2656" id="XMLHttpRequest" rx="2.5" ry="2.5" style="stroke:#181818;stroke-width:0.5;" width="518" x="110" y="7"/><ellipse cx="312.25" cy="23" fill="#ADD1B2" rx="11" ry="11" style="stroke:#181818;stroke-width:1.0;"/><path d="M315.0156,18.875 Q315.1719,18.6563 315.3594,18.5469 Q315.5469,18.4375 315.7656,18.4375 Q316.1406,18.4375 316.375,18.7031 Q316.6094,18.9531 316.6094,19.5625 L316.6094,21.0156 Q316.6094,21.625 316.375,21.8906 Q316.1406,22.1563 315.7656,22.1563 Q315.4219,22.1563 315.2188,21.9531 Q315.0156,21.7656 314.9063,21.25 Q314.8594,20.8906 314.6719,20.7031 Q314.3438,20.3281 313.7344,20.1094 Q313.125,19.8906 312.5,19.8906 Q311.7344,19.8906 311.0938,20.2188 Q310.4688,20.5469 309.9688,21.2969 Q309.4844,22.0469 309.4844,23.0781 L309.4844,24.1719 Q309.4844,25.4063 310.375,26.2344 Q311.2656,27.0469 312.8594,27.0469 Q313.7969,27.0469 314.4531,26.7969 Q314.8438,26.6406 315.2656,26.2031 Q315.5313,25.9375 315.6719,25.8594 Q315.8281,25.7813 316.0313,25.7813 Q316.3594,25.7813 316.6094,26.0469 Q316.875,26.2969 316.875,26.6406 Q316.875,26.9844 316.5313,27.3906 Q316.0313,27.9688 315.2344,28.2969 Q314.1563,28.75 312.8594,28.75 Q311.3438,28.75 310.1406,28.125 Q309.1563,27.625 308.4688,26.5625 Q307.7813,25.4844 307.7813,24.2031 L307.7813,23.0469 Q307.7813,21.7188 308.3906,20.5781 Q309.0156,19.4219 310.1094,18.8125 Q311.2031,18.1875 312.4375,18.1875 Q313.1719,18.1875 313.8125,18.3594 Q314.4688,18.5156 315.0156,18.875 Z " fill="#000000"/><text fill="#000000" font-family="sans-serif" font-size="14" lengthAdjust="spacing" textLength="105" x="332.75" y="28.7285">XMLHttpRequest</text><line style="stroke:#181818;stroke-width:0.5;" x1="111" x2="627" y1="39" y2="39"/><ellipse cx="121" cy="53.3047" fill="none" rx="3" ry="3" style="stroke:#038048;stroke-width:1.0;"/><text fill="#000000" font-family="sans-serif" font-size="14" lengthAdjust="spacing" textLength="125" x="130" y="57.5332">readyState: int [0-4]</text><ellipse cx="121" cy="70.9141" fill="none" rx="3" ry="3" style="stroke:#038048;stroke-width:1.0;"/><text fill="#000000" font-family="sans-serif" font-size="14" lengthAdjust="spacing" textLength="136" x="130" y="75.1426">responseType: String</text><ellipse cx="121" cy="88.5234" fill="none" rx="3" ry="3" style="stroke:#038048;stroke-width:1.0;"/><text fill="#000000" font-family="sans-serif" font-size="14" lengthAdjust="spacing" textLength="123" x="130" y="92.752">status: int httpCode</text><ellipse cx="121" cy="106.1328" fill="none" rx="3" ry="3" style="stroke:#038048;stroke-width:1.0;"/><text fill="#000000" font-family="sans-serif" font-size="14" lengthAdjust="spacing" textLength="396" x="130" y="110.3613">response: ? contingut del body, adaptat segons responseType</text><line style="stroke:#181818;stroke-width:0.5;" x1="111" x2="627" y1="117.4375" y2="117.4375"/><ellipse cx="121" cy="131.7422" fill="#84BE84" rx="3" ry="3" style="stroke:#038048;stroke-width:1.0;"/><text fill="#000000" font-family="sans-serif" font-size="14" lengthAdjust="spacing" textLength="81" x="130" y="135.9707">constructor()</text><ellipse cx="121" cy="149.3516" fill="#84BE84" rx="3" ry="3" style="stroke:#038048;stroke-width:1.0;"/><text fill="#000000" font-family="sans-serif" font-size="14" lengthAdjust="spacing" textLength="492" x="130" y="153.5801">open(m&#233;todoHttp: String, URL[, as&#237;ncrono = true: boolean [, usuario [, clave]]])</text><ellipse cx="121" cy="166.9609" fill="#84BE84" rx="3" ry="3" style="stroke:#038048;stroke-width:1.0;"/><text fill="#000000" font-family="sans-serif" font-size="14" lengthAdjust="spacing" textLength="41" x="130" y="171.1895">send()</text></g><g id="elem_GMN3"><path d="M663.5,63 L663.5,88.5 L628,92.5 L663.5,96.5 L663.5,122.0547 A0,0 0 0 0 663.5,122.0547 L920.5,122.0547 A0,0 0 0 0 920.5,122.0547 L920.5,73 L910.5,63 L663.5,63 A0,0 0 0 0 663.5,63 " fill="#FEFFDD" style="stroke:#181818;stroke-width:0.5;"/><path d="M910.5,63 L910.5,73 L920.5,73 L910.5,63 " fill="#FEFFDD" style="stroke:#181818;stroke-width:0.5;"/><text fill="#000000" font-family="sans-serif" font-size="13" lengthAdjust="spacing" textLength="236" x="669.5" y="81.4951">request.addEventListener('load', handler);</text><text fill="#000000" font-family="sans-serif" font-size="13" lengthAdjust="spacing" textLength="7" x="669.5" y="97.8467">o</text><text fill="#000000" font-family="sans-serif" font-size="13" lengthAdjust="spacing" textLength="147" x="669.5" y="114.1982">request.onload = handler;</text></g><!--class OnLoad--><g id="elem_OnLoad"><rect codeLine="20" fill="#F1F1F1" height="48" id="OnLoad" rx="2.5" ry="2.5" style="stroke:#181818;stroke-width:0.5;" width="83" x="83.5" y="238"/><ellipse cx="98.5" cy="254" fill="#ADD1B2" rx="11" ry="11" style="stroke:#181818;stroke-width:1.0;"/><path d="M101.2656,249.875 Q101.4219,249.6563 101.6094,249.5469 Q101.7969,249.4375 102.0156,249.4375 Q102.3906,249.4375 102.625,249.7031 Q102.8594,249.9531 102.8594,250.5625 L102.8594,252.0156 Q102.8594,252.625 102.625,252.8906 Q102.3906,253.1563 102.0156,253.1563 Q101.6719,253.1563 101.4688,252.9531 Q101.2656,252.7656 101.1563,252.25 Q101.1094,251.8906 100.9219,251.7031 Q100.5938,251.3281 99.9844,251.1094 Q99.375,250.8906 98.75,250.8906 Q97.9844,250.8906 97.3438,251.2188 Q96.7188,251.5469 96.2188,252.2969 Q95.7344,253.0469 95.7344,254.0781 L95.7344,255.1719 Q95.7344,256.4063 96.625,257.2344 Q97.5156,258.0469 99.1094,258.0469 Q100.0469,258.0469 100.7031,257.7969 Q101.0938,257.6406 101.5156,257.2031 Q101.7813,256.9375 101.9219,256.8594 Q102.0781,256.7813 102.2813,256.7813 Q102.6094,256.7813 102.8594,257.0469 Q103.125,257.2969 103.125,257.6406 Q103.125,257.9844 102.7813,258.3906 Q102.2813,258.9688 101.4844,259.2969 Q100.4063,259.75 99.1094,259.75 Q97.5938,259.75 96.3906,259.125 Q95.4063,258.625 94.7188,257.5625 Q94.0313,256.4844 94.0313,255.2031 L94.0313,254.0469 Q94.0313,252.7188 94.6406,251.5781 Q95.2656,250.4219 96.3594,249.8125 Q97.4531,249.1875 98.6875,249.1875 Q99.4219,249.1875 100.0625,249.3594 Q100.7188,249.5156 101.2656,249.875 Z " fill="#000000"/><text fill="#000000" font-family="sans-serif" font-size="14" lengthAdjust="spacing" textLength="51" x="112.5" y="259.7285">OnLoad</text><line style="stroke:#181818;stroke-width:0.5;" x1="84.5" x2="165.5" y1="270" y2="270"/><line style="stroke:#181818;stroke-width:0.5;" x1="84.5" x2="165.5" y1="278" y2="278"/></g><!--class OnLoadEventHandler--><g id="elem_OnLoadEventHandler"><rect fill="#F1F1F1" height="48" id="OnLoadEventHandler" rx="2.5" ry="2.5" style="stroke:#181818;stroke-width:0.5;" width="168" x="285" y="238"/><ellipse cx="300" cy="254" fill="#ADD1B2" rx="11" ry="11" style="stroke:#181818;stroke-width:1.0;"/><path d="M302.7656,249.875 Q302.9219,249.6563 303.1094,249.5469 Q303.2969,249.4375 303.5156,249.4375 Q303.8906,249.4375 304.125,249.7031 Q304.3594,249.9531 304.3594,250.5625 L304.3594,252.0156 Q304.3594,252.625 304.125,252.8906 Q303.8906,253.1563 303.5156,253.1563 Q303.1719,253.1563 302.9688,252.9531 Q302.7656,252.7656 302.6563,252.25 Q302.6094,251.8906 302.4219,251.7031 Q302.0938,251.3281 301.4844,251.1094 Q300.875,250.8906 300.25,250.8906 Q299.4844,250.8906 298.8438,251.2188 Q298.2188,251.5469 297.7188,252.2969 Q297.2344,253.0469 297.2344,254.0781 L297.2344,255.1719 Q297.2344,256.4063 298.125,257.2344 Q299.0156,258.0469 300.6094,258.0469 Q301.5469,258.0469 302.2031,257.7969 Q302.5938,257.6406 303.0156,257.2031 Q303.2813,256.9375 303.4219,256.8594 Q303.5781,256.7813 303.7813,256.7813 Q304.1094,256.7813 304.3594,257.0469 Q304.625,257.2969 304.625,257.6406 Q304.625,257.9844 304.2813,258.3906 Q303.7813,258.9688 302.9844,259.2969 Q301.9063,259.75 300.6094,259.75 Q299.0938,259.75 297.8906,259.125 Q296.9063,258.625 296.2188,257.5625 Q295.5313,256.4844 295.5313,255.2031 L295.5313,254.0469 Q295.5313,252.7188 296.1406,251.5781 Q296.7656,250.4219 297.8594,249.8125 Q298.9531,249.1875 300.1875,249.1875 Q300.9219,249.1875 301.5625,249.3594 Q302.2188,249.5156 302.7656,249.875 Z " fill="#000000"/><text fill="#000000" font-family="sans-serif" font-size="14" lengthAdjust="spacing" textLength="136" x="314" y="259.7285">OnLoadEventHandler</text><line style="stroke:#181818;stroke-width:0.5;" x1="286" x2="452" y1="270" y2="270"/><line style="stroke:#181818;stroke-width:0.5;" x1="286" x2="452" y1="278" y2="278"/></g><!--class Event--><g id="elem_Event"><rect fill="#F1F1F1" height="48" id="Event" rx="2.5" ry="2.5" style="stroke:#181818;stroke-width:0.5;" width="68" x="7" y="68.5"/><ellipse cx="22" cy="84.5" fill="#ADD1B2" rx="11" ry="11" style="stroke:#181818;stroke-width:1.0;"/><path d="M24.7656,80.375 Q24.9219,80.1563 25.1094,80.0469 Q25.2969,79.9375 25.5156,79.9375 Q25.8906,79.9375 26.125,80.2031 Q26.3594,80.4531 26.3594,81.0625 L26.3594,82.5156 Q26.3594,83.125 26.125,83.3906 Q25.8906,83.6563 25.5156,83.6563 Q25.1719,83.6563 24.9688,83.4531 Q24.7656,83.2656 24.6563,82.75 Q24.6094,82.3906 24.4219,82.2031 Q24.0938,81.8281 23.4844,81.6094 Q22.875,81.3906 22.25,81.3906 Q21.4844,81.3906 20.8438,81.7188 Q20.2188,82.0469 19.7188,82.7969 Q19.2344,83.5469 19.2344,84.5781 L19.2344,85.6719 Q19.2344,86.9063 20.125,87.7344 Q21.0156,88.5469 22.6094,88.5469 Q23.5469,88.5469 24.2031,88.2969 Q24.5938,88.1406 25.0156,87.7031 Q25.2813,87.4375 25.4219,87.3594 Q25.5781,87.2813 25.7813,87.2813 Q26.1094,87.2813 26.3594,87.5469 Q26.625,87.7969 26.625,88.1406 Q26.625,88.4844 26.2813,88.8906 Q25.7813,89.4688 24.9844,89.7969 Q23.9063,90.25 22.6094,90.25 Q21.0938,90.25 19.8906,89.625 Q18.9063,89.125 18.2188,88.0625 Q17.5313,86.9844 17.5313,85.7031 L17.5313,84.5469 Q17.5313,83.2188 18.1406,82.0781 Q18.7656,80.9219 19.8594,80.3125 Q20.9531,79.6875 22.1875,79.6875 Q22.9219,79.6875 23.5625,79.8594 Q24.2188,80.0156 24.7656,80.375 Z " fill="#000000"/><text fill="#000000" font-family="sans-serif" font-size="14" lengthAdjust="spacing" textLength="36" x="36" y="90.2285">Event</text><line style="stroke:#181818;stroke-width:0.5;" x1="8" x2="74" y1="100.5" y2="100.5"/><line style="stroke:#181818;stroke-width:0.5;" x1="8" x2="74" y1="108.5" y2="108.5"/></g><!--link XMLHttpRequest to OnLoad--><g id="link_XMLHttpRequest_OnLoad"><path codeLine="17" d="M245.57,178.23 C213.54,200.22 186.5864,218.7239 163.6464,234.4739 " fill="none" id="XMLHttpRequest-to-OnLoad" style="stroke:#181818;stroke-width:1.0;stroke-dasharray:7.0,7.0;"/><polygon fill="#181818" points="158.7,237.87,168.3836,236.0735,162.822,235.0399,163.8555,229.4783,158.7,237.87" style="stroke:#181818;stroke-width:1.0;"/></g><!--link XMLHttpRequest to OnLoadEventHandler--><g id="link_XMLHttpRequest_OnLoadEventHandler"><path codeLine="18" d="M369,178.23 C369,200.14 369,215.96 369,231.69 " fill="none" id="XMLHttpRequest-to-OnLoadEventHandler" style="stroke:#181818;stroke-width:1.0;stroke-dasharray:7.0,7.0;"/><polygon fill="#181818" points="369,237.69,373,228.69,369,232.69,365,228.69,369,237.69" style="stroke:#181818;stroke-width:1.0;"/></g><!--reverse link Event to OnLoad--><g id="link_Event_OnLoad"><path codeLine="21" d="M60.75,132.8796 C76.8,164.8796 97.42,206.01 113.42,237.91 " fill="none" id="Event-backto-OnLoad" style="stroke:#181818;stroke-width:1.0;"/><polygon fill="none" points="52.68,116.79,55.3867,135.5696,66.1132,130.1896,52.68,116.79" style="stroke:#181818;stroke-width:1.0;"/></g><!--SRC=[TP7FIiD048Vl-nHpQufDyE2fzSz1X1uYGgiWb1ossQ4Dn9cuCoaKzO4y-1HzCITjMh3Wdi9-y_r-czsozYBm-fXFLPiPlhSe2XyER5r0H1-sS_MAOwX8ON6PNXKd9WsJuFEsCJhNMD6gHs96AmTbRR7t7F3C6iCTb4ngKgiGi8ObX-q8VF2DsI2uih4_9QwFC4qqjgLoJ8Rz7ZT8oTlkMpbmzoF70utWPPOlB5PsFrH69eORCDdwbymrUWAZhRG-LjnzbhNVO54Kns112jRovOWL8LQhjRfukANCX_2mGTAy4aN2c0ngzc4mWhMdK6CSJXoVXfawQEqzd3XBXYxLdLr-bjt24-Ks_J_PzquFISwL-pVidJs2wyyqFUxy0W00]--></g></svg>