<?xml version="1.0" encoding="us-ascii" standalone="no"?><svg xmlns="http://www.w3.org/2000/svg" xmlns:xlink="http://www.w3.org/1999/xlink" contentStyleType="text/css" height="535px" preserveAspectRatio="none" style="width:1017px;height:535px;background:#FFFFFF;" version="1.1" viewBox="0 0 1017 535" width="1017px" zoomAndPan="magnify"><defs/><g><!--class Global--><g id="elem_Global"><rect codeLine="1" fill="#F1F1F1" height="48" id="Global" rx="2.5" ry="2.5" style="stroke:#181818;stroke-width:0.5;" width="73" x="476" y="92"/><ellipse cx="491" cy="108" fill="#ADD1B2" rx="11" ry="11" style="stroke:#181818;stroke-width:1.0;"/><path d="M493.7656,103.875 Q493.9219,103.6563 494.1094,103.5469 Q494.2969,103.4375 494.5156,103.4375 Q494.8906,103.4375 495.125,103.7031 Q495.3594,103.9531 495.3594,104.5625 L495.3594,106.0156 Q495.3594,106.625 495.125,106.8906 Q494.8906,107.1563 494.5156,107.1563 Q494.1719,107.1563 493.9688,106.9531 Q493.7656,106.7656 493.6563,106.25 Q493.6094,105.8906 493.4219,105.7031 Q493.0938,105.3281 492.4844,105.1094 Q491.875,104.8906 491.25,104.8906 Q490.4844,104.8906 489.8438,105.2188 Q489.2188,105.5469 488.7188,106.2969 Q488.2344,107.0469 488.2344,108.0781 L488.2344,109.1719 Q488.2344,110.4063 489.125,111.2344 Q490.0156,112.0469 491.6094,112.0469 Q492.5469,112.0469 493.2031,111.7969 Q493.5938,111.6406 494.0156,111.2031 Q494.2813,110.9375 494.4219,110.8594 Q494.5781,110.7813 494.7813,110.7813 Q495.1094,110.7813 495.3594,111.0469 Q495.625,111.2969 495.625,111.6406 Q495.625,111.9844 495.2813,112.3906 Q494.7813,112.9688 493.9844,113.2969 Q492.9063,113.75 491.6094,113.75 Q490.0938,113.75 488.8906,113.125 Q487.9063,112.625 487.2188,111.5625 Q486.5313,110.4844 486.5313,109.2031 L486.5313,108.0469 Q486.5313,106.7188 487.1406,105.5781 Q487.7656,104.4219 488.8594,103.8125 Q489.9531,103.1875 491.1875,103.1875 Q491.9219,103.1875 492.5625,103.3594 Q493.2188,103.5156 493.7656,103.875 Z " fill="#000000"/><text fill="#000000" font-family="sans-serif" font-size="14" lengthAdjust="spacing" textLength="41" x="505" y="113.7285">Global</text><line style="stroke:#181818;stroke-width:0.5;" x1="477" x2="548" y1="124" y2="124"/><line style="stroke:#181818;stroke-width:0.5;" x1="477" x2="548" y1="132" y2="132"/></g><g id="elem_GMN3"><path d="M447,6 L447,32.3516 A0,0 0 0 0 447,32.3516 L508.5,32.3516 L512.5,91.81 L516.5,32.3516 L578,32.3516 A0,0 0 0 0 578,32.3516 L578,16 L568,6 L447,6 A0,0 0 0 0 447,6 " fill="#FEFFDD" style="stroke:#181818;stroke-width:0.5;"/><path d="M568,6 L568,16 L578,16 L568,6 " fill="#FEFFDD" style="stroke:#181818;stroke-width:0.5;"/><text fill="#000000" font-family="sans-serif" font-size="13" lengthAdjust="spacing" textLength="110" x="453" y="24.4951">representa el client</text></g><!--class Navigator--><g id="elem_Navigator"><rect codeLine="9" fill="#F1F1F1" height="48" id="Navigator" rx="2.5" ry="2.5" style="stroke:#181818;stroke-width:0.5;" width="92" x="205.5" y="217.5"/><ellipse cx="220.5" cy="233.5" fill="#ADD1B2" rx="11" ry="11" style="stroke:#181818;stroke-width:1.0;"/><path d="M223.2656,229.375 Q223.4219,229.1563 223.6094,229.0469 Q223.7969,228.9375 224.0156,228.9375 Q224.3906,228.9375 224.625,229.2031 Q224.8594,229.4531 224.8594,230.0625 L224.8594,231.5156 Q224.8594,232.125 224.625,232.3906 Q224.3906,232.6563 224.0156,232.6563 Q223.6719,232.6563 223.4688,232.4531 Q223.2656,232.2656 223.1563,231.75 Q223.1094,231.3906 222.9219,231.2031 Q222.5938,230.8281 221.9844,230.6094 Q221.375,230.3906 220.75,230.3906 Q219.9844,230.3906 219.3438,230.7188 Q218.7188,231.0469 218.2188,231.7969 Q217.7344,232.5469 217.7344,233.5781 L217.7344,234.6719 Q217.7344,235.9063 218.625,236.7344 Q219.5156,237.5469 221.1094,237.5469 Q222.0469,237.5469 222.7031,237.2969 Q223.0938,237.1406 223.5156,236.7031 Q223.7813,236.4375 223.9219,236.3594 Q224.0781,236.2813 224.2813,236.2813 Q224.6094,236.2813 224.8594,236.5469 Q225.125,236.7969 225.125,237.1406 Q225.125,237.4844 224.7813,237.8906 Q224.2813,238.4688 223.4844,238.7969 Q222.4063,239.25 221.1094,239.25 Q219.5938,239.25 218.3906,238.625 Q217.4063,238.125 216.7188,237.0625 Q216.0313,235.9844 216.0313,234.7031 L216.0313,233.5469 Q216.0313,232.2188 216.6406,231.0781 Q217.2656,229.9219 218.3594,229.3125 Q219.4531,228.6875 220.6875,228.6875 Q221.4219,228.6875 222.0625,228.8594 Q222.7188,229.0156 223.2656,229.375 Z " fill="#000000"/><text fill="#000000" font-family="sans-serif" font-size="14" lengthAdjust="spacing" textLength="60" x="234.5" y="239.2285">Navigator</text><line style="stroke:#181818;stroke-width:0.5;" x1="206.5" x2="296.5" y1="249.5" y2="249.5"/><line style="stroke:#181818;stroke-width:0.5;" x1="206.5" x2="296.5" y1="257.5" y2="257.5"/></g><!--class Screen--><g id="elem_Screen"><rect codeLine="15" fill="#F1F1F1" height="48" id="Screen" rx="2.5" ry="2.5" style="stroke:#181818;stroke-width:0.5;" width="77" x="390" y="217.5"/><ellipse cx="405" cy="233.5" fill="#ADD1B2" rx="11" ry="11" style="stroke:#181818;stroke-width:1.0;"/><path d="M407.7656,229.375 Q407.9219,229.1563 408.1094,229.0469 Q408.2969,228.9375 408.5156,228.9375 Q408.8906,228.9375 409.125,229.2031 Q409.3594,229.4531 409.3594,230.0625 L409.3594,231.5156 Q409.3594,232.125 409.125,232.3906 Q408.8906,232.6563 408.5156,232.6563 Q408.1719,232.6563 407.9688,232.4531 Q407.7656,232.2656 407.6563,231.75 Q407.6094,231.3906 407.4219,231.2031 Q407.0938,230.8281 406.4844,230.6094 Q405.875,230.3906 405.25,230.3906 Q404.4844,230.3906 403.8438,230.7188 Q403.2188,231.0469 402.7188,231.7969 Q402.2344,232.5469 402.2344,233.5781 L402.2344,234.6719 Q402.2344,235.9063 403.125,236.7344 Q404.0156,237.5469 405.6094,237.5469 Q406.5469,237.5469 407.2031,237.2969 Q407.5938,237.1406 408.0156,236.7031 Q408.2813,236.4375 408.4219,236.3594 Q408.5781,236.2813 408.7813,236.2813 Q409.1094,236.2813 409.3594,236.5469 Q409.625,236.7969 409.625,237.1406 Q409.625,237.4844 409.2813,237.8906 Q408.7813,238.4688 407.9844,238.7969 Q406.9063,239.25 405.6094,239.25 Q404.0938,239.25 402.8906,238.625 Q401.9063,238.125 401.2188,237.0625 Q400.5313,235.9844 400.5313,234.7031 L400.5313,233.5469 Q400.5313,232.2188 401.1406,231.0781 Q401.7656,229.9219 402.8594,229.3125 Q403.9531,228.6875 405.1875,228.6875 Q405.9219,228.6875 406.5625,228.8594 Q407.2188,229.0156 407.7656,229.375 Z " fill="#000000"/><text fill="#000000" font-family="sans-serif" font-size="14" lengthAdjust="spacing" textLength="45" x="419" y="239.2285">Screen</text><line style="stroke:#181818;stroke-width:0.5;" x1="391" x2="466" y1="249.5" y2="249.5"/><line style="stroke:#181818;stroke-width:0.5;" x1="391" x2="466" y1="257.5" y2="257.5"/></g><!--class Window--><g id="elem_Window"><rect codeLine="21" fill="#F1F1F1" height="83.2188" id="Window" rx="2.5" ry="2.5" style="stroke:#181818;stroke-width:0.5;" width="85" x="652" y="200"/><ellipse cx="668.8" cy="216" fill="#ADD1B2" rx="11" ry="11" style="stroke:#181818;stroke-width:1.0;"/><path d="M671.5656,211.875 Q671.7219,211.6563 671.9094,211.5469 Q672.0969,211.4375 672.3156,211.4375 Q672.6906,211.4375 672.925,211.7031 Q673.1594,211.9531 673.1594,212.5625 L673.1594,214.0156 Q673.1594,214.625 672.925,214.8906 Q672.6906,215.1563 672.3156,215.1563 Q671.9719,215.1563 671.7688,214.9531 Q671.5656,214.7656 671.4563,214.25 Q671.4094,213.8906 671.2219,213.7031 Q670.8938,213.3281 670.2844,213.1094 Q669.675,212.8906 669.05,212.8906 Q668.2844,212.8906 667.6438,213.2188 Q667.0188,213.5469 666.5188,214.2969 Q666.0344,215.0469 666.0344,216.0781 L666.0344,217.1719 Q666.0344,218.4063 666.925,219.2344 Q667.8156,220.0469 669.4094,220.0469 Q670.3469,220.0469 671.0031,219.7969 Q671.3938,219.6406 671.8156,219.2031 Q672.0813,218.9375 672.2219,218.8594 Q672.3781,218.7813 672.5813,218.7813 Q672.9094,218.7813 673.1594,219.0469 Q673.425,219.2969 673.425,219.6406 Q673.425,219.9844 673.0813,220.3906 Q672.5813,220.9688 671.7844,221.2969 Q670.7063,221.75 669.4094,221.75 Q667.8938,221.75 666.6906,221.125 Q665.7063,220.625 665.0188,219.5625 Q664.3313,218.4844 664.3313,217.2031 L664.3313,216.0469 Q664.3313,214.7188 664.9406,213.5781 Q665.5656,212.4219 666.6594,211.8125 Q667.7531,211.1875 668.9875,211.1875 Q669.7219,211.1875 670.3625,211.3594 Q671.0188,211.5156 671.5656,211.875 Z " fill="#000000"/><text fill="#000000" font-family="sans-serif" font-size="14" lengthAdjust="spacing" textLength="49" x="683.2" y="221.7285">Window</text><line style="stroke:#181818;stroke-width:0.5;" x1="653" x2="736" y1="232" y2="232"/><ellipse cx="663" cy="246.3047" fill="none" rx="3" ry="3" style="stroke:#038048;stroke-width:1.0;"/><text fill="#000000" font-family="sans-serif" font-size="14" lengthAdjust="spacing" textLength="59" x="672" y="250.5332">navigator</text><ellipse cx="663" cy="263.9141" fill="none" rx="3" ry="3" style="stroke:#038048;stroke-width:1.0;"/><text fill="#000000" font-family="sans-serif" font-size="14" lengthAdjust="spacing" textLength="43" x="672" y="268.1426">screen</text><line style="stroke:#181818;stroke-width:0.5;" x1="653" x2="736" y1="275.2188" y2="275.2188"/></g><g id="elem_GMN12"><path d="M6,94.5 L6,137.2031 A0,0 0 0 0 6,137.2031 L129.27,137.2031 L224.75,217.23 L137.27,137.2031 L213,137.2031 A0,0 0 0 0 213,137.2031 L213,104.5 L203,94.5 L6,94.5 A0,0 0 0 0 6,94.5 " fill="#FEFFDD" style="stroke:#181818;stroke-width:0.5;"/><path d="M203,94.5 L203,104.5 L213,104.5 L203,94.5 " fill="#FEFFDD" style="stroke:#181818;stroke-width:0.5;"/><text fill="#000000" font-family="sans-serif" font-size="13" lengthAdjust="spacing" textLength="186" x="12" y="112.9951">amb el que navega / fa peticions</text><text fill="#000000" font-family="sans-serif" font-size="13" lengthAdjust="spacing" textLength="158" x="12" y="129.3467">representant del user-agent</text></g><g id="elem_GMN15"><path d="M248.5,94.5 L248.5,137.2031 A0,0 0 0 0 248.5,137.2031 L354.56,137.2031 L412.68,217.23 L362.56,137.2031 L440.5,137.2031 A0,0 0 0 0 440.5,137.2031 L440.5,104.5 L430.5,94.5 L248.5,94.5 A0,0 0 0 0 248.5,94.5 " fill="#FEFFDD" style="stroke:#181818;stroke-width:0.5;"/><path d="M430.5,94.5 L430.5,104.5 L440.5,104.5 L430.5,94.5 " fill="#FEFFDD" style="stroke:#181818;stroke-width:0.5;"/><text fill="#000000" font-family="sans-serif" font-size="13" lengthAdjust="spacing" textLength="151" x="254.5" y="112.9951">el que gestiona la pantalla</text><text fill="#000000" font-family="sans-serif" font-size="13" lengthAdjust="spacing" textLength="171" x="254.5" y="129.3467">&#191;Renderitzaci&#243; i gesti&#243; CSS?</text></g><g id="elem_GMN18"><path d="M584.5,94.5 L584.5,137.2031 A0,0 0 0 0 584.5,137.2031 L690.5,137.2031 L694.5,199.75 L698.5,137.2031 L804.5,137.2031 A0,0 0 0 0 804.5,137.2031 L804.5,104.5 L794.5,94.5 L584.5,94.5 A0,0 0 0 0 584.5,94.5 " fill="#FEFFDD" style="stroke:#181818;stroke-width:0.5;"/><path d="M794.5,94.5 L794.5,104.5 L804.5,104.5 L794.5,94.5 " fill="#FEFFDD" style="stroke:#181818;stroke-width:0.5;"/><text fill="#000000" font-family="sans-serif" font-size="13" lengthAdjust="spacing" textLength="199" x="590.5" y="112.9951">&#201;S EL THIS GLOBAL DE LA APP</text><text fill="#000000" font-family="sans-serif" font-size="13" lengthAdjust="spacing" textLength="143" x="590.5" y="129.3467">representa cada pesta&#241;a</text></g><!--class EventTarget--><g id="elem_EventTarget"><rect codeLine="45" fill="#FFFFE0" height="48" id="EventTarget" rx="2.5" ry="2.5" style="stroke:#181818;stroke-width:0.5;" width="110" x="839.5" y="92"/><ellipse cx="854.5" cy="108" fill="#ADD1B2" rx="11" ry="11" style="stroke:#181818;stroke-width:1.0;"/><path d="M857.2656,103.875 Q857.4219,103.6563 857.6094,103.5469 Q857.7969,103.4375 858.0156,103.4375 Q858.3906,103.4375 858.625,103.7031 Q858.8594,103.9531 858.8594,104.5625 L858.8594,106.0156 Q858.8594,106.625 858.625,106.8906 Q858.3906,107.1563 858.0156,107.1563 Q857.6719,107.1563 857.4688,106.9531 Q857.2656,106.7656 857.1563,106.25 Q857.1094,105.8906 856.9219,105.7031 Q856.5938,105.3281 855.9844,105.1094 Q855.375,104.8906 854.75,104.8906 Q853.9844,104.8906 853.3438,105.2188 Q852.7188,105.5469 852.2188,106.2969 Q851.7344,107.0469 851.7344,108.0781 L851.7344,109.1719 Q851.7344,110.4063 852.625,111.2344 Q853.5156,112.0469 855.1094,112.0469 Q856.0469,112.0469 856.7031,111.7969 Q857.0938,111.6406 857.5156,111.2031 Q857.7813,110.9375 857.9219,110.8594 Q858.0781,110.7813 858.2813,110.7813 Q858.6094,110.7813 858.8594,111.0469 Q859.125,111.2969 859.125,111.6406 Q859.125,111.9844 858.7813,112.3906 Q858.2813,112.9688 857.4844,113.2969 Q856.4063,113.75 855.1094,113.75 Q853.5938,113.75 852.3906,113.125 Q851.4063,112.625 850.7188,111.5625 Q850.0313,110.4844 850.0313,109.2031 L850.0313,108.0469 Q850.0313,106.7188 850.6406,105.5781 Q851.2656,104.4219 852.3594,103.8125 Q853.4531,103.1875 854.6875,103.1875 Q855.4219,103.1875 856.0625,103.3594 Q856.7188,103.5156 857.2656,103.875 Z " fill="#000000"/><text fill="#000000" font-family="sans-serif" font-size="14" lengthAdjust="spacing" textLength="78" x="868.5" y="113.7285">EventTarget</text><line style="stroke:#181818;stroke-width:0.5;" x1="840.5" x2="948.5" y1="124" y2="124"/><line style="stroke:#181818;stroke-width:0.5;" x1="840.5" x2="948.5" y1="132" y2="132"/></g><!--class Location--><g id="elem_Location"><rect codeLine="34" fill="#F1F1F1" height="48" id="Location" rx="2.5" ry="2.5" style="stroke:#181818;stroke-width:0.5;" width="86" x="651.5" y="352"/><ellipse cx="666.5" cy="368" fill="#ADD1B2" rx="11" ry="11" style="stroke:#181818;stroke-width:1.0;"/><path d="M669.2656,363.875 Q669.4219,363.6563 669.6094,363.5469 Q669.7969,363.4375 670.0156,363.4375 Q670.3906,363.4375 670.625,363.7031 Q670.8594,363.9531 670.8594,364.5625 L670.8594,366.0156 Q670.8594,366.625 670.625,366.8906 Q670.3906,367.1563 670.0156,367.1563 Q669.6719,367.1563 669.4688,366.9531 Q669.2656,366.7656 669.1563,366.25 Q669.1094,365.8906 668.9219,365.7031 Q668.5938,365.3281 667.9844,365.1094 Q667.375,364.8906 666.75,364.8906 Q665.9844,364.8906 665.3438,365.2188 Q664.7188,365.5469 664.2188,366.2969 Q663.7344,367.0469 663.7344,368.0781 L663.7344,369.1719 Q663.7344,370.4063 664.625,371.2344 Q665.5156,372.0469 667.1094,372.0469 Q668.0469,372.0469 668.7031,371.7969 Q669.0938,371.6406 669.5156,371.2031 Q669.7813,370.9375 669.9219,370.8594 Q670.0781,370.7813 670.2813,370.7813 Q670.6094,370.7813 670.8594,371.0469 Q671.125,371.2969 671.125,371.6406 Q671.125,371.9844 670.7813,372.3906 Q670.2813,372.9688 669.4844,373.2969 Q668.4063,373.75 667.1094,373.75 Q665.5938,373.75 664.3906,373.125 Q663.4063,372.625 662.7188,371.5625 Q662.0313,370.4844 662.0313,369.2031 L662.0313,368.0469 Q662.0313,366.7188 662.6406,365.5781 Q663.2656,364.4219 664.3594,363.8125 Q665.4531,363.1875 666.6875,363.1875 Q667.4219,363.1875 668.0625,363.3594 Q668.7188,363.5156 669.2656,363.875 Z " fill="#000000"/><text fill="#000000" font-family="sans-serif" font-size="14" lengthAdjust="spacing" textLength="54" x="680.5" y="373.7285">Location</text><line style="stroke:#181818;stroke-width:0.5;" x1="652.5" x2="736.5" y1="384" y2="384"/><line style="stroke:#181818;stroke-width:0.5;" x1="652.5" x2="736.5" y1="392" y2="392"/></g><!--class History--><g id="elem_History"><rect codeLine="39" fill="#F1F1F1" height="48" id="History" rx="2.5" ry="2.5" style="stroke:#181818;stroke-width:0.5;" width="75" x="512" y="352"/><ellipse cx="527" cy="368" fill="#ADD1B2" rx="11" ry="11" style="stroke:#181818;stroke-width:1.0;"/><path d="M529.7656,363.875 Q529.9219,363.6563 530.1094,363.5469 Q530.2969,363.4375 530.5156,363.4375 Q530.8906,363.4375 531.125,363.7031 Q531.3594,363.9531 531.3594,364.5625 L531.3594,366.0156 Q531.3594,366.625 531.125,366.8906 Q530.8906,367.1563 530.5156,367.1563 Q530.1719,367.1563 529.9688,366.9531 Q529.7656,366.7656 529.6563,366.25 Q529.6094,365.8906 529.4219,365.7031 Q529.0938,365.3281 528.4844,365.1094 Q527.875,364.8906 527.25,364.8906 Q526.4844,364.8906 525.8438,365.2188 Q525.2188,365.5469 524.7188,366.2969 Q524.2344,367.0469 524.2344,368.0781 L524.2344,369.1719 Q524.2344,370.4063 525.125,371.2344 Q526.0156,372.0469 527.6094,372.0469 Q528.5469,372.0469 529.2031,371.7969 Q529.5938,371.6406 530.0156,371.2031 Q530.2813,370.9375 530.4219,370.8594 Q530.5781,370.7813 530.7813,370.7813 Q531.1094,370.7813 531.3594,371.0469 Q531.625,371.2969 531.625,371.6406 Q531.625,371.9844 531.2813,372.3906 Q530.7813,372.9688 529.9844,373.2969 Q528.9063,373.75 527.6094,373.75 Q526.0938,373.75 524.8906,373.125 Q523.9063,372.625 523.2188,371.5625 Q522.5313,370.4844 522.5313,369.2031 L522.5313,368.0469 Q522.5313,366.7188 523.1406,365.5781 Q523.7656,364.4219 524.8594,363.8125 Q525.9531,363.1875 527.1875,363.1875 Q527.9219,363.1875 528.5625,363.3594 Q529.2188,363.5156 529.7656,363.875 Z " fill="#000000"/><text fill="#000000" font-family="sans-serif" font-size="14" lengthAdjust="spacing" textLength="43" x="541" y="373.7285">History</text><line style="stroke:#181818;stroke-width:0.5;" x1="513" x2="586" y1="384" y2="384"/><line style="stroke:#181818;stroke-width:0.5;" x1="513" x2="586" y1="392" y2="392"/></g><!--class Document--><g id="elem_Document"><rect codeLine="47" fill="#ADD8E6" height="65.6094" id="Document" rx="2.5" ry="2.5" style="stroke:#181818;stroke-width:0.5;" width="96" x="846.5" y="343"/><ellipse cx="861.5" cy="359" fill="#ADD1B2" rx="11" ry="11" style="stroke:#181818;stroke-width:1.0;"/><path d="M864.2656,354.875 Q864.4219,354.6563 864.6094,354.5469 Q864.7969,354.4375 865.0156,354.4375 Q865.3906,354.4375 865.625,354.7031 Q865.8594,354.9531 865.8594,355.5625 L865.8594,357.0156 Q865.8594,357.625 865.625,357.8906 Q865.3906,358.1563 865.0156,358.1563 Q864.6719,358.1563 864.4688,357.9531 Q864.2656,357.7656 864.1563,357.25 Q864.1094,356.8906 863.9219,356.7031 Q863.5938,356.3281 862.9844,356.1094 Q862.375,355.8906 861.75,355.8906 Q860.9844,355.8906 860.3438,356.2188 Q859.7188,356.5469 859.2188,357.2969 Q858.7344,358.0469 858.7344,359.0781 L858.7344,360.1719 Q858.7344,361.4063 859.625,362.2344 Q860.5156,363.0469 862.1094,363.0469 Q863.0469,363.0469 863.7031,362.7969 Q864.0938,362.6406 864.5156,362.2031 Q864.7813,361.9375 864.9219,361.8594 Q865.0781,361.7813 865.2813,361.7813 Q865.6094,361.7813 865.8594,362.0469 Q866.125,362.2969 866.125,362.6406 Q866.125,362.9844 865.7813,363.3906 Q865.2813,363.9688 864.4844,364.2969 Q863.4063,364.75 862.1094,364.75 Q860.5938,364.75 859.3906,364.125 Q858.4063,363.625 857.7188,362.5625 Q857.0313,361.4844 857.0313,360.2031 L857.0313,359.0469 Q857.0313,357.7188 857.6406,356.5781 Q858.2656,355.4219 859.3594,354.8125 Q860.4531,354.1875 861.6875,354.1875 Q862.4219,354.1875 863.0625,354.3594 Q863.7188,354.5156 864.2656,354.875 Z " fill="#000000"/><text fill="#000000" font-family="sans-serif" font-size="14" lengthAdjust="spacing" textLength="64" x="875.5" y="364.7285">Document</text><line style="stroke:#181818;stroke-width:0.5;" x1="847.5" x2="941.5" y1="375" y2="375"/><ellipse cx="857.5" cy="389.3047" fill="none" rx="3" ry="3" style="stroke:#038048;stroke-width:1.0;"/><text fill="#000000" font-family="sans-serif" font-size="14" lengthAdjust="spacing" textLength="49" x="866.5" y="393.5332">location</text><line style="stroke:#181818;stroke-width:0.5;" x1="847.5" x2="941.5" y1="400.6094" y2="400.6094"/></g><g id="elem_GMN29"><path d="M632,485.5 L632,511.8516 A0,0 0 0 0 632,511.8516 L757,511.8516 A0,0 0 0 0 757,511.8516 L757,495.5 L747,485.5 L698.5,485.5 L694.5,400.23 L690.5,485.5 L632,485.5 A0,0 0 0 0 632,485.5 " fill="#FEFFDD" style="stroke:#181818;stroke-width:0.5;"/><path d="M747,485.5 L747,495.5 L757,495.5 L747,485.5 " fill="#FEFFDD" style="stroke:#181818;stroke-width:0.5;"/><text fill="#000000" font-family="sans-serif" font-size="13" lengthAdjust="spacing" textLength="104" x="638" y="503.9951">representa la URL</text></g><g id="elem_GMN32"><path d="M444.5,477 L444.5,519.7031 A0,0 0 0 0 444.5,519.7031 L596.5,519.7031 A0,0 0 0 0 596.5,519.7031 L596.5,487 L586.5,477 L529.49,477 L543.91,400.23 L521.49,477 L444.5,477 A0,0 0 0 0 444.5,477 " fill="#FEFFDD" style="stroke:#181818;stroke-width:0.5;"/><path d="M586.5,477 L586.5,487 L596.5,487 L586.5,477 " fill="#FEFFDD" style="stroke:#181818;stroke-width:0.5;"/><text fill="#000000" font-family="sans-serif" font-size="13" lengthAdjust="spacing" textLength="131" x="450.5" y="495.4951">info de la navegaci&#243; en</text><text fill="#000000" font-family="sans-serif" font-size="13" lengthAdjust="spacing" textLength="96" x="450.5" y="511.8467">aquesta pesta&#241;a</text></g><g id="elem_GMN35"><path d="M792.5,469 L792.5,528.0547 A0,0 0 0 0 792.5,528.0547 L1010.5,528.0547 A0,0 0 0 0 1010.5,528.0547 L1010.5,479 L1000.5,469 L903.83,469 L896.38,409.29 L895.83,469 L792.5,469 A0,0 0 0 0 792.5,469 " fill="#FEFFDD" style="stroke:#181818;stroke-width:0.5;"/><path d="M1000.5,469 L1000.5,479 L1010.5,479 L1000.5,469 " fill="#FEFFDD" style="stroke:#181818;stroke-width:0.5;"/><text fill="#000000" font-family="sans-serif" font-size="13" lengthAdjust="spacing" textLength="119" x="798.5" y="487.4951">info de la p&#224;gina que</text><text fill="#000000" font-family="sans-serif" font-size="13" lengthAdjust="spacing" textLength="89" x="798.5" y="503.8467">s'esta mostrant</text><text fill="#000000" font-family="sans-serif" font-size="13" lengthAdjust="spacing" textLength="197" x="798.5" y="520.1982">NODO RAIZ DEL ARBOL &lt;DOM&gt;</text></g><!--link Global to Navigator--><g id="link_Global_Navigator"><path codeLine="5" d="M465.0834,139.4333 C418.5134,161.4733 354.2437,191.8842 303.3637,215.9542 " fill="none" id="Global-Navigator" style="stroke:#181818;stroke-width:1.0;"/><polygon fill="#181818" points="475.93,134.3,468.7956,133.2511,465.0834,139.4333,472.2178,140.4822,475.93,134.3" style="stroke:#181818;stroke-width:1.0;"/><polygon fill="#181818" points="297.94,218.52,307.7861,218.2871,302.4598,216.3818,304.365,211.0555,297.94,218.52" style="stroke:#181818;stroke-width:1.0;"/></g><!--link Global to Screen--><g id="link_Global_Screen"><path codeLine="6" d="M489.9506,150.1519 C474.9306,172.2319 462.5943,190.3687 447.6043,212.4087 " fill="none" id="Global-Screen" style="stroke:#181818;stroke-width:1.0;"/><polygon fill="#181818" points="496.7,140.23,490.018,142.9412,489.9506,150.1519,496.6326,147.4408,496.7,140.23" style="stroke:#181818;stroke-width:1.0;"/><polygon fill="#181818" points="444.23,217.37,452.5989,212.1776,447.0419,213.2356,445.9839,207.6786,444.23,217.37" style="stroke:#181818;stroke-width:1.0;"/></g><!--link Global to Window--><g id="link_Global_Window"><path codeLine="7" d="M556.6604,146.967 C586.4204,167.157 614.7648,186.4015 646.7948,208.1315 " fill="none" id="Global-Window" style="stroke:#181818;stroke-width:1.0;"/><polygon fill="#181818" points="546.73,140.23,549.4495,146.9086,556.6604,146.967,553.9409,140.2884,546.73,140.23" style="stroke:#181818;stroke-width:1.0;"/><polygon fill="#181818" points="651.76,211.5,646.5579,203.1371,647.6223,208.6929,642.0665,209.7574,651.76,211.5" style="stroke:#181818;stroke-width:1.0;"/><text fill="#000000" font-family="sans-serif" font-size="13" lengthAdjust="spacing" textLength="8" x="636.0187" y="202.7124">+</text></g><!--reverse link EventTarget to Window--><g id="link_EventTarget_Window"><path codeLine="29" d="M841.5642,149.6866 C807.5042,170.7166 772.69,192.22 737.15,214.16 " fill="none" id="EventTarget-backto-Window" style="stroke:#181818;stroke-width:1.0;"/><polygon fill="none" points="856.88,140.23,838.412,144.5813,844.7164,154.7918,856.88,140.23" style="stroke:#181818;stroke-width:1.0;"/></g><!--link Window to Location--><g id="link_Window_Location"><path codeLine="30" d="M694.5,295.34 C694.5,317.84 694.5,326.96 694.5,345.84 " fill="none" id="Window-Location" style="stroke:#181818;stroke-width:1.0;"/><polygon fill="#181818" points="694.5,283.34,690.5,289.34,694.5,295.34,698.5,289.34,694.5,283.34" style="stroke:#181818;stroke-width:1.0;"/><polygon fill="#181818" points="694.5,351.84,698.5,342.84,694.5,346.84,690.5,342.84,694.5,351.84" style="stroke:#181818;stroke-width:1.0;"/></g><!--link Window to History--><g id="link_Window_History"><path codeLine="31" d="M642.9215,289.6349 C617.8615,312.5349 600.3393,328.5427 579.1193,347.9327 " fill="none" id="Window-History" style="stroke:#181818;stroke-width:1.0;"/><polygon fill="#181818" points="651.78,281.54,644.6525,282.6346,642.9215,289.6349,650.0491,288.5403,651.78,281.54" style="stroke:#181818;stroke-width:1.0;"/><polygon fill="#181818" points="574.69,351.98,584.0322,348.8619,578.3811,348.6072,578.6358,342.9561,574.69,351.98" style="stroke:#181818;stroke-width:1.0;"/></g><!--link Window to Document--><g id="link_Window_Document"><path codeLine="32" d="M747.4128,277.549 C779.4328,298.769 808.198,317.8264 841.408,339.8264 " fill="none" id="Window-Document" style="stroke:#181818;stroke-width:1.0;"/><polygon fill="#181818" points="737.41,270.92,740.2018,277.5688,747.4128,277.549,744.6211,270.9002,737.41,270.92" style="stroke:#181818;stroke-width:1.0;"/><polygon fill="#181818" points="846.41,343.14,841.116,334.8349,842.2417,340.3787,836.6979,341.5043,846.41,343.14" style="stroke:#181818;stroke-width:1.0;"/></g><!--reverse link EventTarget to Document--><g id="link_EventTarget_Document"><path codeLine="55" d="M894.5,158.35 C894.5,204.62 894.5,290.01 894.5,342.74 " fill="none" id="EventTarget-backto-Document" style="stroke:#181818;stroke-width:1.0;"/><polygon fill="none" points="894.5,140.35,888.5,158.35,900.5,158.35,894.5,140.35" style="stroke:#181818;stroke-width:1.0;"/></g><!--SRC=[VL9jJkCm4FtlKupWnqgWY0kWhj9j1KYcGGqhjFoRkaEmvDhTsEsAhmDmYxq2uW18z69C4eScuiE_xF7Cc_VUZ3BeFHmPDqCZh0i4mIr1bBGioPCD26H06SrNGNOELOfeqc4lIGOmmRKkCBYo5yrLIMHxePtz7RZGTkx-2Q7ghjlIjh70nQng-7T5O75D1S81N24iAMYbdVKTOZR0d5DNdie4Ynw_Y1z9l8D7u89yO2m4my0CWyQWU7sPSZcLEjoYqfjdq4qUttxb-SyFs8qIk1F0PxyY6wKqRz-qVkXOkddCOIpX_FWaXoEP3LC9ep785DApiwxV2kULO1zmyuJRlkCr_vvZML20m_iaQRsCH6gBfLDOIUi5ZxLdNZUzsCYfrQAoBAfvBwpfpbm8Rj7bn4xzdieF9aHew9LfU-LuCbLDCyBQJZO3sNnMzOcs2DULk2jrSHt-a37RVMbPny-XML7hlsa5F7p5PRdvNsWUUhK1ml-ecIoS3oLlW9XaemocwSabZqH2EXrc4Wv7sUdW6_zRDcy0]--></g></svg>