<?xml version="1.0" encoding="us-ascii" standalone="no"?><svg xmlns="http://www.w3.org/2000/svg" xmlns:xlink="http://www.w3.org/1999/xlink" contentStyleType="text/css" height="535px" preserveAspectRatio="none" style="width:983px;height:535px;background:#FFFFFF;" version="1.1" viewBox="0 0 983 535" width="983px" zoomAndPan="magnify"><defs/><g><!--class Global--><g id="elem_Global"><rect codeLine="1" fill="#F1F1F1" height="48" id="Global" rx="2.5" ry="2.5" style="stroke:#181818;stroke-width:0.5;" width="73" x="476" y="92"/><ellipse cx="491" cy="108" fill="#ADD1B2" rx="11" ry="11" style="stroke:#181818;stroke-width:1.0;"/><path d="M493.7656,103.875 Q493.9219,103.6563 494.1094,103.5469 Q494.2969,103.4375 494.5156,103.4375 Q494.8906,103.4375 495.125,103.7031 Q495.3594,103.9531 495.3594,104.5625 L495.3594,106.0156 Q495.3594,106.625 495.125,106.8906 Q494.8906,107.1563 494.5156,107.1563 Q494.1719,107.1563 493.9688,106.9531 Q493.7656,106.7656 493.6563,106.25 Q493.6094,105.8906 493.4219,105.7031 Q493.0938,105.3281 492.4844,105.1094 Q491.875,104.8906 491.25,104.8906 Q490.4844,104.8906 489.8438,105.2188 Q489.2188,105.5469 488.7188,106.2969 Q488.2344,107.0469 488.2344,108.0781 L488.2344,109.1719 Q488.2344,110.4063 489.125,111.2344 Q490.0156,112.0469 491.6094,112.0469 Q492.5469,112.0469 493.2031,111.7969 Q493.5938,111.6406 494.0156,111.2031 Q494.2813,110.9375 494.4219,110.8594 Q494.5781,110.7813 494.7813,110.7813 Q495.1094,110.7813 495.3594,111.0469 Q495.625,111.2969 495.625,111.6406 Q495.625,111.9844 495.2813,112.3906 Q494.7813,112.9688 493.9844,113.2969 Q492.9063,113.75 491.6094,113.75 Q490.0938,113.75 488.8906,113.125 Q487.9063,112.625 487.2188,111.5625 Q486.5313,110.4844 486.5313,109.2031 L486.5313,108.0469 Q486.5313,106.7188 487.1406,105.5781 Q487.7656,104.4219 488.8594,103.8125 Q489.9531,103.1875 491.1875,103.1875 Q491.9219,103.1875 492.5625,103.3594 Q493.2188,103.5156 493.7656,103.875 Z " fill="#000000"/><text fill="#000000" font-family="sans-serif" font-size="14" lengthAdjust="spacing" textLength="41" x="505" y="113.7285">Global</text><line style="stroke:#181818;stroke-width:0.5;" x1="477" x2="548" y1="124" y2="124"/><line style="stroke:#181818;stroke-width:0.5;" x1="477" x2="548" y1="132" y2="132"/></g><g id="elem_GMN3"><path d="M447,6 L447,32.3516 A0,0 0 0 0 447,32.3516 L508.5,32.3516 L512.5,91.81 L516.5,32.3516 L578,32.3516 A0,0 0 0 0 578,32.3516 L578,16 L568,6 L447,6 A0,0 0 0 0 447,6 " fill="#FEFFDD" style="stroke:#181818;stroke-width:0.5;"/><path d="M568,6 L568,16 L578,16 L568,6 " fill="#FEFFDD" style="stroke:#181818;stroke-width:0.5;"/><text fill="#000000" font-family="sans-serif" font-size="13" lengthAdjust="spacing" textLength="110" x="453" y="24.4951">representa el client</text></g><!--class Navigator--><g id="elem_Navigator"><rect codeLine="9" fill="#F1F1F1" height="48" id="Navigator" rx="2.5" ry="2.5" style="stroke:#181818;stroke-width:0.5;" width="92" x="205.5" y="217.5"/><ellipse cx="220.5" cy="233.5" fill="#ADD1B2" rx="11" ry="11" style="stroke:#181818;stroke-width:1.0;"/><path d="M223.2656,229.375 Q223.4219,229.1563 223.6094,229.0469 Q223.7969,228.9375 224.0156,228.9375 Q224.3906,228.9375 224.625,229.2031 Q224.8594,229.4531 224.8594,230.0625 L224.8594,231.5156 Q224.8594,232.125 224.625,232.3906 Q224.3906,232.6563 224.0156,232.6563 Q223.6719,232.6563 223.4688,232.4531 Q223.2656,232.2656 223.1563,231.75 Q223.1094,231.3906 222.9219,231.2031 Q222.5938,230.8281 221.9844,230.6094 Q221.375,230.3906 220.75,230.3906 Q219.9844,230.3906 219.3438,230.7188 Q218.7188,231.0469 218.2188,231.7969 Q217.7344,232.5469 217.7344,233.5781 L217.7344,234.6719 Q217.7344,235.9063 218.625,236.7344 Q219.5156,237.5469 221.1094,237.5469 Q222.0469,237.5469 222.7031,237.2969 Q223.0938,237.1406 223.5156,236.7031 Q223.7813,236.4375 223.9219,236.3594 Q224.0781,236.2813 224.2813,236.2813 Q224.6094,236.2813 224.8594,236.5469 Q225.125,236.7969 225.125,237.1406 Q225.125,237.4844 224.7813,237.8906 Q224.2813,238.4688 223.4844,238.7969 Q222.4063,239.25 221.1094,239.25 Q219.5938,239.25 218.3906,238.625 Q217.4063,238.125 216.7188,237.0625 Q216.0313,235.9844 216.0313,234.7031 L216.0313,233.5469 Q216.0313,232.2188 216.6406,231.0781 Q217.2656,229.9219 218.3594,229.3125 Q219.4531,228.6875 220.6875,228.6875 Q221.4219,228.6875 222.0625,228.8594 Q222.7188,229.0156 223.2656,229.375 Z " fill="#000000"/><text fill="#000000" font-family="sans-serif" font-size="14" lengthAdjust="spacing" textLength="60" x="234.5" y="239.2285">Navigator</text><line style="stroke:#181818;stroke-width:0.5;" x1="206.5" x2="296.5" y1="249.5" y2="249.5"/><line style="stroke:#181818;stroke-width:0.5;" x1="206.5" x2="296.5" y1="257.5" y2="257.5"/></g><!--class Screen--><g id="elem_Screen"><rect codeLine="15" fill="#F1F1F1" height="48" id="Screen" rx="2.5" ry="2.5" style="stroke:#181818;stroke-width:0.5;" width="77" x="474" y="217.5"/><ellipse cx="489" cy="233.5" fill="#ADD1B2" rx="11" ry="11" style="stroke:#181818;stroke-width:1.0;"/><path d="M491.7656,229.375 Q491.9219,229.1563 492.1094,229.0469 Q492.2969,228.9375 492.5156,228.9375 Q492.8906,228.9375 493.125,229.2031 Q493.3594,229.4531 493.3594,230.0625 L493.3594,231.5156 Q493.3594,232.125 493.125,232.3906 Q492.8906,232.6563 492.5156,232.6563 Q492.1719,232.6563 491.9688,232.4531 Q491.7656,232.2656 491.6563,231.75 Q491.6094,231.3906 491.4219,231.2031 Q491.0938,230.8281 490.4844,230.6094 Q489.875,230.3906 489.25,230.3906 Q488.4844,230.3906 487.8438,230.7188 Q487.2188,231.0469 486.7188,231.7969 Q486.2344,232.5469 486.2344,233.5781 L486.2344,234.6719 Q486.2344,235.9063 487.125,236.7344 Q488.0156,237.5469 489.6094,237.5469 Q490.5469,237.5469 491.2031,237.2969 Q491.5938,237.1406 492.0156,236.7031 Q492.2813,236.4375 492.4219,236.3594 Q492.5781,236.2813 492.7813,236.2813 Q493.1094,236.2813 493.3594,236.5469 Q493.625,236.7969 493.625,237.1406 Q493.625,237.4844 493.2813,237.8906 Q492.7813,238.4688 491.9844,238.7969 Q490.9063,239.25 489.6094,239.25 Q488.0938,239.25 486.8906,238.625 Q485.9063,238.125 485.2188,237.0625 Q484.5313,235.9844 484.5313,234.7031 L484.5313,233.5469 Q484.5313,232.2188 485.1406,231.0781 Q485.7656,229.9219 486.8594,229.3125 Q487.9531,228.6875 489.1875,228.6875 Q489.9219,228.6875 490.5625,228.8594 Q491.2188,229.0156 491.7656,229.375 Z " fill="#000000"/><text fill="#000000" font-family="sans-serif" font-size="14" lengthAdjust="spacing" textLength="45" x="503" y="239.2285">Screen</text><line style="stroke:#181818;stroke-width:0.5;" x1="475" x2="550" y1="249.5" y2="249.5"/><line style="stroke:#181818;stroke-width:0.5;" x1="475" x2="550" y1="257.5" y2="257.5"/></g><!--class Window--><g id="elem_Window"><rect codeLine="22" fill="#F1F1F1" height="83.2188" id="Window" rx="2.5" ry="2.5" style="stroke:#181818;stroke-width:0.5;" width="85" x="605" y="200"/><ellipse cx="621.8" cy="216" fill="#ADD1B2" rx="11" ry="11" style="stroke:#181818;stroke-width:1.0;"/><path d="M624.5656,211.875 Q624.7219,211.6563 624.9094,211.5469 Q625.0969,211.4375 625.3156,211.4375 Q625.6906,211.4375 625.925,211.7031 Q626.1594,211.9531 626.1594,212.5625 L626.1594,214.0156 Q626.1594,214.625 625.925,214.8906 Q625.6906,215.1563 625.3156,215.1563 Q624.9719,215.1563 624.7688,214.9531 Q624.5656,214.7656 624.4563,214.25 Q624.4094,213.8906 624.2219,213.7031 Q623.8938,213.3281 623.2844,213.1094 Q622.675,212.8906 622.05,212.8906 Q621.2844,212.8906 620.6438,213.2188 Q620.0188,213.5469 619.5188,214.2969 Q619.0344,215.0469 619.0344,216.0781 L619.0344,217.1719 Q619.0344,218.4063 619.925,219.2344 Q620.8156,220.0469 622.4094,220.0469 Q623.3469,220.0469 624.0031,219.7969 Q624.3938,219.6406 624.8156,219.2031 Q625.0813,218.9375 625.2219,218.8594 Q625.3781,218.7813 625.5813,218.7813 Q625.9094,218.7813 626.1594,219.0469 Q626.425,219.2969 626.425,219.6406 Q626.425,219.9844 626.0813,220.3906 Q625.5813,220.9688 624.7844,221.2969 Q623.7063,221.75 622.4094,221.75 Q620.8938,221.75 619.6906,221.125 Q618.7063,220.625 618.0188,219.5625 Q617.3313,218.4844 617.3313,217.2031 L617.3313,216.0469 Q617.3313,214.7188 617.9406,213.5781 Q618.5656,212.4219 619.6594,211.8125 Q620.7531,211.1875 621.9875,211.1875 Q622.7219,211.1875 623.3625,211.3594 Q624.0188,211.5156 624.5656,211.875 Z " fill="#000000"/><text fill="#000000" font-family="sans-serif" font-size="14" lengthAdjust="spacing" textLength="49" x="636.2" y="221.7285">Window</text><line style="stroke:#181818;stroke-width:0.5;" x1="606" x2="689" y1="232" y2="232"/><ellipse cx="616" cy="246.3047" fill="none" rx="3" ry="3" style="stroke:#038048;stroke-width:1.0;"/><text fill="#000000" font-family="sans-serif" font-size="14" lengthAdjust="spacing" textLength="59" x="625" y="250.5332">navigator</text><ellipse cx="616" cy="263.9141" fill="none" rx="3" ry="3" style="stroke:#038048;stroke-width:1.0;"/><text fill="#000000" font-family="sans-serif" font-size="14" lengthAdjust="spacing" textLength="43" x="625" y="268.1426">screen</text><line style="stroke:#181818;stroke-width:0.5;" x1="606" x2="689" y1="275.2188" y2="275.2188"/></g><g id="elem_GMN12"><path d="M6,94.5 L6,137.2031 A0,0 0 0 0 6,137.2031 L129.27,137.2031 L224.75,217.23 L137.27,137.2031 L213,137.2031 A0,0 0 0 0 213,137.2031 L213,104.5 L203,94.5 L6,94.5 A0,0 0 0 0 6,94.5 " fill="#FEFFDD" style="stroke:#181818;stroke-width:0.5;"/><path d="M203,94.5 L203,104.5 L213,104.5 L203,94.5 " fill="#FEFFDD" style="stroke:#181818;stroke-width:0.5;"/><text fill="#000000" font-family="sans-serif" font-size="13" lengthAdjust="spacing" textLength="186" x="12" y="112.9951">amb el que navega / fa peticions</text><text fill="#000000" font-family="sans-serif" font-size="13" lengthAdjust="spacing" textLength="158" x="12" y="129.3467">representant del user-agent</text></g><g id="elem_GMN15"><path d="M248.5,94.5 L248.5,137.2031 A0,0 0 0 0 248.5,137.2031 L368.62,137.2031 L481.14,217.45 L376.62,137.2031 L440.5,137.2031 A0,0 0 0 0 440.5,137.2031 L440.5,104.5 L430.5,94.5 L248.5,94.5 A0,0 0 0 0 248.5,94.5 " fill="#FEFFDD" style="stroke:#181818;stroke-width:0.5;"/><path d="M430.5,94.5 L430.5,104.5 L440.5,104.5 L430.5,94.5 " fill="#FEFFDD" style="stroke:#181818;stroke-width:0.5;"/><text fill="#000000" font-family="sans-serif" font-size="13" lengthAdjust="spacing" textLength="151" x="254.5" y="112.9951">el que gestiona la pantalla</text><text fill="#000000" font-family="sans-serif" font-size="13" lengthAdjust="spacing" textLength="171" x="254.5" y="129.3467">&#191;Renderitzaci&#243; i gesti&#243; CSS?</text></g><!--class EventTarget--><g id="elem_EventTarget"><rect codeLine="44" fill="#FFFFE0" height="48" id="EventTarget" rx="2.5" ry="2.5" style="stroke:#181818;stroke-width:0.5;" width="110" x="783.5" y="92"/><ellipse cx="798.5" cy="108" fill="#ADD1B2" rx="11" ry="11" style="stroke:#181818;stroke-width:1.0;"/><path d="M801.2656,103.875 Q801.4219,103.6563 801.6094,103.5469 Q801.7969,103.4375 802.0156,103.4375 Q802.3906,103.4375 802.625,103.7031 Q802.8594,103.9531 802.8594,104.5625 L802.8594,106.0156 Q802.8594,106.625 802.625,106.8906 Q802.3906,107.1563 802.0156,107.1563 Q801.6719,107.1563 801.4688,106.9531 Q801.2656,106.7656 801.1563,106.25 Q801.1094,105.8906 800.9219,105.7031 Q800.5938,105.3281 799.9844,105.1094 Q799.375,104.8906 798.75,104.8906 Q797.9844,104.8906 797.3438,105.2188 Q796.7188,105.5469 796.2188,106.2969 Q795.7344,107.0469 795.7344,108.0781 L795.7344,109.1719 Q795.7344,110.4063 796.625,111.2344 Q797.5156,112.0469 799.1094,112.0469 Q800.0469,112.0469 800.7031,111.7969 Q801.0938,111.6406 801.5156,111.2031 Q801.7813,110.9375 801.9219,110.8594 Q802.0781,110.7813 802.2813,110.7813 Q802.6094,110.7813 802.8594,111.0469 Q803.125,111.2969 803.125,111.6406 Q803.125,111.9844 802.7813,112.3906 Q802.2813,112.9688 801.4844,113.2969 Q800.4063,113.75 799.1094,113.75 Q797.5938,113.75 796.3906,113.125 Q795.4063,112.625 794.7188,111.5625 Q794.0313,110.4844 794.0313,109.2031 L794.0313,108.0469 Q794.0313,106.7188 794.6406,105.5781 Q795.2656,104.4219 796.3594,103.8125 Q797.4531,103.1875 798.6875,103.1875 Q799.4219,103.1875 800.0625,103.3594 Q800.7188,103.5156 801.2656,103.875 Z " fill="#000000"/><text fill="#000000" font-family="sans-serif" font-size="14" lengthAdjust="spacing" textLength="78" x="812.5" y="113.7285">EventTarget</text><line style="stroke:#181818;stroke-width:0.5;" x1="784.5" x2="892.5" y1="124" y2="124"/><line style="stroke:#181818;stroke-width:0.5;" x1="784.5" x2="892.5" y1="132" y2="132"/></g><g id="elem_GMN20"><path d="M584.5,103 L584.5,129.3516 A0,0 0 0 0 584.5,129.3516 L660.61,129.3516 L653.74,199.94 L668.61,129.3516 L748.5,129.3516 A0,0 0 0 0 748.5,129.3516 L748.5,113 L738.5,103 L584.5,103 A0,0 0 0 0 584.5,103 " fill="#FEFFDD" style="stroke:#181818;stroke-width:0.5;"/><path d="M738.5,103 L738.5,113 L748.5,113 L738.5,103 " fill="#FEFFDD" style="stroke:#181818;stroke-width:0.5;"/><text fill="#000000" font-family="sans-serif" font-size="13" lengthAdjust="spacing" textLength="143" x="590.5" y="121.4951">representa cada pesta&#241;a</text></g><!--class Location--><g id="elem_Location"><rect codeLine="33" fill="#F1F1F1" height="48" id="Location" rx="2.5" ry="2.5" style="stroke:#181818;stroke-width:0.5;" width="86" x="459.5" y="352"/><ellipse cx="474.5" cy="368" fill="#ADD1B2" rx="11" ry="11" style="stroke:#181818;stroke-width:1.0;"/><path d="M477.2656,363.875 Q477.4219,363.6563 477.6094,363.5469 Q477.7969,363.4375 478.0156,363.4375 Q478.3906,363.4375 478.625,363.7031 Q478.8594,363.9531 478.8594,364.5625 L478.8594,366.0156 Q478.8594,366.625 478.625,366.8906 Q478.3906,367.1563 478.0156,367.1563 Q477.6719,367.1563 477.4688,366.9531 Q477.2656,366.7656 477.1563,366.25 Q477.1094,365.8906 476.9219,365.7031 Q476.5938,365.3281 475.9844,365.1094 Q475.375,364.8906 474.75,364.8906 Q473.9844,364.8906 473.3438,365.2188 Q472.7188,365.5469 472.2188,366.2969 Q471.7344,367.0469 471.7344,368.0781 L471.7344,369.1719 Q471.7344,370.4063 472.625,371.2344 Q473.5156,372.0469 475.1094,372.0469 Q476.0469,372.0469 476.7031,371.7969 Q477.0938,371.6406 477.5156,371.2031 Q477.7813,370.9375 477.9219,370.8594 Q478.0781,370.7813 478.2813,370.7813 Q478.6094,370.7813 478.8594,371.0469 Q479.125,371.2969 479.125,371.6406 Q479.125,371.9844 478.7813,372.3906 Q478.2813,372.9688 477.4844,373.2969 Q476.4063,373.75 475.1094,373.75 Q473.5938,373.75 472.3906,373.125 Q471.4063,372.625 470.7188,371.5625 Q470.0313,370.4844 470.0313,369.2031 L470.0313,368.0469 Q470.0313,366.7188 470.6406,365.5781 Q471.2656,364.4219 472.3594,363.8125 Q473.4531,363.1875 474.6875,363.1875 Q475.4219,363.1875 476.0625,363.3594 Q476.7188,363.5156 477.2656,363.875 Z " fill="#000000"/><text fill="#000000" font-family="sans-serif" font-size="14" lengthAdjust="spacing" textLength="54" x="488.5" y="373.7285">Location</text><line style="stroke:#181818;stroke-width:0.5;" x1="460.5" x2="544.5" y1="384" y2="384"/><line style="stroke:#181818;stroke-width:0.5;" x1="460.5" x2="544.5" y1="392" y2="392"/></g><!--class History--><g id="elem_History"><rect codeLine="38" fill="#F1F1F1" height="48" id="History" rx="2.5" ry="2.5" style="stroke:#181818;stroke-width:0.5;" width="75" x="610" y="352"/><ellipse cx="625" cy="368" fill="#ADD1B2" rx="11" ry="11" style="stroke:#181818;stroke-width:1.0;"/><path d="M627.7656,363.875 Q627.9219,363.6563 628.1094,363.5469 Q628.2969,363.4375 628.5156,363.4375 Q628.8906,363.4375 629.125,363.7031 Q629.3594,363.9531 629.3594,364.5625 L629.3594,366.0156 Q629.3594,366.625 629.125,366.8906 Q628.8906,367.1563 628.5156,367.1563 Q628.1719,367.1563 627.9688,366.9531 Q627.7656,366.7656 627.6563,366.25 Q627.6094,365.8906 627.4219,365.7031 Q627.0938,365.3281 626.4844,365.1094 Q625.875,364.8906 625.25,364.8906 Q624.4844,364.8906 623.8438,365.2188 Q623.2188,365.5469 622.7188,366.2969 Q622.2344,367.0469 622.2344,368.0781 L622.2344,369.1719 Q622.2344,370.4063 623.125,371.2344 Q624.0156,372.0469 625.6094,372.0469 Q626.5469,372.0469 627.2031,371.7969 Q627.5938,371.6406 628.0156,371.2031 Q628.2813,370.9375 628.4219,370.8594 Q628.5781,370.7813 628.7813,370.7813 Q629.1094,370.7813 629.3594,371.0469 Q629.625,371.2969 629.625,371.6406 Q629.625,371.9844 629.2813,372.3906 Q628.7813,372.9688 627.9844,373.2969 Q626.9063,373.75 625.6094,373.75 Q624.0938,373.75 622.8906,373.125 Q621.9063,372.625 621.2188,371.5625 Q620.5313,370.4844 620.5313,369.2031 L620.5313,368.0469 Q620.5313,366.7188 621.1406,365.5781 Q621.7656,364.4219 622.8594,363.8125 Q623.9531,363.1875 625.1875,363.1875 Q625.9219,363.1875 626.5625,363.3594 Q627.2188,363.5156 627.7656,363.875 Z " fill="#000000"/><text fill="#000000" font-family="sans-serif" font-size="14" lengthAdjust="spacing" textLength="43" x="639" y="373.7285">History</text><line style="stroke:#181818;stroke-width:0.5;" x1="611" x2="684" y1="384" y2="384"/><line style="stroke:#181818;stroke-width:0.5;" x1="611" x2="684" y1="392" y2="392"/></g><!--class Document--><g id="elem_Document"><rect codeLine="46" fill="#ADD8E6" height="65.6094" id="Document" rx="2.5" ry="2.5" style="stroke:#181818;stroke-width:0.5;" width="96" x="790.5" y="343"/><ellipse cx="805.5" cy="359" fill="#ADD1B2" rx="11" ry="11" style="stroke:#181818;stroke-width:1.0;"/><path d="M808.2656,354.875 Q808.4219,354.6563 808.6094,354.5469 Q808.7969,354.4375 809.0156,354.4375 Q809.3906,354.4375 809.625,354.7031 Q809.8594,354.9531 809.8594,355.5625 L809.8594,357.0156 Q809.8594,357.625 809.625,357.8906 Q809.3906,358.1563 809.0156,358.1563 Q808.6719,358.1563 808.4688,357.9531 Q808.2656,357.7656 808.1563,357.25 Q808.1094,356.8906 807.9219,356.7031 Q807.5938,356.3281 806.9844,356.1094 Q806.375,355.8906 805.75,355.8906 Q804.9844,355.8906 804.3438,356.2188 Q803.7188,356.5469 803.2188,357.2969 Q802.7344,358.0469 802.7344,359.0781 L802.7344,360.1719 Q802.7344,361.4063 803.625,362.2344 Q804.5156,363.0469 806.1094,363.0469 Q807.0469,363.0469 807.7031,362.7969 Q808.0938,362.6406 808.5156,362.2031 Q808.7813,361.9375 808.9219,361.8594 Q809.0781,361.7813 809.2813,361.7813 Q809.6094,361.7813 809.8594,362.0469 Q810.125,362.2969 810.125,362.6406 Q810.125,362.9844 809.7813,363.3906 Q809.2813,363.9688 808.4844,364.2969 Q807.4063,364.75 806.1094,364.75 Q804.5938,364.75 803.3906,364.125 Q802.4063,363.625 801.7188,362.5625 Q801.0313,361.4844 801.0313,360.2031 L801.0313,359.0469 Q801.0313,357.7188 801.6406,356.5781 Q802.2656,355.4219 803.3594,354.8125 Q804.4531,354.1875 805.6875,354.1875 Q806.4219,354.1875 807.0625,354.3594 Q807.7188,354.5156 808.2656,354.875 Z " fill="#000000"/><text fill="#000000" font-family="sans-serif" font-size="14" lengthAdjust="spacing" textLength="64" x="819.5" y="364.7285">Document</text><line style="stroke:#181818;stroke-width:0.5;" x1="791.5" x2="885.5" y1="375" y2="375"/><ellipse cx="801.5" cy="389.3047" fill="none" rx="3" ry="3" style="stroke:#038048;stroke-width:1.0;"/><text fill="#000000" font-family="sans-serif" font-size="14" lengthAdjust="spacing" textLength="49" x="810.5" y="393.5332">location</text><line style="stroke:#181818;stroke-width:0.5;" x1="791.5" x2="885.5" y1="400.6094" y2="400.6094"/></g><g id="elem_GMN29"><path d="M411,485.5 L411,511.8516 A0,0 0 0 0 411,511.8516 L536,511.8516 A0,0 0 0 0 536,511.8516 L536,495.5 L526,485.5 L480.42,485.5 L496.91,400.23 L472.42,485.5 L411,485.5 A0,0 0 0 0 411,485.5 " fill="#FEFFDD" style="stroke:#181818;stroke-width:0.5;"/><path d="M526,485.5 L526,495.5 L536,495.5 L526,485.5 " fill="#FEFFDD" style="stroke:#181818;stroke-width:0.5;"/><text fill="#000000" font-family="sans-serif" font-size="13" lengthAdjust="spacing" textLength="104" x="417" y="503.9951">representa la URL</text></g><g id="elem_GMN32"><path d="M571.5,477 L571.5,519.7031 A0,0 0 0 0 571.5,519.7031 L723.5,519.7031 A0,0 0 0 0 723.5,519.7031 L723.5,487 L713.5,477 L651.5,477 L647.5,400.23 L643.5,477 L571.5,477 A0,0 0 0 0 571.5,477 " fill="#FEFFDD" style="stroke:#181818;stroke-width:0.5;"/><path d="M713.5,477 L713.5,487 L723.5,487 L713.5,477 " fill="#FEFFDD" style="stroke:#181818;stroke-width:0.5;"/><text fill="#000000" font-family="sans-serif" font-size="13" lengthAdjust="spacing" textLength="131" x="577.5" y="495.4951">info de la navegaci&#243; en</text><text fill="#000000" font-family="sans-serif" font-size="13" lengthAdjust="spacing" textLength="96" x="577.5" y="511.8467">aquesta pesta&#241;a</text></g><g id="elem_GMN35"><path d="M758.5,469 L758.5,528.0547 A0,0 0 0 0 758.5,528.0547 L976.5,528.0547 A0,0 0 0 0 976.5,528.0547 L976.5,479 L966.5,469 L864.6,469 L846.27,409.29 L856.6,469 L758.5,469 A0,0 0 0 0 758.5,469 " fill="#FEFFDD" style="stroke:#181818;stroke-width:0.5;"/><path d="M966.5,469 L966.5,479 L976.5,479 L966.5,469 " fill="#FEFFDD" style="stroke:#181818;stroke-width:0.5;"/><text fill="#000000" font-family="sans-serif" font-size="13" lengthAdjust="spacing" textLength="119" x="764.5" y="487.4951">info de la p&#224;gina que</text><text fill="#000000" font-family="sans-serif" font-size="13" lengthAdjust="spacing" textLength="89" x="764.5" y="503.8467">s'esta mostrant</text><text fill="#000000" font-family="sans-serif" font-size="13" lengthAdjust="spacing" textLength="197" x="764.5" y="520.1982">NODO RAIZ DEL ARBOL &lt;DOM&gt;</text></g><!--link Global to Navigator--><g id="link_Global_Navigator"><path codeLine="5" d="M465.0834,139.4333 C418.5134,161.4733 354.2437,191.8842 303.3637,215.9542 " fill="none" id="Global-Navigator" style="stroke:#181818;stroke-width:1.0;"/><polygon fill="#181818" points="475.93,134.3,468.7956,133.2511,465.0834,139.4333,472.2178,140.4822,475.93,134.3" style="stroke:#181818;stroke-width:1.0;"/><polygon fill="#181818" points="297.94,218.52,307.7861,218.2871,302.4598,216.3818,304.365,211.0555,297.94,218.52" style="stroke:#181818;stroke-width:1.0;"/></g><!--link Global to Screen--><g id="link_Global_Screen"><path codeLine="6" d="M512.5,152.23 C512.5,174.31 512.5,189.33 512.5,211.37 " fill="none" id="Global-Screen" style="stroke:#181818;stroke-width:1.0;"/><polygon fill="#181818" points="512.5,140.23,508.5,146.23,512.5,152.23,516.5,146.23,512.5,140.23" style="stroke:#181818;stroke-width:1.0;"/><polygon fill="#181818" points="512.5,217.37,516.5,208.37,512.5,212.37,508.5,208.37,512.5,217.37" style="stroke:#181818;stroke-width:1.0;"/></g><!--link Global to Window--><g id="link_Global_Window"><path codeLine="7" d="M546.7446,148.3291 C565.6146,165.5891 578.5027,177.3804 600.5427,197.5404 " fill="none" id="Global-Window" style="stroke:#181818;stroke-width:1.0;"/><polygon fill="#181818" points="537.89,140.23,539.6176,147.2311,546.7446,148.3291,545.017,141.328,537.89,140.23" style="stroke:#181818;stroke-width:1.0;"/><polygon fill="#181818" points="604.97,201.59,601.0289,192.5641,601.2806,198.2153,595.6294,198.4671,604.97,201.59" style="stroke:#181818;stroke-width:1.0;"/><text fill="#000000" font-family="sans-serif" font-size="13" lengthAdjust="spacing" textLength="8" x="588.9727" y="190.862">+</text></g><!--reverse link EventTarget to Screen--><g id="link_EventTarget_Screen"><path codeLine="20" d="M766.2446,140.1716 C698.0646,162.1016 605.83,192.09 587.5,200 C575.41,205.22 562.66,211.7 551.17,217.94 " fill="none" id="EventTarget-backto-Screen" style="stroke:#181818;stroke-width:1.0;"/><polygon fill="none" points="783.38,134.66,764.4074,134.4598,768.0818,145.8834,783.38,134.66" style="stroke:#181818;stroke-width:1.0;"/></g><!--link Window to Location--><g id="link_Window_Location"><path codeLine="29" d="M595.9215,289.6349 C570.8615,312.5349 553.3393,328.5427 532.1193,347.9327 " fill="none" id="Window-Location" style="stroke:#181818;stroke-width:1.0;"/><polygon fill="#181818" points="604.78,281.54,597.6525,282.6346,595.9215,289.6349,603.0491,288.5403,604.78,281.54" style="stroke:#181818;stroke-width:1.0;"/><polygon fill="#181818" points="527.69,351.98,537.0322,348.8619,531.3811,348.6072,531.6358,342.9561,527.69,351.98" style="stroke:#181818;stroke-width:1.0;"/></g><!--link Window to History--><g id="link_Window_History"><path codeLine="30" d="M647.5,295.34 C647.5,317.84 647.5,326.96 647.5,345.84 " fill="none" id="Window-History" style="stroke:#181818;stroke-width:1.0;"/><polygon fill="#181818" points="647.5,283.34,643.5,289.34,647.5,295.34,651.5,289.34,647.5,283.34" style="stroke:#181818;stroke-width:1.0;"/><polygon fill="#181818" points="647.5,351.84,651.5,342.84,647.5,346.84,643.5,342.84,647.5,351.84" style="stroke:#181818;stroke-width:1.0;"/></g><!--link Window to Document--><g id="link_Window_Document"><path codeLine="31" d="M700.2206,279.0788 C730.4706,300.0588 756.1699,317.8903 787.1799,339.4003 " fill="none" id="Window-Document" style="stroke:#181818;stroke-width:1.0;"/><polygon fill="#181818" points="690.36,272.24,693.0107,278.9463,700.2206,279.0788,697.5699,272.3726,690.36,272.24" style="stroke:#181818;stroke-width:1.0;"/><polygon fill="#181818" points="792.11,342.82,786.9947,334.4037,788.0016,339.9702,782.4351,340.9771,792.11,342.82" style="stroke:#181818;stroke-width:1.0;"/></g><!--reverse link EventTarget to Document--><g id="link_EventTarget_Document"><path codeLine="54" d="M838.5,158.35 C838.5,204.62 838.5,290.01 838.5,342.74 " fill="none" id="EventTarget-backto-Document" style="stroke:#181818;stroke-width:1.0;"/><polygon fill="none" points="838.5,140.35,832.5,158.35,844.5,158.35,838.5,140.35" style="stroke:#181818;stroke-width:1.0;"/></g><!--SRC=[VL9TJi9047xVKqpqmKJIU0620I5gKY41ZT6tOHdg9jlTsbqm_d0Nhs0yW8bSp6cx1HhHFcrdPxw_MQdHEJZNTefQ6Ei9lCr0v9JbvCXu1D8WjUAZ83E3eaLKxN0SHHqOub8bw6tUg4vaJcGQfOFM0TmgCxDFGiYITJjQ4mjCfmNXuuB0u98IX1EO8sJabLJMk1rXniECMnUEyWYJXhw07qHim0DmGiup5e9cO8P1hL5yVurvd7BbNr2gzIUegezFPvF9wHPxi6IgQymJyj1-YwAQ9N1M3k5L07-jmaImMFsxgdcrFsg9iyAhyxZ-m2rbm2nJZAt4GdsZUA4SKpmtQdqh5scHIX2s6IoPfzPxc-voSnWtu_XNXW4Q6cFAp2s7NynKMoeJOr_8-RBwFHu2t6vwXx5A7lmTQRrz4hNgSDdJ2wgZrBM1rLzQilLxedYlnPA5EogLfDRvd9SiXgF-2CRTotle3sBeZdkZ6DhzqLNddzNMQdu0]--></g></svg>