<?xml version="1.0" encoding="us-ascii" standalone="no"?><svg xmlns="http://www.w3.org/2000/svg" xmlns:xlink="http://www.w3.org/1999/xlink" contentStyleType="text/css" height="104px" preserveAspectRatio="none" style="width:337px;height:104px;background:#FFFFFF;" version="1.1" viewBox="0 0 337 104" width="337px" zoomAndPan="magnify"><defs/><g><!--class CSSStyleDeclaration--><g id="elem_CSSStyleDeclaration"><rect codeLine="2" fill="#F1F1F1" height="83.2188" id="CSSStyleDeclaration" rx="2.5" ry="2.5" style="stroke:#181818;stroke-width:0.5;" width="316" x="7" y="7"/><ellipse cx="95.25" cy="23" fill="#ADD1B2" rx="11" ry="11" style="stroke:#181818;stroke-width:1.0;"/><path d="M98.0156,18.875 Q98.1719,18.6563 98.3594,18.5469 Q98.5469,18.4375 98.7656,18.4375 Q99.1406,18.4375 99.375,18.7031 Q99.6094,18.9531 99.6094,19.5625 L99.6094,21.0156 Q99.6094,21.625 99.375,21.8906 Q99.1406,22.1563 98.7656,22.1563 Q98.4219,22.1563 98.2188,21.9531 Q98.0156,21.7656 97.9063,21.25 Q97.8594,20.8906 97.6719,20.7031 Q97.3438,20.3281 96.7344,20.1094 Q96.125,19.8906 95.5,19.8906 Q94.7344,19.8906 94.0938,20.2188 Q93.4688,20.5469 92.9688,21.2969 Q92.4844,22.0469 92.4844,23.0781 L92.4844,24.1719 Q92.4844,25.4063 93.375,26.2344 Q94.2656,27.0469 95.8594,27.0469 Q96.7969,27.0469 97.4531,26.7969 Q97.8438,26.6406 98.2656,26.2031 Q98.5313,25.9375 98.6719,25.8594 Q98.8281,25.7813 99.0313,25.7813 Q99.3594,25.7813 99.6094,26.0469 Q99.875,26.2969 99.875,26.6406 Q99.875,26.9844 99.5313,27.3906 Q99.0313,27.9688 98.2344,28.2969 Q97.1563,28.75 95.8594,28.75 Q94.3438,28.75 93.1406,28.125 Q92.1563,27.625 91.4688,26.5625 Q90.7813,25.4844 90.7813,24.2031 L90.7813,23.0469 Q90.7813,21.7188 91.3906,20.5781 Q92.0156,19.4219 93.1094,18.8125 Q94.2031,18.1875 95.4375,18.1875 Q96.1719,18.1875 96.8125,18.3594 Q97.4688,18.5156 98.0156,18.875 Z " fill="#000000"/><text fill="#000000" font-family="sans-serif" font-size="14" lengthAdjust="spacing" textLength="131" x="115.75" y="28.7285">CSSStyleDeclaration</text><line style="stroke:#181818;stroke-width:0.5;" x1="8" x2="322" y1="39" y2="39"/><ellipse cx="18" cy="53.3047" fill="none" rx="3" ry="3" style="stroke:#038048;stroke-width:1.0;"/><text fill="#000000" font-family="sans-serif" font-size="14" lengthAdjust="spacing" textLength="255" x="27" y="57.5332">cssText: String ex: "color: red; with: 2px;"</text><line style="stroke:#181818;stroke-width:0.5;" x1="8" x2="322" y1="64.6094" y2="64.6094"/><ellipse cx="18" cy="78.9141" fill="#84BE84" rx="3" ry="3" style="stroke:#038048;stroke-width:1.0;"/><text fill="#000000" font-family="sans-serif" font-size="14" lengthAdjust="spacing" textLength="290" x="27" y="83.1426">setProperty(cssProperty: String, value: String)</text></g><!--SRC=[DOmn3i8m40HxlsALYWYgb4u93q0o7x3C2IoTukZk88wY_9qKUAkPOZPnLCKrX60hquqIHucMouJDuTWPIVL1rJo2IPvUeEhHfS95F8IU8vPiRuzXhcFd_esItQNC9BQUZhvn-xZW6_b3JNktkny0]--></g></svg>