<?xml version="1.0" encoding="us-ascii" standalone="no"?><svg xmlns="http://www.w3.org/2000/svg" xmlns:xlink="http://www.w3.org/1999/xlink" contentStyleType="text/css" height="86px" preserveAspectRatio="none" style="width:261px;height:86px;background:#FFFFFF;" version="1.1" viewBox="0 0 261 86" width="261px" zoomAndPan="magnify"><defs/><g><!--class CSSStyleDeclaration--><g id="elem_CSSStyleDeclaration"><rect codeLine="2" fill="#F1F1F1" height="65.6094" id="CSSStyleDeclaration" rx="2.5" ry="2.5" style="stroke:#181818;stroke-width:0.5;" width="240" x="7" y="7"/><ellipse cx="57.25" cy="23" fill="#ADD1B2" rx="11" ry="11" style="stroke:#181818;stroke-width:1.0;"/><path d="M60.0156,18.875 Q60.1719,18.6563 60.3594,18.5469 Q60.5469,18.4375 60.7656,18.4375 Q61.1406,18.4375 61.375,18.7031 Q61.6094,18.9531 61.6094,19.5625 L61.6094,21.0156 Q61.6094,21.625 61.375,21.8906 Q61.1406,22.1563 60.7656,22.1563 Q60.4219,22.1563 60.2188,21.9531 Q60.0156,21.7656 59.9063,21.25 Q59.8594,20.8906 59.6719,20.7031 Q59.3438,20.3281 58.7344,20.1094 Q58.125,19.8906 57.5,19.8906 Q56.7344,19.8906 56.0938,20.2188 Q55.4688,20.5469 54.9688,21.2969 Q54.4844,22.0469 54.4844,23.0781 L54.4844,24.1719 Q54.4844,25.4063 55.375,26.2344 Q56.2656,27.0469 57.8594,27.0469 Q58.7969,27.0469 59.4531,26.7969 Q59.8438,26.6406 60.2656,26.2031 Q60.5313,25.9375 60.6719,25.8594 Q60.8281,25.7813 61.0313,25.7813 Q61.3594,25.7813 61.6094,26.0469 Q61.875,26.2969 61.875,26.6406 Q61.875,26.9844 61.5313,27.3906 Q61.0313,27.9688 60.2344,28.2969 Q59.1563,28.75 57.8594,28.75 Q56.3438,28.75 55.1406,28.125 Q54.1563,27.625 53.4688,26.5625 Q52.7813,25.4844 52.7813,24.2031 L52.7813,23.0469 Q52.7813,21.7188 53.3906,20.5781 Q54.0156,19.4219 55.1094,18.8125 Q56.2031,18.1875 57.4375,18.1875 Q58.1719,18.1875 58.8125,18.3594 Q59.4688,18.5156 60.0156,18.875 Z " fill="#000000"/><text fill="#000000" font-family="sans-serif" font-size="14" lengthAdjust="spacing" textLength="131" x="77.75" y="28.7285">CSSStyleDeclaration</text><line style="stroke:#181818;stroke-width:0.5;" x1="8" x2="246" y1="39" y2="39"/><line style="stroke:#181818;stroke-width:0.5;" x1="8" x2="246" y1="47" y2="47"/><ellipse cx="18" cy="61.3047" fill="#84BE84" rx="3" ry="3" style="stroke:#038048;stroke-width:1.0;"/><text fill="#000000" font-family="sans-serif" font-size="14" lengthAdjust="spacing" textLength="214" x="27" y="65.5332">setProperty(propertyName, value)</text></g><!--SRC=[Iyv9B2vMS0uE3Ywfp4brIKtEIInABCdCprEevb800cs5ujIIWAByWjIYaagD0YZ3Bp4tLKUXB36dD5MJgvOB0000]--></g></svg>