<?xml version="1.0" encoding="us-ascii" standalone="no"?><svg xmlns="http://www.w3.org/2000/svg" xmlns:xlink="http://www.w3.org/1999/xlink" contentStyleType="text/css" height="459px" preserveAspectRatio="none" style="width:487px;height:459px;background:#FFFFFF;" version="1.1" viewBox="0 0 487 459" width="487px" zoomAndPan="magnify"><defs/><g><!--class Element--><g id="elem_Element"><rect codeLine="2" fill="#F1F1F1" height="100.8281" id="Element" rx="2.5" ry="2.5" style="stroke:#181818;stroke-width:0.5;" width="431" x="49" y="116"/><ellipse cx="234.75" cy="132" fill="#ADD1B2" rx="11" ry="11" style="stroke:#181818;stroke-width:1.0;"/><path d="M237.5156,127.875 Q237.6719,127.6563 237.8594,127.5469 Q238.0469,127.4375 238.2656,127.4375 Q238.6406,127.4375 238.875,127.7031 Q239.1094,127.9531 239.1094,128.5625 L239.1094,130.0156 Q239.1094,130.625 238.875,130.8906 Q238.6406,131.1563 238.2656,131.1563 Q237.9219,131.1563 237.7188,130.9531 Q237.5156,130.7656 237.4063,130.25 Q237.3594,129.8906 237.1719,129.7031 Q236.8438,129.3281 236.2344,129.1094 Q235.625,128.8906 235,128.8906 Q234.2344,128.8906 233.5938,129.2188 Q232.9688,129.5469 232.4688,130.2969 Q231.9844,131.0469 231.9844,132.0781 L231.9844,133.1719 Q231.9844,134.4063 232.875,135.2344 Q233.7656,136.0469 235.3594,136.0469 Q236.2969,136.0469 236.9531,135.7969 Q237.3438,135.6406 237.7656,135.2031 Q238.0313,134.9375 238.1719,134.8594 Q238.3281,134.7813 238.5313,134.7813 Q238.8594,134.7813 239.1094,135.0469 Q239.375,135.2969 239.375,135.6406 Q239.375,135.9844 239.0313,136.3906 Q238.5313,136.9688 237.7344,137.2969 Q236.6563,137.75 235.3594,137.75 Q233.8438,137.75 232.6406,137.125 Q231.6563,136.625 230.9688,135.5625 Q230.2813,134.4844 230.2813,133.2031 L230.2813,132.0469 Q230.2813,130.7188 230.8906,129.5781 Q231.5156,128.4219 232.6094,127.8125 Q233.7031,127.1875 234.9375,127.1875 Q235.6719,127.1875 236.3125,127.3594 Q236.9688,127.5156 237.5156,127.875 Z " fill="#000000"/><text fill="#000000" font-family="sans-serif" font-size="14" lengthAdjust="spacing" textLength="51" x="255.25" y="137.7285">Element</text><line style="stroke:#181818;stroke-width:0.5;" x1="50" x2="479" y1="148" y2="148"/><ellipse cx="60" cy="162.3047" fill="none" rx="3" ry="3" style="stroke:#038048;stroke-width:1.0;"/><text fill="#000000" font-family="sans-serif" font-size="14" lengthAdjust="spacing" textLength="405" x="69" y="166.5332">innerHTML: html de los nodos descendientes serialized as string</text><line style="stroke:#181818;stroke-width:0.5;" x1="50" x2="479" y1="173.6094" y2="173.6094"/><ellipse cx="60" cy="187.9141" fill="#84BE84" rx="3" ry="3" style="stroke:#038048;stroke-width:1.0;"/><text fill="#000000" font-family="sans-serif" font-size="14" lengthAdjust="spacing" textLength="270" x="69" y="192.1426">setAttribute(attribute: String, value: String);</text><ellipse cx="60" cy="205.5234" fill="#84BE84" rx="3" ry="3" style="stroke:#038048;stroke-width:1.0;"/><text fill="#000000" font-family="sans-serif" font-size="14" lengthAdjust="spacing" textLength="137" x="69" y="209.752">setAttributeNode(Attr)</text></g><!--class Node--><g id="elem_Node"><rect fill="#F1F1F1" height="48" id="Node" rx="2.5" ry="2.5" style="stroke:#181818;stroke-width:0.5;" width="65" x="232" y="7"/><ellipse cx="247" cy="23" fill="#ADD1B2" rx="11" ry="11" style="stroke:#181818;stroke-width:1.0;"/><path d="M249.7656,18.875 Q249.9219,18.6563 250.1094,18.5469 Q250.2969,18.4375 250.5156,18.4375 Q250.8906,18.4375 251.125,18.7031 Q251.3594,18.9531 251.3594,19.5625 L251.3594,21.0156 Q251.3594,21.625 251.125,21.8906 Q250.8906,22.1563 250.5156,22.1563 Q250.1719,22.1563 249.9688,21.9531 Q249.7656,21.7656 249.6563,21.25 Q249.6094,20.8906 249.4219,20.7031 Q249.0938,20.3281 248.4844,20.1094 Q247.875,19.8906 247.25,19.8906 Q246.4844,19.8906 245.8438,20.2188 Q245.2188,20.5469 244.7188,21.2969 Q244.2344,22.0469 244.2344,23.0781 L244.2344,24.1719 Q244.2344,25.4063 245.125,26.2344 Q246.0156,27.0469 247.6094,27.0469 Q248.5469,27.0469 249.2031,26.7969 Q249.5938,26.6406 250.0156,26.2031 Q250.2813,25.9375 250.4219,25.8594 Q250.5781,25.7813 250.7813,25.7813 Q251.1094,25.7813 251.3594,26.0469 Q251.625,26.2969 251.625,26.6406 Q251.625,26.9844 251.2813,27.3906 Q250.7813,27.9688 249.9844,28.2969 Q248.9063,28.75 247.6094,28.75 Q246.0938,28.75 244.8906,28.125 Q243.9063,27.625 243.2188,26.5625 Q242.5313,25.4844 242.5313,24.2031 L242.5313,23.0469 Q242.5313,21.7188 243.1406,20.5781 Q243.7656,19.4219 244.8594,18.8125 Q245.9531,18.1875 247.1875,18.1875 Q247.9219,18.1875 248.5625,18.3594 Q249.2188,18.5156 249.7656,18.875 Z " fill="#000000"/><text fill="#000000" font-family="sans-serif" font-size="14" lengthAdjust="spacing" textLength="33" x="261" y="28.7285">Node</text><line style="stroke:#181818;stroke-width:0.5;" x1="233" x2="296" y1="39" y2="39"/><line style="stroke:#181818;stroke-width:0.5;" x1="233" x2="296" y1="47" y2="47"/></g><!--class HTMLElement--><g id="elem_HTMLElement"><rect codeLine="10" fill="#F1F1F1" height="48" id="HTMLElement" rx="2.5" ry="2.5" style="stroke:#181818;stroke-width:0.5;" width="120" x="115.5" y="295"/><ellipse cx="130.5" cy="311" fill="#ADD1B2" rx="11" ry="11" style="stroke:#181818;stroke-width:1.0;"/><path d="M133.2656,306.875 Q133.4219,306.6563 133.6094,306.5469 Q133.7969,306.4375 134.0156,306.4375 Q134.3906,306.4375 134.625,306.7031 Q134.8594,306.9531 134.8594,307.5625 L134.8594,309.0156 Q134.8594,309.625 134.625,309.8906 Q134.3906,310.1563 134.0156,310.1563 Q133.6719,310.1563 133.4688,309.9531 Q133.2656,309.7656 133.1563,309.25 Q133.1094,308.8906 132.9219,308.7031 Q132.5938,308.3281 131.9844,308.1094 Q131.375,307.8906 130.75,307.8906 Q129.9844,307.8906 129.3438,308.2188 Q128.7188,308.5469 128.2188,309.2969 Q127.7344,310.0469 127.7344,311.0781 L127.7344,312.1719 Q127.7344,313.4063 128.625,314.2344 Q129.5156,315.0469 131.1094,315.0469 Q132.0469,315.0469 132.7031,314.7969 Q133.0938,314.6406 133.5156,314.2031 Q133.7813,313.9375 133.9219,313.8594 Q134.0781,313.7813 134.2813,313.7813 Q134.6094,313.7813 134.8594,314.0469 Q135.125,314.2969 135.125,314.6406 Q135.125,314.9844 134.7813,315.3906 Q134.2813,315.9688 133.4844,316.2969 Q132.4063,316.75 131.1094,316.75 Q129.5938,316.75 128.3906,316.125 Q127.4063,315.625 126.7188,314.5625 Q126.0313,313.4844 126.0313,312.2031 L126.0313,311.0469 Q126.0313,309.7188 126.6406,308.5781 Q127.2656,307.4219 128.3594,306.8125 Q129.4531,306.1875 130.6875,306.1875 Q131.4219,306.1875 132.0625,306.3594 Q132.7188,306.5156 133.2656,306.875 Z " fill="#000000"/><text fill="#000000" font-family="sans-serif" font-size="14" lengthAdjust="spacing" textLength="88" x="144.5" y="316.7285">HTMLElement</text><line style="stroke:#181818;stroke-width:0.5;" x1="116.5" x2="234.5" y1="327" y2="327"/><line style="stroke:#181818;stroke-width:0.5;" x1="116.5" x2="234.5" y1="335" y2="335"/></g><!--class CSSStyleDeclaration--><g id="elem_CSSStyleDeclaration"><rect codeLine="20" fill="#F1F1F1" height="48" id="CSSStyleDeclaration" rx="2.5" ry="2.5" style="stroke:#181818;stroke-width:0.5;" width="163" x="271" y="295"/><ellipse cx="286" cy="311" fill="#ADD1B2" rx="11" ry="11" style="stroke:#181818;stroke-width:1.0;"/><path d="M288.7656,306.875 Q288.9219,306.6563 289.1094,306.5469 Q289.2969,306.4375 289.5156,306.4375 Q289.8906,306.4375 290.125,306.7031 Q290.3594,306.9531 290.3594,307.5625 L290.3594,309.0156 Q290.3594,309.625 290.125,309.8906 Q289.8906,310.1563 289.5156,310.1563 Q289.1719,310.1563 288.9688,309.9531 Q288.7656,309.7656 288.6563,309.25 Q288.6094,308.8906 288.4219,308.7031 Q288.0938,308.3281 287.4844,308.1094 Q286.875,307.8906 286.25,307.8906 Q285.4844,307.8906 284.8438,308.2188 Q284.2188,308.5469 283.7188,309.2969 Q283.2344,310.0469 283.2344,311.0781 L283.2344,312.1719 Q283.2344,313.4063 284.125,314.2344 Q285.0156,315.0469 286.6094,315.0469 Q287.5469,315.0469 288.2031,314.7969 Q288.5938,314.6406 289.0156,314.2031 Q289.2813,313.9375 289.4219,313.8594 Q289.5781,313.7813 289.7813,313.7813 Q290.1094,313.7813 290.3594,314.0469 Q290.625,314.2969 290.625,314.6406 Q290.625,314.9844 290.2813,315.3906 Q289.7813,315.9688 288.9844,316.2969 Q287.9063,316.75 286.6094,316.75 Q285.0938,316.75 283.8906,316.125 Q282.9063,315.625 282.2188,314.5625 Q281.5313,313.4844 281.5313,312.2031 L281.5313,311.0469 Q281.5313,309.7188 282.1406,308.5781 Q282.7656,307.4219 283.8594,306.8125 Q284.9531,306.1875 286.1875,306.1875 Q286.9219,306.1875 287.5625,306.3594 Q288.2188,306.5156 288.7656,306.875 Z " fill="#000000"/><text fill="#000000" font-family="sans-serif" font-size="14" lengthAdjust="spacing" textLength="131" x="300" y="316.7285">CSSStyleDeclaration</text><line style="stroke:#181818;stroke-width:0.5;" x1="272" x2="433" y1="327" y2="327"/><line style="stroke:#181818;stroke-width:0.5;" x1="272" x2="433" y1="335" y2="335"/></g><!--class HTMLInputElement--><g id="elem_HTMLInputElement"><rect codeLine="14" fill="#F1F1F1" height="48" id="HTMLInputElement" rx="2.5" ry="2.5" style="stroke:#181818;stroke-width:0.5;" width="151" x="7" y="404"/><ellipse cx="22" cy="420" fill="#ADD1B2" rx="11" ry="11" style="stroke:#181818;stroke-width:1.0;"/><path d="M24.7656,415.875 Q24.9219,415.6563 25.1094,415.5469 Q25.2969,415.4375 25.5156,415.4375 Q25.8906,415.4375 26.125,415.7031 Q26.3594,415.9531 26.3594,416.5625 L26.3594,418.0156 Q26.3594,418.625 26.125,418.8906 Q25.8906,419.1563 25.5156,419.1563 Q25.1719,419.1563 24.9688,418.9531 Q24.7656,418.7656 24.6563,418.25 Q24.6094,417.8906 24.4219,417.7031 Q24.0938,417.3281 23.4844,417.1094 Q22.875,416.8906 22.25,416.8906 Q21.4844,416.8906 20.8438,417.2188 Q20.2188,417.5469 19.7188,418.2969 Q19.2344,419.0469 19.2344,420.0781 L19.2344,421.1719 Q19.2344,422.4063 20.125,423.2344 Q21.0156,424.0469 22.6094,424.0469 Q23.5469,424.0469 24.2031,423.7969 Q24.5938,423.6406 25.0156,423.2031 Q25.2813,422.9375 25.4219,422.8594 Q25.5781,422.7813 25.7813,422.7813 Q26.1094,422.7813 26.3594,423.0469 Q26.625,423.2969 26.625,423.6406 Q26.625,423.9844 26.2813,424.3906 Q25.7813,424.9688 24.9844,425.2969 Q23.9063,425.75 22.6094,425.75 Q21.0938,425.75 19.8906,425.125 Q18.9063,424.625 18.2188,423.5625 Q17.5313,422.4844 17.5313,421.2031 L17.5313,420.0469 Q17.5313,418.7188 18.1406,417.5781 Q18.7656,416.4219 19.8594,415.8125 Q20.9531,415.1875 22.1875,415.1875 Q22.9219,415.1875 23.5625,415.3594 Q24.2188,415.5156 24.7656,415.875 Z " fill="#000000"/><text fill="#000000" font-family="sans-serif" font-size="14" lengthAdjust="spacing" textLength="119" x="36" y="425.7285">HTMLInputElement</text><line style="stroke:#181818;stroke-width:0.5;" x1="8" x2="157" y1="436" y2="436"/><line style="stroke:#181818;stroke-width:0.5;" x1="8" x2="157" y1="444" y2="444"/></g><!--class HTMLFormElement--><g id="elem_HTMLFormElement"><rect codeLine="17" fill="#F1F1F1" height="48" id="HTMLFormElement" rx="2.5" ry="2.5" style="stroke:#181818;stroke-width:0.5;" width="153" x="193" y="404"/><ellipse cx="208" cy="420" fill="#ADD1B2" rx="11" ry="11" style="stroke:#181818;stroke-width:1.0;"/><path d="M210.7656,415.875 Q210.9219,415.6563 211.1094,415.5469 Q211.2969,415.4375 211.5156,415.4375 Q211.8906,415.4375 212.125,415.7031 Q212.3594,415.9531 212.3594,416.5625 L212.3594,418.0156 Q212.3594,418.625 212.125,418.8906 Q211.8906,419.1563 211.5156,419.1563 Q211.1719,419.1563 210.9688,418.9531 Q210.7656,418.7656 210.6563,418.25 Q210.6094,417.8906 210.4219,417.7031 Q210.0938,417.3281 209.4844,417.1094 Q208.875,416.8906 208.25,416.8906 Q207.4844,416.8906 206.8438,417.2188 Q206.2188,417.5469 205.7188,418.2969 Q205.2344,419.0469 205.2344,420.0781 L205.2344,421.1719 Q205.2344,422.4063 206.125,423.2344 Q207.0156,424.0469 208.6094,424.0469 Q209.5469,424.0469 210.2031,423.7969 Q210.5938,423.6406 211.0156,423.2031 Q211.2813,422.9375 211.4219,422.8594 Q211.5781,422.7813 211.7813,422.7813 Q212.1094,422.7813 212.3594,423.0469 Q212.625,423.2969 212.625,423.6406 Q212.625,423.9844 212.2813,424.3906 Q211.7813,424.9688 210.9844,425.2969 Q209.9063,425.75 208.6094,425.75 Q207.0938,425.75 205.8906,425.125 Q204.9063,424.625 204.2188,423.5625 Q203.5313,422.4844 203.5313,421.2031 L203.5313,420.0469 Q203.5313,418.7188 204.1406,417.5781 Q204.7656,416.4219 205.8594,415.8125 Q206.9531,415.1875 208.1875,415.1875 Q208.9219,415.1875 209.5625,415.3594 Q210.2188,415.5156 210.7656,415.875 Z " fill="#000000"/><text fill="#000000" font-family="sans-serif" font-size="14" lengthAdjust="spacing" textLength="121" x="222" y="425.7285">HTMLFormElement</text><line style="stroke:#181818;stroke-width:0.5;" x1="194" x2="345" y1="436" y2="436"/><line style="stroke:#181818;stroke-width:0.5;" x1="194" x2="345" y1="444" y2="444"/></g><!--reverse link Node to Element--><g id="link_Node_Element"><path codeLine="8" d="M264.5,73.25 C264.5,89.99 264.5,95.18 264.5,115.98 " fill="none" id="Node-backto-Element" style="stroke:#181818;stroke-width:1.0;"/><polygon fill="none" points="264.5,55.25,258.5,73.25,270.5,73.25,264.5,55.25" style="stroke:#181818;stroke-width:1.0;"/></g><!--reverse link Element to HTMLElement--><g id="link_Element_HTMLElement"><path codeLine="11" d="M225.9493,232.6946 C210.4593,258.8946 201.35,274.29 189.16,294.9 " fill="none" id="Element-backto-HTMLElement" style="stroke:#181818;stroke-width:1.0;"/><polygon fill="none" points="235.11,217.2,220.7844,229.641,231.1141,235.7481,235.11,217.2" style="stroke:#181818;stroke-width:1.0;"/></g><!--link Element to CSSStyleDeclaration--><g id="link_Element_CSSStyleDeclaration"><path codeLine="12" d="M293.56,217.2 C308.88,243.4 323.9116,269.1103 335.9616,289.7203 " fill="none" id="Element-to-CSSStyleDeclaration" style="stroke:#181818;stroke-width:1.0;"/><polygon fill="#181818" points="338.99,294.9,337.9005,285.1116,336.4663,290.5836,330.9943,289.1494,338.99,294.9" style="stroke:#181818;stroke-width:1.0;"/><ellipse cx="325.5" cy="256.6758" fill="none" rx="3" ry="3" style="stroke:#038048;stroke-width:1.0;"/><text fill="#000000" font-family="sans-serif" font-size="13" lengthAdjust="spacing" textLength="28" x="332.5" y="261.4951">style</text></g><!--reverse link HTMLElement to HTMLInputElement--><g id="link_HTMLElement_HTMLInputElement"><path codeLine="15" d="M143.5088,356.8029 C127.9088,374.7429 118.23,385.89 102.64,403.83 " fill="none" id="HTMLElement-backto-HTMLInputElement" style="stroke:#181818;stroke-width:1.0;"/><polygon fill="none" points="155.32,343.22,138.9811,352.8658,148.0364,360.74,155.32,343.22" style="stroke:#181818;stroke-width:1.0;"/></g><!--reverse link HTMLElement to HTMLFormElement--><g id="link_HTMLElement_HTMLFormElement"><path codeLine="18" d="M207.7797,356.743 C223.5397,374.683 233.39,385.89 249.14,403.83 " fill="none" id="HTMLElement-backto-HTMLFormElement" style="stroke:#181818;stroke-width:1.0;"/><polygon fill="none" points="195.9,343.22,203.2721,360.7029,212.2874,352.7831,195.9,343.22" style="stroke:#181818;stroke-width:1.0;"/></g><!--SRC=[RK_B2i8m4BpdA_PeqVv05K5yeA1UuW_4Pj50caYo5NpzkqbfIWxDOTdPdPcTr5fu3rkD3Hg23uFmfg2CGRU_d8uLtAdH816qzM2i35MYhz585GJemQDJGgitIX01aLFcndeRZxIYCBcsX1EHkWfunvh1K-XsWCLyH7Ms4YSH5Up78e35jonJNiRgBdvCchx0KjCHiysmACibh3ddzDAumU3W12bhgdWwpdBNWtcqD5ZdTmRxd99BTzOrQJmgp0czRYJM7m00]--></g></svg>