<?xml version="1.0" encoding="us-ascii" standalone="no"?><svg xmlns="http://www.w3.org/2000/svg" xmlns:xlink="http://www.w3.org/1999/xlink" contentStyleType="text/css" height="476px" preserveAspectRatio="none" style="width:445px;height:476px;background:#FFFFFF;" version="1.1" viewBox="0 0 445 476" width="445px" zoomAndPan="magnify"><defs/><g><!--class Element--><g id="elem_Element"><rect codeLine="2" fill="#F1F1F1" height="100.8281" id="Element" rx="2.5" ry="2.5" style="stroke:#181818;stroke-width:0.5;" width="431" x="7" y="116"/><ellipse cx="192.75" cy="132" fill="#ADD1B2" rx="11" ry="11" style="stroke:#181818;stroke-width:1.0;"/><path d="M195.5156,127.875 Q195.6719,127.6563 195.8594,127.5469 Q196.0469,127.4375 196.2656,127.4375 Q196.6406,127.4375 196.875,127.7031 Q197.1094,127.9531 197.1094,128.5625 L197.1094,130.0156 Q197.1094,130.625 196.875,130.8906 Q196.6406,131.1563 196.2656,131.1563 Q195.9219,131.1563 195.7188,130.9531 Q195.5156,130.7656 195.4063,130.25 Q195.3594,129.8906 195.1719,129.7031 Q194.8438,129.3281 194.2344,129.1094 Q193.625,128.8906 193,128.8906 Q192.2344,128.8906 191.5938,129.2188 Q190.9688,129.5469 190.4688,130.2969 Q189.9844,131.0469 189.9844,132.0781 L189.9844,133.1719 Q189.9844,134.4063 190.875,135.2344 Q191.7656,136.0469 193.3594,136.0469 Q194.2969,136.0469 194.9531,135.7969 Q195.3438,135.6406 195.7656,135.2031 Q196.0313,134.9375 196.1719,134.8594 Q196.3281,134.7813 196.5313,134.7813 Q196.8594,134.7813 197.1094,135.0469 Q197.375,135.2969 197.375,135.6406 Q197.375,135.9844 197.0313,136.3906 Q196.5313,136.9688 195.7344,137.2969 Q194.6563,137.75 193.3594,137.75 Q191.8438,137.75 190.6406,137.125 Q189.6563,136.625 188.9688,135.5625 Q188.2813,134.4844 188.2813,133.2031 L188.2813,132.0469 Q188.2813,130.7188 188.8906,129.5781 Q189.5156,128.4219 190.6094,127.8125 Q191.7031,127.1875 192.9375,127.1875 Q193.6719,127.1875 194.3125,127.3594 Q194.9688,127.5156 195.5156,127.875 Z " fill="#000000"/><text fill="#000000" font-family="sans-serif" font-size="14" lengthAdjust="spacing" textLength="51" x="213.25" y="137.7285">Element</text><line style="stroke:#181818;stroke-width:0.5;" x1="8" x2="437" y1="148" y2="148"/><ellipse cx="18" cy="162.3047" fill="none" rx="3" ry="3" style="stroke:#038048;stroke-width:1.0;"/><text fill="#000000" font-family="sans-serif" font-size="14" lengthAdjust="spacing" textLength="405" x="27" y="166.5332">innerHTML: html de los nodos descendientes serialized as string</text><line style="stroke:#181818;stroke-width:0.5;" x1="8" x2="437" y1="173.6094" y2="173.6094"/><ellipse cx="18" cy="187.9141" fill="#84BE84" rx="3" ry="3" style="stroke:#038048;stroke-width:1.0;"/><text fill="#000000" font-family="sans-serif" font-size="14" lengthAdjust="spacing" textLength="270" x="27" y="192.1426">setAttribute(attribute: String, value: String);</text><ellipse cx="18" cy="205.5234" fill="#84BE84" rx="3" ry="3" style="stroke:#038048;stroke-width:1.0;"/><text fill="#000000" font-family="sans-serif" font-size="14" lengthAdjust="spacing" textLength="137" x="27" y="209.752">setAttributeNode(Attr)</text></g><!--class Node--><g id="elem_Node"><rect fill="#F1F1F1" height="48" id="Node" rx="2.5" ry="2.5" style="stroke:#181818;stroke-width:0.5;" width="65" x="190" y="7"/><ellipse cx="205" cy="23" fill="#ADD1B2" rx="11" ry="11" style="stroke:#181818;stroke-width:1.0;"/><path d="M207.7656,18.875 Q207.9219,18.6563 208.1094,18.5469 Q208.2969,18.4375 208.5156,18.4375 Q208.8906,18.4375 209.125,18.7031 Q209.3594,18.9531 209.3594,19.5625 L209.3594,21.0156 Q209.3594,21.625 209.125,21.8906 Q208.8906,22.1563 208.5156,22.1563 Q208.1719,22.1563 207.9688,21.9531 Q207.7656,21.7656 207.6563,21.25 Q207.6094,20.8906 207.4219,20.7031 Q207.0938,20.3281 206.4844,20.1094 Q205.875,19.8906 205.25,19.8906 Q204.4844,19.8906 203.8438,20.2188 Q203.2188,20.5469 202.7188,21.2969 Q202.2344,22.0469 202.2344,23.0781 L202.2344,24.1719 Q202.2344,25.4063 203.125,26.2344 Q204.0156,27.0469 205.6094,27.0469 Q206.5469,27.0469 207.2031,26.7969 Q207.5938,26.6406 208.0156,26.2031 Q208.2813,25.9375 208.4219,25.8594 Q208.5781,25.7813 208.7813,25.7813 Q209.1094,25.7813 209.3594,26.0469 Q209.625,26.2969 209.625,26.6406 Q209.625,26.9844 209.2813,27.3906 Q208.7813,27.9688 207.9844,28.2969 Q206.9063,28.75 205.6094,28.75 Q204.0938,28.75 202.8906,28.125 Q201.9063,27.625 201.2188,26.5625 Q200.5313,25.4844 200.5313,24.2031 L200.5313,23.0469 Q200.5313,21.7188 201.1406,20.5781 Q201.7656,19.4219 202.8594,18.8125 Q203.9531,18.1875 205.1875,18.1875 Q205.9219,18.1875 206.5625,18.3594 Q207.2188,18.5156 207.7656,18.875 Z " fill="#000000"/><text fill="#000000" font-family="sans-serif" font-size="14" lengthAdjust="spacing" textLength="33" x="219" y="28.7285">Node</text><line style="stroke:#181818;stroke-width:0.5;" x1="191" x2="254" y1="39" y2="39"/><line style="stroke:#181818;stroke-width:0.5;" x1="191" x2="254" y1="47" y2="47"/></g><!--class HTMLElement--><g id="elem_HTMLElement"><rect codeLine="10" fill="#F1F1F1" height="48" id="HTMLElement" rx="2.5" ry="2.5" style="stroke:#181818;stroke-width:0.5;" width="120" x="73.5" y="295"/><ellipse cx="88.5" cy="311" fill="#ADD1B2" rx="11" ry="11" style="stroke:#181818;stroke-width:1.0;"/><path d="M91.2656,306.875 Q91.4219,306.6563 91.6094,306.5469 Q91.7969,306.4375 92.0156,306.4375 Q92.3906,306.4375 92.625,306.7031 Q92.8594,306.9531 92.8594,307.5625 L92.8594,309.0156 Q92.8594,309.625 92.625,309.8906 Q92.3906,310.1563 92.0156,310.1563 Q91.6719,310.1563 91.4688,309.9531 Q91.2656,309.7656 91.1563,309.25 Q91.1094,308.8906 90.9219,308.7031 Q90.5938,308.3281 89.9844,308.1094 Q89.375,307.8906 88.75,307.8906 Q87.9844,307.8906 87.3438,308.2188 Q86.7188,308.5469 86.2188,309.2969 Q85.7344,310.0469 85.7344,311.0781 L85.7344,312.1719 Q85.7344,313.4063 86.625,314.2344 Q87.5156,315.0469 89.1094,315.0469 Q90.0469,315.0469 90.7031,314.7969 Q91.0938,314.6406 91.5156,314.2031 Q91.7813,313.9375 91.9219,313.8594 Q92.0781,313.7813 92.2813,313.7813 Q92.6094,313.7813 92.8594,314.0469 Q93.125,314.2969 93.125,314.6406 Q93.125,314.9844 92.7813,315.3906 Q92.2813,315.9688 91.4844,316.2969 Q90.4063,316.75 89.1094,316.75 Q87.5938,316.75 86.3906,316.125 Q85.4063,315.625 84.7188,314.5625 Q84.0313,313.4844 84.0313,312.2031 L84.0313,311.0469 Q84.0313,309.7188 84.6406,308.5781 Q85.2656,307.4219 86.3594,306.8125 Q87.4531,306.1875 88.6875,306.1875 Q89.4219,306.1875 90.0625,306.3594 Q90.7188,306.5156 91.2656,306.875 Z " fill="#000000"/><text fill="#000000" font-family="sans-serif" font-size="14" lengthAdjust="spacing" textLength="88" x="102.5" y="316.7285">HTMLElement</text><line style="stroke:#181818;stroke-width:0.5;" x1="74.5" x2="192.5" y1="327" y2="327"/><line style="stroke:#181818;stroke-width:0.5;" x1="74.5" x2="192.5" y1="335" y2="335"/></g><!--class CSSStyleDeclaration--><g id="elem_CSSStyleDeclaration"><rect codeLine="19" fill="#F1F1F1" height="48" id="CSSStyleDeclaration" rx="2.5" ry="2.5" style="stroke:#181818;stroke-width:0.5;" width="163" x="229" y="295"/><ellipse cx="244" cy="311" fill="#ADD1B2" rx="11" ry="11" style="stroke:#181818;stroke-width:1.0;"/><path d="M246.7656,306.875 Q246.9219,306.6563 247.1094,306.5469 Q247.2969,306.4375 247.5156,306.4375 Q247.8906,306.4375 248.125,306.7031 Q248.3594,306.9531 248.3594,307.5625 L248.3594,309.0156 Q248.3594,309.625 248.125,309.8906 Q247.8906,310.1563 247.5156,310.1563 Q247.1719,310.1563 246.9688,309.9531 Q246.7656,309.7656 246.6563,309.25 Q246.6094,308.8906 246.4219,308.7031 Q246.0938,308.3281 245.4844,308.1094 Q244.875,307.8906 244.25,307.8906 Q243.4844,307.8906 242.8438,308.2188 Q242.2188,308.5469 241.7188,309.2969 Q241.2344,310.0469 241.2344,311.0781 L241.2344,312.1719 Q241.2344,313.4063 242.125,314.2344 Q243.0156,315.0469 244.6094,315.0469 Q245.5469,315.0469 246.2031,314.7969 Q246.5938,314.6406 247.0156,314.2031 Q247.2813,313.9375 247.4219,313.8594 Q247.5781,313.7813 247.7813,313.7813 Q248.1094,313.7813 248.3594,314.0469 Q248.625,314.2969 248.625,314.6406 Q248.625,314.9844 248.2813,315.3906 Q247.7813,315.9688 246.9844,316.2969 Q245.9063,316.75 244.6094,316.75 Q243.0938,316.75 241.8906,316.125 Q240.9063,315.625 240.2188,314.5625 Q239.5313,313.4844 239.5313,312.2031 L239.5313,311.0469 Q239.5313,309.7188 240.1406,308.5781 Q240.7656,307.4219 241.8594,306.8125 Q242.9531,306.1875 244.1875,306.1875 Q244.9219,306.1875 245.5625,306.3594 Q246.2188,306.5156 246.7656,306.875 Z " fill="#000000"/><text fill="#000000" font-family="sans-serif" font-size="14" lengthAdjust="spacing" textLength="131" x="258" y="316.7285">CSSStyleDeclaration</text><line style="stroke:#181818;stroke-width:0.5;" x1="230" x2="391" y1="327" y2="327"/><line style="stroke:#181818;stroke-width:0.5;" x1="230" x2="391" y1="335" y2="335"/></g><!--class HTMLInputElement--><g id="elem_HTMLInputElement"><rect codeLine="14" fill="#F1F1F1" height="65.6094" id="HTMLInputElement" rx="2.5" ry="2.5" style="stroke:#181818;stroke-width:0.5;" width="151" x="58" y="404"/><ellipse cx="73" cy="420" fill="#ADD1B2" rx="11" ry="11" style="stroke:#181818;stroke-width:1.0;"/><path d="M75.7656,415.875 Q75.9219,415.6563 76.1094,415.5469 Q76.2969,415.4375 76.5156,415.4375 Q76.8906,415.4375 77.125,415.7031 Q77.3594,415.9531 77.3594,416.5625 L77.3594,418.0156 Q77.3594,418.625 77.125,418.8906 Q76.8906,419.1563 76.5156,419.1563 Q76.1719,419.1563 75.9688,418.9531 Q75.7656,418.7656 75.6563,418.25 Q75.6094,417.8906 75.4219,417.7031 Q75.0938,417.3281 74.4844,417.1094 Q73.875,416.8906 73.25,416.8906 Q72.4844,416.8906 71.8438,417.2188 Q71.2188,417.5469 70.7188,418.2969 Q70.2344,419.0469 70.2344,420.0781 L70.2344,421.1719 Q70.2344,422.4063 71.125,423.2344 Q72.0156,424.0469 73.6094,424.0469 Q74.5469,424.0469 75.2031,423.7969 Q75.5938,423.6406 76.0156,423.2031 Q76.2813,422.9375 76.4219,422.8594 Q76.5781,422.7813 76.7813,422.7813 Q77.1094,422.7813 77.3594,423.0469 Q77.625,423.2969 77.625,423.6406 Q77.625,423.9844 77.2813,424.3906 Q76.7813,424.9688 75.9844,425.2969 Q74.9063,425.75 73.6094,425.75 Q72.0938,425.75 70.8906,425.125 Q69.9063,424.625 69.2188,423.5625 Q68.5313,422.4844 68.5313,421.2031 L68.5313,420.0469 Q68.5313,418.7188 69.1406,417.5781 Q69.7656,416.4219 70.8594,415.8125 Q71.9531,415.1875 73.1875,415.1875 Q73.9219,415.1875 74.5625,415.3594 Q75.2188,415.5156 75.7656,415.875 Z " fill="#000000"/><text fill="#000000" font-family="sans-serif" font-size="14" lengthAdjust="spacing" textLength="119" x="87" y="425.7285">HTMLInputElement</text><line style="stroke:#181818;stroke-width:0.5;" x1="59" x2="208" y1="436" y2="436"/><ellipse cx="69" cy="450.3047" fill="none" rx="3" ry="3" style="stroke:#038048;stroke-width:1.0;"/><text fill="#000000" font-family="sans-serif" font-size="14" lengthAdjust="spacing" textLength="34" x="78" y="454.5332">value</text><line style="stroke:#181818;stroke-width:0.5;" x1="59" x2="208" y1="461.6094" y2="461.6094"/></g><!--reverse link Node to Element--><g id="link_Node_Element"><path codeLine="8" d="M222.5,73.25 C222.5,89.99 222.5,95.18 222.5,115.98 " fill="none" id="Node-backto-Element" style="stroke:#181818;stroke-width:1.0;"/><polygon fill="none" points="222.5,55.25,216.5,73.25,228.5,73.25,222.5,55.25" style="stroke:#181818;stroke-width:1.0;"/></g><!--reverse link Element to HTMLElement--><g id="link_Element_HTMLElement"><path codeLine="11" d="M183.9493,232.6946 C168.4593,258.8946 159.35,274.29 147.16,294.9 " fill="none" id="Element-backto-HTMLElement" style="stroke:#181818;stroke-width:1.0;"/><polygon fill="none" points="193.11,217.2,178.7844,229.641,189.1141,235.7481,193.11,217.2" style="stroke:#181818;stroke-width:1.0;"/></g><!--link Element to CSSStyleDeclaration--><g id="link_Element_CSSStyleDeclaration"><path codeLine="12" d="M251.56,217.2 C266.88,243.4 281.9116,269.1103 293.9616,289.7203 " fill="none" id="Element-to-CSSStyleDeclaration" style="stroke:#181818;stroke-width:1.0;"/><polygon fill="#181818" points="296.99,294.9,295.9005,285.1116,294.4663,290.5836,288.9943,289.1494,296.99,294.9" style="stroke:#181818;stroke-width:1.0;"/><ellipse cx="283.5" cy="256.6758" fill="none" rx="3" ry="3" style="stroke:#038048;stroke-width:1.0;"/><text fill="#000000" font-family="sans-serif" font-size="13" lengthAdjust="spacing" textLength="28" x="290.5" y="261.4951">style</text></g><!--reverse link HTMLElement to HTMLInputElement--><g id="link_HTMLElement_HTMLInputElement"><path codeLine="17" d="M133.5,361.2 C133.5,378.52 133.5,384.41 133.5,403.62 " fill="none" id="HTMLElement-backto-HTMLInputElement" style="stroke:#181818;stroke-width:1.0;"/><polygon fill="none" points="133.5,343.2,127.5,361.2,139.5,361.2,133.5,343.2" style="stroke:#181818;stroke-width:1.0;"/></g><!--SRC=[RL1B2i8m4Dtd5BDiqLoWYY0gAAYRUe7O31f8fz9C1NztDmcc56aMOTxCl4zIMUKSR2pMI0ml0VvCm11XkpqTzWLSkRQW4MpZW1hjRuskGjB64z21mzOeQvweGNd4hQ6B-Cauv2NxphbZp5Ig2YZZrXJkodOzp6SZh6EZCGie5nyH0CpVKgQyGbGnVaYQdY1I4HS7atuWvG9MPLdom-8QlKAhs3HK1ElG6whkwDRn_-_4s3xFqBPt6pAIqeZR5m00]--></g></svg>