<?xml version="1.0" encoding="us-ascii" standalone="no"?><svg xmlns="http://www.w3.org/2000/svg" xmlns:xlink="http://www.w3.org/1999/xlink" contentStyleType="text/css" height="456px" preserveAspectRatio="none" style="width:445px;height:456px;background:#FFFFFF;" version="1.1" viewBox="0 0 445 456" width="445px" zoomAndPan="magnify"><defs/><g><!--class Element--><g id="elem_Element"><rect codeLine="2" fill="#F1F1F1" height="100.8281" id="Element" rx="2.5" ry="2.5" style="stroke:#181818;stroke-width:0.5;" width="431" x="7" y="115"/><ellipse cx="192.75" cy="131" fill="#ADD1B2" rx="11" ry="11" style="stroke:#181818;stroke-width:1.0;"/><path d="M195.5156,126.875 Q195.6719,126.6563 195.8594,126.5469 Q196.0469,126.4375 196.2656,126.4375 Q196.6406,126.4375 196.875,126.7031 Q197.1094,126.9531 197.1094,127.5625 L197.1094,129.0156 Q197.1094,129.625 196.875,129.8906 Q196.6406,130.1563 196.2656,130.1563 Q195.9219,130.1563 195.7188,129.9531 Q195.5156,129.7656 195.4063,129.25 Q195.3594,128.8906 195.1719,128.7031 Q194.8438,128.3281 194.2344,128.1094 Q193.625,127.8906 193,127.8906 Q192.2344,127.8906 191.5938,128.2188 Q190.9688,128.5469 190.4688,129.2969 Q189.9844,130.0469 189.9844,131.0781 L189.9844,132.1719 Q189.9844,133.4063 190.875,134.2344 Q191.7656,135.0469 193.3594,135.0469 Q194.2969,135.0469 194.9531,134.7969 Q195.3438,134.6406 195.7656,134.2031 Q196.0313,133.9375 196.1719,133.8594 Q196.3281,133.7813 196.5313,133.7813 Q196.8594,133.7813 197.1094,134.0469 Q197.375,134.2969 197.375,134.6406 Q197.375,134.9844 197.0313,135.3906 Q196.5313,135.9688 195.7344,136.2969 Q194.6563,136.75 193.3594,136.75 Q191.8438,136.75 190.6406,136.125 Q189.6563,135.625 188.9688,134.5625 Q188.2813,133.4844 188.2813,132.2031 L188.2813,131.0469 Q188.2813,129.7188 188.8906,128.5781 Q189.5156,127.4219 190.6094,126.8125 Q191.7031,126.1875 192.9375,126.1875 Q193.6719,126.1875 194.3125,126.3594 Q194.9688,126.5156 195.5156,126.875 Z " fill="#000000"/><text fill="#000000" font-family="sans-serif" font-size="14" lengthAdjust="spacing" textLength="51" x="213.25" y="136.7285">Element</text><line style="stroke:#181818;stroke-width:0.5;" x1="8" x2="437" y1="147" y2="147"/><ellipse cx="18" cy="161.3047" fill="none" rx="3" ry="3" style="stroke:#038048;stroke-width:1.0;"/><text fill="#000000" font-family="sans-serif" font-size="14" lengthAdjust="spacing" textLength="405" x="27" y="165.5332">innerHTML: html de los nodos descendientes serialized as string</text><line style="stroke:#181818;stroke-width:0.5;" x1="8" x2="437" y1="172.6094" y2="172.6094"/><ellipse cx="18" cy="186.9141" fill="#84BE84" rx="3" ry="3" style="stroke:#038048;stroke-width:1.0;"/><text fill="#000000" font-family="sans-serif" font-size="14" lengthAdjust="spacing" textLength="270" x="27" y="191.1426">setAttribute(attribute: String, value: String);</text><ellipse cx="18" cy="204.5234" fill="#84BE84" rx="3" ry="3" style="stroke:#038048;stroke-width:1.0;"/><text fill="#000000" font-family="sans-serif" font-size="14" lengthAdjust="spacing" textLength="137" x="27" y="208.752">setAttributeNode(Attr)</text></g><!--class Node--><g id="elem_Node"><rect fill="#F1F1F1" height="48" id="Node" rx="2.5" ry="2.5" style="stroke:#181818;stroke-width:0.5;" width="65" x="190" y="7"/><ellipse cx="205" cy="23" fill="#ADD1B2" rx="11" ry="11" style="stroke:#181818;stroke-width:1.0;"/><path d="M207.7656,18.875 Q207.9219,18.6563 208.1094,18.5469 Q208.2969,18.4375 208.5156,18.4375 Q208.8906,18.4375 209.125,18.7031 Q209.3594,18.9531 209.3594,19.5625 L209.3594,21.0156 Q209.3594,21.625 209.125,21.8906 Q208.8906,22.1563 208.5156,22.1563 Q208.1719,22.1563 207.9688,21.9531 Q207.7656,21.7656 207.6563,21.25 Q207.6094,20.8906 207.4219,20.7031 Q207.0938,20.3281 206.4844,20.1094 Q205.875,19.8906 205.25,19.8906 Q204.4844,19.8906 203.8438,20.2188 Q203.2188,20.5469 202.7188,21.2969 Q202.2344,22.0469 202.2344,23.0781 L202.2344,24.1719 Q202.2344,25.4063 203.125,26.2344 Q204.0156,27.0469 205.6094,27.0469 Q206.5469,27.0469 207.2031,26.7969 Q207.5938,26.6406 208.0156,26.2031 Q208.2813,25.9375 208.4219,25.8594 Q208.5781,25.7813 208.7813,25.7813 Q209.1094,25.7813 209.3594,26.0469 Q209.625,26.2969 209.625,26.6406 Q209.625,26.9844 209.2813,27.3906 Q208.7813,27.9688 207.9844,28.2969 Q206.9063,28.75 205.6094,28.75 Q204.0938,28.75 202.8906,28.125 Q201.9063,27.625 201.2188,26.5625 Q200.5313,25.4844 200.5313,24.2031 L200.5313,23.0469 Q200.5313,21.7188 201.1406,20.5781 Q201.7656,19.4219 202.8594,18.8125 Q203.9531,18.1875 205.1875,18.1875 Q205.9219,18.1875 206.5625,18.3594 Q207.2188,18.5156 207.7656,18.875 Z " fill="#000000"/><text fill="#000000" font-family="sans-serif" font-size="14" lengthAdjust="spacing" textLength="33" x="219" y="28.7285">Node</text><line style="stroke:#181818;stroke-width:0.5;" x1="191" x2="254" y1="39" y2="39"/><line style="stroke:#181818;stroke-width:0.5;" x1="191" x2="254" y1="47" y2="47"/></g><!--class HTMLElement--><g id="elem_HTMLElement"><rect codeLine="10" fill="#F1F1F1" height="48" id="HTMLElement" rx="2.5" ry="2.5" style="stroke:#181818;stroke-width:0.5;" width="120" x="162.5" y="276"/><ellipse cx="177.5" cy="292" fill="#ADD1B2" rx="11" ry="11" style="stroke:#181818;stroke-width:1.0;"/><path d="M180.2656,287.875 Q180.4219,287.6563 180.6094,287.5469 Q180.7969,287.4375 181.0156,287.4375 Q181.3906,287.4375 181.625,287.7031 Q181.8594,287.9531 181.8594,288.5625 L181.8594,290.0156 Q181.8594,290.625 181.625,290.8906 Q181.3906,291.1563 181.0156,291.1563 Q180.6719,291.1563 180.4688,290.9531 Q180.2656,290.7656 180.1563,290.25 Q180.1094,289.8906 179.9219,289.7031 Q179.5938,289.3281 178.9844,289.1094 Q178.375,288.8906 177.75,288.8906 Q176.9844,288.8906 176.3438,289.2188 Q175.7188,289.5469 175.2188,290.2969 Q174.7344,291.0469 174.7344,292.0781 L174.7344,293.1719 Q174.7344,294.4063 175.625,295.2344 Q176.5156,296.0469 178.1094,296.0469 Q179.0469,296.0469 179.7031,295.7969 Q180.0938,295.6406 180.5156,295.2031 Q180.7813,294.9375 180.9219,294.8594 Q181.0781,294.7813 181.2813,294.7813 Q181.6094,294.7813 181.8594,295.0469 Q182.125,295.2969 182.125,295.6406 Q182.125,295.9844 181.7813,296.3906 Q181.2813,296.9688 180.4844,297.2969 Q179.4063,297.75 178.1094,297.75 Q176.5938,297.75 175.3906,297.125 Q174.4063,296.625 173.7188,295.5625 Q173.0313,294.4844 173.0313,293.2031 L173.0313,292.0469 Q173.0313,290.7188 173.6406,289.5781 Q174.2656,288.4219 175.3594,287.8125 Q176.4531,287.1875 177.6875,287.1875 Q178.4219,287.1875 179.0625,287.3594 Q179.7188,287.5156 180.2656,287.875 Z " fill="#000000"/><text fill="#000000" font-family="sans-serif" font-size="14" lengthAdjust="spacing" textLength="88" x="191.5" y="297.7285">HTMLElement</text><line style="stroke:#181818;stroke-width:0.5;" x1="163.5" x2="281.5" y1="308" y2="308"/><line style="stroke:#181818;stroke-width:0.5;" x1="163.5" x2="281.5" y1="316" y2="316"/></g><!--class HTMLInputElement--><g id="elem_HTMLInputElement"><rect codeLine="13" fill="#F1F1F1" height="65.6094" id="HTMLInputElement" rx="2.5" ry="2.5" style="stroke:#181818;stroke-width:0.5;" width="151" x="147" y="384"/><ellipse cx="162" cy="400" fill="#ADD1B2" rx="11" ry="11" style="stroke:#181818;stroke-width:1.0;"/><path d="M164.7656,395.875 Q164.9219,395.6563 165.1094,395.5469 Q165.2969,395.4375 165.5156,395.4375 Q165.8906,395.4375 166.125,395.7031 Q166.3594,395.9531 166.3594,396.5625 L166.3594,398.0156 Q166.3594,398.625 166.125,398.8906 Q165.8906,399.1563 165.5156,399.1563 Q165.1719,399.1563 164.9688,398.9531 Q164.7656,398.7656 164.6563,398.25 Q164.6094,397.8906 164.4219,397.7031 Q164.0938,397.3281 163.4844,397.1094 Q162.875,396.8906 162.25,396.8906 Q161.4844,396.8906 160.8438,397.2188 Q160.2188,397.5469 159.7188,398.2969 Q159.2344,399.0469 159.2344,400.0781 L159.2344,401.1719 Q159.2344,402.4063 160.125,403.2344 Q161.0156,404.0469 162.6094,404.0469 Q163.5469,404.0469 164.2031,403.7969 Q164.5938,403.6406 165.0156,403.2031 Q165.2813,402.9375 165.4219,402.8594 Q165.5781,402.7813 165.7813,402.7813 Q166.1094,402.7813 166.3594,403.0469 Q166.625,403.2969 166.625,403.6406 Q166.625,403.9844 166.2813,404.3906 Q165.7813,404.9688 164.9844,405.2969 Q163.9063,405.75 162.6094,405.75 Q161.0938,405.75 159.8906,405.125 Q158.9063,404.625 158.2188,403.5625 Q157.5313,402.4844 157.5313,401.2031 L157.5313,400.0469 Q157.5313,398.7188 158.1406,397.5781 Q158.7656,396.4219 159.8594,395.8125 Q160.9531,395.1875 162.1875,395.1875 Q162.9219,395.1875 163.5625,395.3594 Q164.2188,395.5156 164.7656,395.875 Z " fill="#000000"/><text fill="#000000" font-family="sans-serif" font-size="14" lengthAdjust="spacing" textLength="119" x="176" y="405.7285">HTMLInputElement</text><line style="stroke:#181818;stroke-width:0.5;" x1="148" x2="297" y1="416" y2="416"/><ellipse cx="158" cy="430.3047" fill="none" rx="3" ry="3" style="stroke:#038048;stroke-width:1.0;"/><text fill="#000000" font-family="sans-serif" font-size="14" lengthAdjust="spacing" textLength="34" x="167" y="434.5332">value</text><line style="stroke:#181818;stroke-width:0.5;" x1="148" x2="297" y1="441.6094" y2="441.6094"/></g><!--reverse link Node to Element--><g id="link_Node_Element"><path codeLine="8" d="M222.5,73.08 C222.5,89.54 222.5,94.3 222.5,114.8 " fill="none" id="Node-backto-Element" style="stroke:#181818;stroke-width:1.0;"/><polygon fill="none" points="222.5,55.08,216.5,73.08,228.5,73.08,222.5,55.08" style="stroke:#181818;stroke-width:1.0;"/></g><!--reverse link Element to HTMLElement--><g id="link_Element_HTMLElement"><path codeLine="11" d="M222.5,234.22 C222.5,254.63 222.5,259.28 222.5,275.72 " fill="none" id="Element-backto-HTMLElement" style="stroke:#181818;stroke-width:1.0;"/><polygon fill="none" points="222.5,216.22,216.5,234.22,228.5,234.22,222.5,216.22" style="stroke:#181818;stroke-width:1.0;"/></g><!--reverse link HTMLElement to HTMLInputElement--><g id="link_HTMLElement_HTMLInputElement"><path codeLine="16" d="M222.5,342.27 C222.5,359.34 222.5,364.72 222.5,383.61 " fill="none" id="HTMLElement-backto-HTMLInputElement" style="stroke:#181818;stroke-width:1.0;"/><polygon fill="none" points="222.5,324.27,216.5,342.27,228.5,342.27,222.5,324.27" style="stroke:#181818;stroke-width:1.0;"/></g><!--SRC=[RKyx3i8m3Drp2e-je1SeB0n8804BN20a5aHANLGx37pkJXeHY10UB3_xFVlPUCqCIuyTai1TGOm9E28SLeVjfeMpT1uiWkyPgBSnMsI3P5qK80FZuBHtDxIW8vB1qKczrp3AGcBd60GhdQiMzearXQlsuGFhsH_LhhTOZQXMJpK2c3-Q9ljLoYJxezFSogyaNZaek6kw1FdzEPc9LmhDTqcfU040]--></g></svg>