<?xml version="1.0" encoding="us-ascii" standalone="no"?><svg xmlns="http://www.w3.org/2000/svg" xmlns:xlink="http://www.w3.org/1999/xlink" contentStyleType="text/css" height="476px" preserveAspectRatio="none" style="width:551px;height:476px;background:#FFFFFF;" version="1.1" viewBox="0 0 551 476" width="551px" zoomAndPan="magnify"><defs/><g><!--class Element--><g id="elem_Element"><rect codeLine="2" fill="#F1F1F1" height="118.4375" id="Element" rx="2.5" ry="2.5" style="stroke:#181818;stroke-width:0.5;" width="431" x="59" y="116"/><ellipse cx="244.75" cy="132" fill="#ADD1B2" rx="11" ry="11" style="stroke:#181818;stroke-width:1.0;"/><path d="M247.5156,127.875 Q247.6719,127.6563 247.8594,127.5469 Q248.0469,127.4375 248.2656,127.4375 Q248.6406,127.4375 248.875,127.7031 Q249.1094,127.9531 249.1094,128.5625 L249.1094,130.0156 Q249.1094,130.625 248.875,130.8906 Q248.6406,131.1563 248.2656,131.1563 Q247.9219,131.1563 247.7188,130.9531 Q247.5156,130.7656 247.4063,130.25 Q247.3594,129.8906 247.1719,129.7031 Q246.8438,129.3281 246.2344,129.1094 Q245.625,128.8906 245,128.8906 Q244.2344,128.8906 243.5938,129.2188 Q242.9688,129.5469 242.4688,130.2969 Q241.9844,131.0469 241.9844,132.0781 L241.9844,133.1719 Q241.9844,134.4063 242.875,135.2344 Q243.7656,136.0469 245.3594,136.0469 Q246.2969,136.0469 246.9531,135.7969 Q247.3438,135.6406 247.7656,135.2031 Q248.0313,134.9375 248.1719,134.8594 Q248.3281,134.7813 248.5313,134.7813 Q248.8594,134.7813 249.1094,135.0469 Q249.375,135.2969 249.375,135.6406 Q249.375,135.9844 249.0313,136.3906 Q248.5313,136.9688 247.7344,137.2969 Q246.6563,137.75 245.3594,137.75 Q243.8438,137.75 242.6406,137.125 Q241.6563,136.625 240.9688,135.5625 Q240.2813,134.4844 240.2813,133.2031 L240.2813,132.0469 Q240.2813,130.7188 240.8906,129.5781 Q241.5156,128.4219 242.6094,127.8125 Q243.7031,127.1875 244.9375,127.1875 Q245.6719,127.1875 246.3125,127.3594 Q246.9688,127.5156 247.5156,127.875 Z " fill="#000000"/><text fill="#000000" font-family="sans-serif" font-size="14" lengthAdjust="spacing" textLength="51" x="265.25" y="137.7285">Element</text><line style="stroke:#181818;stroke-width:0.5;" x1="60" x2="489" y1="148" y2="148"/><ellipse cx="70" cy="162.3047" fill="none" rx="3" ry="3" style="stroke:#038048;stroke-width:1.0;"/><text fill="#000000" font-family="sans-serif" font-size="14" lengthAdjust="spacing" textLength="405" x="79" y="166.5332">innerHTML: html de los nodos descendientes serialized as string</text><ellipse cx="70" cy="179.9141" fill="none" rx="3" ry="3" style="stroke:#038048;stroke-width:1.0;"/><text fill="#000000" font-family="sans-serif" font-size="14" lengthAdjust="spacing" textLength="156" x="79" y="184.1426">classList: DOMTokenList</text><line style="stroke:#181818;stroke-width:0.5;" x1="60" x2="489" y1="191.2188" y2="191.2188"/><ellipse cx="70" cy="205.5234" fill="#84BE84" rx="3" ry="3" style="stroke:#038048;stroke-width:1.0;"/><text fill="#000000" font-family="sans-serif" font-size="14" lengthAdjust="spacing" textLength="270" x="79" y="209.752">setAttribute(attribute: String, value: String);</text><ellipse cx="70" cy="223.1328" fill="#84BE84" rx="3" ry="3" style="stroke:#038048;stroke-width:1.0;"/><text fill="#000000" font-family="sans-serif" font-size="14" lengthAdjust="spacing" textLength="137" x="79" y="227.3613">setAttributeNode(Attr)</text></g><!--class Node--><g id="elem_Node"><rect fill="#F1F1F1" height="48" id="Node" rx="2.5" ry="2.5" style="stroke:#181818;stroke-width:0.5;" width="65" x="242" y="7"/><ellipse cx="257" cy="23" fill="#ADD1B2" rx="11" ry="11" style="stroke:#181818;stroke-width:1.0;"/><path d="M259.7656,18.875 Q259.9219,18.6563 260.1094,18.5469 Q260.2969,18.4375 260.5156,18.4375 Q260.8906,18.4375 261.125,18.7031 Q261.3594,18.9531 261.3594,19.5625 L261.3594,21.0156 Q261.3594,21.625 261.125,21.8906 Q260.8906,22.1563 260.5156,22.1563 Q260.1719,22.1563 259.9688,21.9531 Q259.7656,21.7656 259.6563,21.25 Q259.6094,20.8906 259.4219,20.7031 Q259.0938,20.3281 258.4844,20.1094 Q257.875,19.8906 257.25,19.8906 Q256.4844,19.8906 255.8438,20.2188 Q255.2188,20.5469 254.7188,21.2969 Q254.2344,22.0469 254.2344,23.0781 L254.2344,24.1719 Q254.2344,25.4063 255.125,26.2344 Q256.0156,27.0469 257.6094,27.0469 Q258.5469,27.0469 259.2031,26.7969 Q259.5938,26.6406 260.0156,26.2031 Q260.2813,25.9375 260.4219,25.8594 Q260.5781,25.7813 260.7813,25.7813 Q261.1094,25.7813 261.3594,26.0469 Q261.625,26.2969 261.625,26.6406 Q261.625,26.9844 261.2813,27.3906 Q260.7813,27.9688 259.9844,28.2969 Q258.9063,28.75 257.6094,28.75 Q256.0938,28.75 254.8906,28.125 Q253.9063,27.625 253.2188,26.5625 Q252.5313,25.4844 252.5313,24.2031 L252.5313,23.0469 Q252.5313,21.7188 253.1406,20.5781 Q253.7656,19.4219 254.8594,18.8125 Q255.9531,18.1875 257.1875,18.1875 Q257.9219,18.1875 258.5625,18.3594 Q259.2188,18.5156 259.7656,18.875 Z " fill="#000000"/><text fill="#000000" font-family="sans-serif" font-size="14" lengthAdjust="spacing" textLength="33" x="271" y="28.7285">Node</text><line style="stroke:#181818;stroke-width:0.5;" x1="243" x2="306" y1="39" y2="39"/><line style="stroke:#181818;stroke-width:0.5;" x1="243" x2="306" y1="47" y2="47"/></g><!--class HTMLElement--><g id="elem_HTMLElement"><rect codeLine="11" fill="#F1F1F1" height="48" id="HTMLElement" rx="2.5" ry="2.5" style="stroke:#181818;stroke-width:0.5;" width="120" x="214.5" y="295"/><ellipse cx="229.5" cy="311" fill="#ADD1B2" rx="11" ry="11" style="stroke:#181818;stroke-width:1.0;"/><path d="M232.2656,306.875 Q232.4219,306.6563 232.6094,306.5469 Q232.7969,306.4375 233.0156,306.4375 Q233.3906,306.4375 233.625,306.7031 Q233.8594,306.9531 233.8594,307.5625 L233.8594,309.0156 Q233.8594,309.625 233.625,309.8906 Q233.3906,310.1563 233.0156,310.1563 Q232.6719,310.1563 232.4688,309.9531 Q232.2656,309.7656 232.1563,309.25 Q232.1094,308.8906 231.9219,308.7031 Q231.5938,308.3281 230.9844,308.1094 Q230.375,307.8906 229.75,307.8906 Q228.9844,307.8906 228.3438,308.2188 Q227.7188,308.5469 227.2188,309.2969 Q226.7344,310.0469 226.7344,311.0781 L226.7344,312.1719 Q226.7344,313.4063 227.625,314.2344 Q228.5156,315.0469 230.1094,315.0469 Q231.0469,315.0469 231.7031,314.7969 Q232.0938,314.6406 232.5156,314.2031 Q232.7813,313.9375 232.9219,313.8594 Q233.0781,313.7813 233.2813,313.7813 Q233.6094,313.7813 233.8594,314.0469 Q234.125,314.2969 234.125,314.6406 Q234.125,314.9844 233.7813,315.3906 Q233.2813,315.9688 232.4844,316.2969 Q231.4063,316.75 230.1094,316.75 Q228.5938,316.75 227.3906,316.125 Q226.4063,315.625 225.7188,314.5625 Q225.0313,313.4844 225.0313,312.2031 L225.0313,311.0469 Q225.0313,309.7188 225.6406,308.5781 Q226.2656,307.4219 227.3594,306.8125 Q228.4531,306.1875 229.6875,306.1875 Q230.4219,306.1875 231.0625,306.3594 Q231.7188,306.5156 232.2656,306.875 Z " fill="#000000"/><text fill="#000000" font-family="sans-serif" font-size="14" lengthAdjust="spacing" textLength="88" x="243.5" y="316.7285">HTMLElement</text><line style="stroke:#181818;stroke-width:0.5;" x1="215.5" x2="333.5" y1="327" y2="327"/><line style="stroke:#181818;stroke-width:0.5;" x1="215.5" x2="333.5" y1="335" y2="335"/></g><!--class HTMLInputElement--><g id="elem_HTMLInputElement"><rect codeLine="14" fill="#F1F1F1" height="48" id="HTMLInputElement" rx="2.5" ry="2.5" style="stroke:#181818;stroke-width:0.5;" width="151" x="7" y="421"/><ellipse cx="22" cy="437" fill="#ADD1B2" rx="11" ry="11" style="stroke:#181818;stroke-width:1.0;"/><path d="M24.7656,432.875 Q24.9219,432.6563 25.1094,432.5469 Q25.2969,432.4375 25.5156,432.4375 Q25.8906,432.4375 26.125,432.7031 Q26.3594,432.9531 26.3594,433.5625 L26.3594,435.0156 Q26.3594,435.625 26.125,435.8906 Q25.8906,436.1563 25.5156,436.1563 Q25.1719,436.1563 24.9688,435.9531 Q24.7656,435.7656 24.6563,435.25 Q24.6094,434.8906 24.4219,434.7031 Q24.0938,434.3281 23.4844,434.1094 Q22.875,433.8906 22.25,433.8906 Q21.4844,433.8906 20.8438,434.2188 Q20.2188,434.5469 19.7188,435.2969 Q19.2344,436.0469 19.2344,437.0781 L19.2344,438.1719 Q19.2344,439.4063 20.125,440.2344 Q21.0156,441.0469 22.6094,441.0469 Q23.5469,441.0469 24.2031,440.7969 Q24.5938,440.6406 25.0156,440.2031 Q25.2813,439.9375 25.4219,439.8594 Q25.5781,439.7813 25.7813,439.7813 Q26.1094,439.7813 26.3594,440.0469 Q26.625,440.2969 26.625,440.6406 Q26.625,440.9844 26.2813,441.3906 Q25.7813,441.9688 24.9844,442.2969 Q23.9063,442.75 22.6094,442.75 Q21.0938,442.75 19.8906,442.125 Q18.9063,441.625 18.2188,440.5625 Q17.5313,439.4844 17.5313,438.2031 L17.5313,437.0469 Q17.5313,435.7188 18.1406,434.5781 Q18.7656,433.4219 19.8594,432.8125 Q20.9531,432.1875 22.1875,432.1875 Q22.9219,432.1875 23.5625,432.3594 Q24.2188,432.5156 24.7656,432.875 Z " fill="#000000"/><text fill="#000000" font-family="sans-serif" font-size="14" lengthAdjust="spacing" textLength="119" x="36" y="442.7285">HTMLInputElement</text><line style="stroke:#181818;stroke-width:0.5;" x1="8" x2="157" y1="453" y2="453"/><line style="stroke:#181818;stroke-width:0.5;" x1="8" x2="157" y1="461" y2="461"/></g><!--class CSSStyleDeclaration--><g id="elem_CSSStyleDeclaration"><rect codeLine="21" fill="#F1F1F1" height="48" id="CSSStyleDeclaration" rx="2.5" ry="2.5" style="stroke:#181818;stroke-width:0.5;" width="163" x="193" y="421"/><ellipse cx="208" cy="437" fill="#ADD1B2" rx="11" ry="11" style="stroke:#181818;stroke-width:1.0;"/><path d="M210.7656,432.875 Q210.9219,432.6563 211.1094,432.5469 Q211.2969,432.4375 211.5156,432.4375 Q211.8906,432.4375 212.125,432.7031 Q212.3594,432.9531 212.3594,433.5625 L212.3594,435.0156 Q212.3594,435.625 212.125,435.8906 Q211.8906,436.1563 211.5156,436.1563 Q211.1719,436.1563 210.9688,435.9531 Q210.7656,435.7656 210.6563,435.25 Q210.6094,434.8906 210.4219,434.7031 Q210.0938,434.3281 209.4844,434.1094 Q208.875,433.8906 208.25,433.8906 Q207.4844,433.8906 206.8438,434.2188 Q206.2188,434.5469 205.7188,435.2969 Q205.2344,436.0469 205.2344,437.0781 L205.2344,438.1719 Q205.2344,439.4063 206.125,440.2344 Q207.0156,441.0469 208.6094,441.0469 Q209.5469,441.0469 210.2031,440.7969 Q210.5938,440.6406 211.0156,440.2031 Q211.2813,439.9375 211.4219,439.8594 Q211.5781,439.7813 211.7813,439.7813 Q212.1094,439.7813 212.3594,440.0469 Q212.625,440.2969 212.625,440.6406 Q212.625,440.9844 212.2813,441.3906 Q211.7813,441.9688 210.9844,442.2969 Q209.9063,442.75 208.6094,442.75 Q207.0938,442.75 205.8906,442.125 Q204.9063,441.625 204.2188,440.5625 Q203.5313,439.4844 203.5313,438.2031 L203.5313,437.0469 Q203.5313,435.7188 204.1406,434.5781 Q204.7656,433.4219 205.8594,432.8125 Q206.9531,432.1875 208.1875,432.1875 Q208.9219,432.1875 209.5625,432.3594 Q210.2188,432.5156 210.7656,432.875 Z " fill="#000000"/><text fill="#000000" font-family="sans-serif" font-size="14" lengthAdjust="spacing" textLength="131" x="222" y="442.7285">CSSStyleDeclaration</text><line style="stroke:#181818;stroke-width:0.5;" x1="194" x2="355" y1="453" y2="453"/><line style="stroke:#181818;stroke-width:0.5;" x1="194" x2="355" y1="461" y2="461"/></g><!--class HTMLFormElement--><g id="elem_HTMLFormElement"><rect codeLine="18" fill="#F1F1F1" height="48" id="HTMLFormElement" rx="2.5" ry="2.5" style="stroke:#181818;stroke-width:0.5;" width="153" x="391" y="421"/><ellipse cx="406" cy="437" fill="#ADD1B2" rx="11" ry="11" style="stroke:#181818;stroke-width:1.0;"/><path d="M408.7656,432.875 Q408.9219,432.6563 409.1094,432.5469 Q409.2969,432.4375 409.5156,432.4375 Q409.8906,432.4375 410.125,432.7031 Q410.3594,432.9531 410.3594,433.5625 L410.3594,435.0156 Q410.3594,435.625 410.125,435.8906 Q409.8906,436.1563 409.5156,436.1563 Q409.1719,436.1563 408.9688,435.9531 Q408.7656,435.7656 408.6563,435.25 Q408.6094,434.8906 408.4219,434.7031 Q408.0938,434.3281 407.4844,434.1094 Q406.875,433.8906 406.25,433.8906 Q405.4844,433.8906 404.8438,434.2188 Q404.2188,434.5469 403.7188,435.2969 Q403.2344,436.0469 403.2344,437.0781 L403.2344,438.1719 Q403.2344,439.4063 404.125,440.2344 Q405.0156,441.0469 406.6094,441.0469 Q407.5469,441.0469 408.2031,440.7969 Q408.5938,440.6406 409.0156,440.2031 Q409.2813,439.9375 409.4219,439.8594 Q409.5781,439.7813 409.7813,439.7813 Q410.1094,439.7813 410.3594,440.0469 Q410.625,440.2969 410.625,440.6406 Q410.625,440.9844 410.2813,441.3906 Q409.7813,441.9688 408.9844,442.2969 Q407.9063,442.75 406.6094,442.75 Q405.0938,442.75 403.8906,442.125 Q402.9063,441.625 402.2188,440.5625 Q401.5313,439.4844 401.5313,438.2031 L401.5313,437.0469 Q401.5313,435.7188 402.1406,434.5781 Q402.7656,433.4219 403.8594,432.8125 Q404.9531,432.1875 406.1875,432.1875 Q406.9219,432.1875 407.5625,432.3594 Q408.2188,432.5156 408.7656,432.875 Z " fill="#000000"/><text fill="#000000" font-family="sans-serif" font-size="14" lengthAdjust="spacing" textLength="121" x="420" y="442.7285">HTMLFormElement</text><line style="stroke:#181818;stroke-width:0.5;" x1="392" x2="543" y1="453" y2="453"/><line style="stroke:#181818;stroke-width:0.5;" x1="392" x2="543" y1="461" y2="461"/></g><!--reverse link Node to Element--><g id="link_Node_Element"><path codeLine="9" d="M274.5,73.13 C274.5,89.63 274.5,94.6 274.5,115.94 " fill="none" id="Node-backto-Element" style="stroke:#181818;stroke-width:1.0;"/><polygon fill="none" points="274.5,55.13,268.5,73.13,280.5,73.13,274.5,55.13" style="stroke:#181818;stroke-width:1.0;"/></g><!--reverse link Element to HTMLElement--><g id="link_Element_HTMLElement"><path codeLine="12" d="M274.5,252.17 C274.5,273.46 274.5,278.34 274.5,294.82 " fill="none" id="Element-backto-HTMLElement" style="stroke:#181818;stroke-width:1.0;"/><polygon fill="none" points="274.5,234.17,268.5,252.17,280.5,252.17,274.5,234.17" style="stroke:#181818;stroke-width:1.0;"/></g><!--reverse link HTMLElement to HTMLInputElement--><g id="link_HTMLElement_HTMLInputElement"><path codeLine="15" d="M223.7205,352.7974 C189.3405,375.0074 152.72,398.65 118.3,420.88 " fill="none" id="HTMLElement-backto-HTMLInputElement" style="stroke:#181818;stroke-width:1.0;"/><polygon fill="none" points="238.84,343.03,220.4647,347.7576,226.9763,357.8372,238.84,343.03" style="stroke:#181818;stroke-width:1.0;"/></g><!--link HTMLElement to CSSStyleDeclaration--><g id="link_HTMLElement_CSSStyleDeclaration"><path codeLine="16" d="M274.5,355.03 C274.5,377.17 274.5,392.44 274.5,414.67 " fill="none" id="HTMLElement-CSSStyleDeclaration" style="stroke:#181818;stroke-width:1.0;"/><polygon fill="#181818" points="274.5,343.03,270.5,349.03,274.5,355.03,278.5,349.03,274.5,343.03" style="stroke:#181818;stroke-width:1.0;"/><polygon fill="#181818" points="274.5,420.67,278.5,411.67,274.5,415.67,270.5,411.67,274.5,420.67" style="stroke:#181818;stroke-width:1.0;"/><ellipse cx="280.5" cy="382.6758" fill="none" rx="3" ry="3" style="stroke:#038048;stroke-width:1.0;"/><text fill="#000000" font-family="sans-serif" font-size="13" lengthAdjust="spacing" textLength="28" x="287.5" y="387.4951">style</text></g><!--reverse link HTMLElement to HTMLFormElement--><g id="link_HTMLElement_HTMLFormElement"><path codeLine="19" d="M325.4926,352.7614 C360.0526,374.9714 396.91,398.65 431.52,420.88 " fill="none" id="HTMLElement-backto-HTMLFormElement" style="stroke:#181818;stroke-width:1.0;"/><polygon fill="none" points="310.35,343.03,322.2488,357.809,328.7364,347.7139,310.35,343.03" style="stroke:#181818;stroke-width:1.0;"/></g><!--SRC=[RK_BZi8m3BpdAtoa2_s1Ba92F0GIB8Vo0w6n829rKEAkj0_-dQHggo0rXyXZpumzbP7UmyPWZSJm9o2yAMWYTBlpyL30ZMi32i5O3sHL-1Nw2adf840F7fsMHl-Y0XaGEqtNpgMAtWVjkO3rwNYsTwI8H3Vso4iE_4l3E95zLK3PUipWMvfcWDddYEhBAfn4b8cdY03c_tdUfn6YFG1YZZwWw8kMc4nIyfuU3G-AL3weKieRuoFF5x0gov9_3Aunc3h9sb8HJu-zTD7MkdhCP5YJ4ZhTYFSB]--></g></svg>