<?xml version="1.0" encoding="us-ascii" standalone="no"?><svg xmlns="http://www.w3.org/2000/svg" xmlns:xlink="http://www.w3.org/1999/xlink" contentStyleType="text/css" height="404px" preserveAspectRatio="none" style="width:437px;height:404px;background:#FFFFFF;" version="1.1" viewBox="0 0 437 404" width="437px" zoomAndPan="magnify"><defs/><g><!--class Node--><g id="elem_Node"><rect codeLine="2" fill="#F1F1F1" height="65.6094" id="Node" rx="2.5" ry="2.5" style="stroke:#181818;stroke-width:0.5;" width="135" x="136.5" y="115"/><ellipse cx="183.25" cy="131" fill="#ADD1B2" rx="11" ry="11" style="stroke:#181818;stroke-width:1.0;"/><path d="M186.0156,126.875 Q186.1719,126.6563 186.3594,126.5469 Q186.5469,126.4375 186.7656,126.4375 Q187.1406,126.4375 187.375,126.7031 Q187.6094,126.9531 187.6094,127.5625 L187.6094,129.0156 Q187.6094,129.625 187.375,129.8906 Q187.1406,130.1563 186.7656,130.1563 Q186.4219,130.1563 186.2188,129.9531 Q186.0156,129.7656 185.9063,129.25 Q185.8594,128.8906 185.6719,128.7031 Q185.3438,128.3281 184.7344,128.1094 Q184.125,127.8906 183.5,127.8906 Q182.7344,127.8906 182.0938,128.2188 Q181.4688,128.5469 180.9688,129.2969 Q180.4844,130.0469 180.4844,131.0781 L180.4844,132.1719 Q180.4844,133.4063 181.375,134.2344 Q182.2656,135.0469 183.8594,135.0469 Q184.7969,135.0469 185.4531,134.7969 Q185.8438,134.6406 186.2656,134.2031 Q186.5313,133.9375 186.6719,133.8594 Q186.8281,133.7813 187.0313,133.7813 Q187.3594,133.7813 187.6094,134.0469 Q187.875,134.2969 187.875,134.6406 Q187.875,134.9844 187.5313,135.3906 Q187.0313,135.9688 186.2344,136.2969 Q185.1563,136.75 183.8594,136.75 Q182.3438,136.75 181.1406,136.125 Q180.1563,135.625 179.4688,134.5625 Q178.7813,133.4844 178.7813,132.2031 L178.7813,131.0469 Q178.7813,129.7188 179.3906,128.5781 Q180.0156,127.4219 181.1094,126.8125 Q182.2031,126.1875 183.4375,126.1875 Q184.1719,126.1875 184.8125,126.3594 Q185.4688,126.5156 186.0156,126.875 Z " fill="#000000"/><text fill="#000000" font-family="sans-serif" font-size="14" lengthAdjust="spacing" textLength="33" x="203.75" y="136.7285">Node</text><line style="stroke:#181818;stroke-width:0.5;" x1="137.5" x2="270.5" y1="147" y2="147"/><line style="stroke:#181818;stroke-width:0.5;" x1="137.5" x2="270.5" y1="155" y2="155"/><text fill="#000000" font-family="sans-serif" font-size="14" lengthAdjust="spacing" textLength="123" x="142.5" y="173.5332">appendChild(Node)</text></g><g id="elem_GMN3"><path d="M6,9.5 L6,52.2031 A0,0 0 0 0 6,52.2031 L121.16,52.2031 L177.2,114.89 L129.16,52.2031 L210,52.2031 A0,0 0 0 0 210,52.2031 L210,19.5 L200,9.5 L6,9.5 A0,0 0 0 0 6,9.5 " fill="#FEFFDD" style="stroke:#181818;stroke-width:0.5;"/><path d="M200,9.5 L200,19.5 L210,19.5 L200,9.5 " fill="#FEFFDD" style="stroke:#181818;stroke-width:0.5;"/><text fill="#000000" font-family="sans-serif" font-size="13" lengthAdjust="spacing" textLength="134" x="12" y="27.9951">incluidas derivadas que</text><text fill="#000000" font-family="sans-serif" font-size="13" lengthAdjust="spacing" textLength="183" x="12" y="44.3467">NO son elementos ni document</text></g><!--class EventTarget--><g id="elem_EventTarget"><rect fill="#F1F1F1" height="48" id="EventTarget" rx="2.5" ry="2.5" style="stroke:#181818;stroke-width:0.5;" width="110" x="245" y="7"/><ellipse cx="260" cy="23" fill="#ADD1B2" rx="11" ry="11" style="stroke:#181818;stroke-width:1.0;"/><path d="M262.7656,18.875 Q262.9219,18.6563 263.1094,18.5469 Q263.2969,18.4375 263.5156,18.4375 Q263.8906,18.4375 264.125,18.7031 Q264.3594,18.9531 264.3594,19.5625 L264.3594,21.0156 Q264.3594,21.625 264.125,21.8906 Q263.8906,22.1563 263.5156,22.1563 Q263.1719,22.1563 262.9688,21.9531 Q262.7656,21.7656 262.6563,21.25 Q262.6094,20.8906 262.4219,20.7031 Q262.0938,20.3281 261.4844,20.1094 Q260.875,19.8906 260.25,19.8906 Q259.4844,19.8906 258.8438,20.2188 Q258.2188,20.5469 257.7188,21.2969 Q257.2344,22.0469 257.2344,23.0781 L257.2344,24.1719 Q257.2344,25.4063 258.125,26.2344 Q259.0156,27.0469 260.6094,27.0469 Q261.5469,27.0469 262.2031,26.7969 Q262.5938,26.6406 263.0156,26.2031 Q263.2813,25.9375 263.4219,25.8594 Q263.5781,25.7813 263.7813,25.7813 Q264.1094,25.7813 264.3594,26.0469 Q264.625,26.2969 264.625,26.6406 Q264.625,26.9844 264.2813,27.3906 Q263.7813,27.9688 262.9844,28.2969 Q261.9063,28.75 260.6094,28.75 Q259.0938,28.75 257.8906,28.125 Q256.9063,27.625 256.2188,26.5625 Q255.5313,25.4844 255.5313,24.2031 L255.5313,23.0469 Q255.5313,21.7188 256.1406,20.5781 Q256.7656,19.4219 257.8594,18.8125 Q258.9531,18.1875 260.1875,18.1875 Q260.9219,18.1875 261.5625,18.3594 Q262.2188,18.5156 262.7656,18.875 Z " fill="#000000"/><text fill="#000000" font-family="sans-serif" font-size="14" lengthAdjust="spacing" textLength="78" x="274" y="28.7285">EventTarget</text><line style="stroke:#181818;stroke-width:0.5;" x1="246" x2="354" y1="39" y2="39"/><line style="stroke:#181818;stroke-width:0.5;" x1="246" x2="354" y1="47" y2="47"/></g><!--class Attr--><g id="elem_Attr"><rect codeLine="11" fill="#F1F1F1" height="48" id="Attr" rx="2.5" ry="2.5" style="stroke:#181818;stroke-width:0.5;" width="54" x="52" y="241"/><ellipse cx="67" cy="257" fill="#ADD1B2" rx="11" ry="11" style="stroke:#181818;stroke-width:1.0;"/><path d="M69.7656,252.875 Q69.9219,252.6563 70.1094,252.5469 Q70.2969,252.4375 70.5156,252.4375 Q70.8906,252.4375 71.125,252.7031 Q71.3594,252.9531 71.3594,253.5625 L71.3594,255.0156 Q71.3594,255.625 71.125,255.8906 Q70.8906,256.1563 70.5156,256.1563 Q70.1719,256.1563 69.9688,255.9531 Q69.7656,255.7656 69.6563,255.25 Q69.6094,254.8906 69.4219,254.7031 Q69.0938,254.3281 68.4844,254.1094 Q67.875,253.8906 67.25,253.8906 Q66.4844,253.8906 65.8438,254.2188 Q65.2188,254.5469 64.7188,255.2969 Q64.2344,256.0469 64.2344,257.0781 L64.2344,258.1719 Q64.2344,259.4063 65.125,260.2344 Q66.0156,261.0469 67.6094,261.0469 Q68.5469,261.0469 69.2031,260.7969 Q69.5938,260.6406 70.0156,260.2031 Q70.2813,259.9375 70.4219,259.8594 Q70.5781,259.7813 70.7813,259.7813 Q71.1094,259.7813 71.3594,260.0469 Q71.625,260.2969 71.625,260.6406 Q71.625,260.9844 71.2813,261.3906 Q70.7813,261.9688 69.9844,262.2969 Q68.9063,262.75 67.6094,262.75 Q66.0938,262.75 64.8906,262.125 Q63.9063,261.625 63.2188,260.5625 Q62.5313,259.4844 62.5313,258.2031 L62.5313,257.0469 Q62.5313,255.7188 63.1406,254.5781 Q63.7656,253.4219 64.8594,252.8125 Q65.9531,252.1875 67.1875,252.1875 Q67.9219,252.1875 68.5625,252.3594 Q69.2188,252.5156 69.7656,252.875 Z " fill="#000000"/><text fill="#000000" font-family="sans-serif" font-size="14" lengthAdjust="spacing" textLength="22" x="81" y="262.7285">Attr</text><line style="stroke:#181818;stroke-width:0.5;" x1="53" x2="105" y1="273" y2="273"/><line style="stroke:#181818;stroke-width:0.5;" x1="53" x2="105" y1="281" y2="281"/></g><!--class CharacterData--><g id="elem_CharacterData"><rect codeLine="14" fill="#F1F1F1" height="48" id="CharacterData" rx="2.5" ry="2.5" style="stroke:#181818;stroke-width:0.5;" width="125" x="141.5" y="241"/><ellipse cx="156.5" cy="257" fill="#ADD1B2" rx="11" ry="11" style="stroke:#181818;stroke-width:1.0;"/><path d="M159.2656,252.875 Q159.4219,252.6563 159.6094,252.5469 Q159.7969,252.4375 160.0156,252.4375 Q160.3906,252.4375 160.625,252.7031 Q160.8594,252.9531 160.8594,253.5625 L160.8594,255.0156 Q160.8594,255.625 160.625,255.8906 Q160.3906,256.1563 160.0156,256.1563 Q159.6719,256.1563 159.4688,255.9531 Q159.2656,255.7656 159.1563,255.25 Q159.1094,254.8906 158.9219,254.7031 Q158.5938,254.3281 157.9844,254.1094 Q157.375,253.8906 156.75,253.8906 Q155.9844,253.8906 155.3438,254.2188 Q154.7188,254.5469 154.2188,255.2969 Q153.7344,256.0469 153.7344,257.0781 L153.7344,258.1719 Q153.7344,259.4063 154.625,260.2344 Q155.5156,261.0469 157.1094,261.0469 Q158.0469,261.0469 158.7031,260.7969 Q159.0938,260.6406 159.5156,260.2031 Q159.7813,259.9375 159.9219,259.8594 Q160.0781,259.7813 160.2813,259.7813 Q160.6094,259.7813 160.8594,260.0469 Q161.125,260.2969 161.125,260.6406 Q161.125,260.9844 160.7813,261.3906 Q160.2813,261.9688 159.4844,262.2969 Q158.4063,262.75 157.1094,262.75 Q155.5938,262.75 154.3906,262.125 Q153.4063,261.625 152.7188,260.5625 Q152.0313,259.4844 152.0313,258.2031 L152.0313,257.0469 Q152.0313,255.7188 152.6406,254.5781 Q153.2656,253.4219 154.3594,252.8125 Q155.4531,252.1875 156.6875,252.1875 Q157.4219,252.1875 158.0625,252.3594 Q158.7188,252.5156 159.2656,252.875 Z " fill="#000000"/><text fill="#000000" font-family="sans-serif" font-size="14" lengthAdjust="spacing" textLength="93" x="170.5" y="262.7285">CharacterData</text><line style="stroke:#181818;stroke-width:0.5;" x1="142.5" x2="265.5" y1="273" y2="273"/><line style="stroke:#181818;stroke-width:0.5;" x1="142.5" x2="265.5" y1="281" y2="281"/></g><g id="elem_GMN11"><path d="M10.5,360 L10.5,386.3516 A0,0 0 0 0 10.5,386.3516 L139.5,386.3516 A0,0 0 0 0 139.5,386.3516 L139.5,370 L129.5,360 L93.72,360 L176.01,289 L85.72,360 L10.5,360 A0,0 0 0 0 10.5,360 " fill="#FEFFDD" style="stroke:#181818;stroke-width:0.5;"/><path d="M129.5,360 L129.5,370 L139.5,370 L129.5,360 " fill="#FEFFDD" style="stroke:#181818;stroke-width:0.5;"/><text fill="#000000" font-family="sans-serif" font-size="13" lengthAdjust="spacing" textLength="108" x="16.5" y="378.4951">hay m&#225;s derivadas</text></g><!--class Text--><g id="elem_Text"><rect codeLine="20" fill="#F1F1F1" height="48" id="Text" rx="2.5" ry="2.5" style="stroke:#181818;stroke-width:0.5;" width="59" x="174.5" y="349"/><ellipse cx="189.5" cy="365" fill="#ADD1B2" rx="11" ry="11" style="stroke:#181818;stroke-width:1.0;"/><path d="M192.2656,360.875 Q192.4219,360.6563 192.6094,360.5469 Q192.7969,360.4375 193.0156,360.4375 Q193.3906,360.4375 193.625,360.7031 Q193.8594,360.9531 193.8594,361.5625 L193.8594,363.0156 Q193.8594,363.625 193.625,363.8906 Q193.3906,364.1563 193.0156,364.1563 Q192.6719,364.1563 192.4688,363.9531 Q192.2656,363.7656 192.1563,363.25 Q192.1094,362.8906 191.9219,362.7031 Q191.5938,362.3281 190.9844,362.1094 Q190.375,361.8906 189.75,361.8906 Q188.9844,361.8906 188.3438,362.2188 Q187.7188,362.5469 187.2188,363.2969 Q186.7344,364.0469 186.7344,365.0781 L186.7344,366.1719 Q186.7344,367.4063 187.625,368.2344 Q188.5156,369.0469 190.1094,369.0469 Q191.0469,369.0469 191.7031,368.7969 Q192.0938,368.6406 192.5156,368.2031 Q192.7813,367.9375 192.9219,367.8594 Q193.0781,367.7813 193.2813,367.7813 Q193.6094,367.7813 193.8594,368.0469 Q194.125,368.2969 194.125,368.6406 Q194.125,368.9844 193.7813,369.3906 Q193.2813,369.9688 192.4844,370.2969 Q191.4063,370.75 190.1094,370.75 Q188.5938,370.75 187.3906,370.125 Q186.4063,369.625 185.7188,368.5625 Q185.0313,367.4844 185.0313,366.2031 L185.0313,365.0469 Q185.0313,363.7188 185.6406,362.5781 Q186.2656,361.4219 187.3594,360.8125 Q188.4531,360.1875 189.6875,360.1875 Q190.4219,360.1875 191.0625,360.3594 Q191.7188,360.5156 192.2656,360.875 Z " fill="#000000"/><text fill="#000000" font-family="sans-serif" font-size="14" lengthAdjust="spacing" textLength="27" x="203.5" y="370.7285">Text</text><line style="stroke:#181818;stroke-width:0.5;" x1="175.5" x2="232.5" y1="381" y2="381"/><line style="stroke:#181818;stroke-width:0.5;" x1="175.5" x2="232.5" y1="389" y2="389"/></g><!--class Comment--><g id="elem_Comment"><rect codeLine="23" fill="#F1F1F1" height="48" id="Comment" rx="2.5" ry="2.5" style="stroke:#181818;stroke-width:0.5;" width="92" x="269" y="349"/><ellipse cx="284" cy="365" fill="#ADD1B2" rx="11" ry="11" style="stroke:#181818;stroke-width:1.0;"/><path d="M286.7656,360.875 Q286.9219,360.6563 287.1094,360.5469 Q287.2969,360.4375 287.5156,360.4375 Q287.8906,360.4375 288.125,360.7031 Q288.3594,360.9531 288.3594,361.5625 L288.3594,363.0156 Q288.3594,363.625 288.125,363.8906 Q287.8906,364.1563 287.5156,364.1563 Q287.1719,364.1563 286.9688,363.9531 Q286.7656,363.7656 286.6563,363.25 Q286.6094,362.8906 286.4219,362.7031 Q286.0938,362.3281 285.4844,362.1094 Q284.875,361.8906 284.25,361.8906 Q283.4844,361.8906 282.8438,362.2188 Q282.2188,362.5469 281.7188,363.2969 Q281.2344,364.0469 281.2344,365.0781 L281.2344,366.1719 Q281.2344,367.4063 282.125,368.2344 Q283.0156,369.0469 284.6094,369.0469 Q285.5469,369.0469 286.2031,368.7969 Q286.5938,368.6406 287.0156,368.2031 Q287.2813,367.9375 287.4219,367.8594 Q287.5781,367.7813 287.7813,367.7813 Q288.1094,367.7813 288.3594,368.0469 Q288.625,368.2969 288.625,368.6406 Q288.625,368.9844 288.2813,369.3906 Q287.7813,369.9688 286.9844,370.2969 Q285.9063,370.75 284.6094,370.75 Q283.0938,370.75 281.8906,370.125 Q280.9063,369.625 280.2188,368.5625 Q279.5313,367.4844 279.5313,366.2031 L279.5313,365.0469 Q279.5313,363.7188 280.1406,362.5781 Q280.7656,361.4219 281.8594,360.8125 Q282.9531,360.1875 284.1875,360.1875 Q284.9219,360.1875 285.5625,360.3594 Q286.2188,360.5156 286.7656,360.875 Z " fill="#000000"/><text fill="#000000" font-family="sans-serif" font-size="14" lengthAdjust="spacing" textLength="60" x="298" y="370.7285">Comment</text><line style="stroke:#181818;stroke-width:0.5;" x1="270" x2="360" y1="381" y2="381"/><line style="stroke:#181818;stroke-width:0.5;" x1="270" x2="360" y1="389" y2="389"/></g><!--class DocumentType--><g id="elem_DocumentType"><rect codeLine="26" fill="#F1F1F1" height="48" id="DocumentType" rx="2.5" ry="2.5" style="stroke:#181818;stroke-width:0.5;" width="128" x="302" y="241"/><ellipse cx="317" cy="257" fill="#ADD1B2" rx="11" ry="11" style="stroke:#181818;stroke-width:1.0;"/><path d="M319.7656,252.875 Q319.9219,252.6563 320.1094,252.5469 Q320.2969,252.4375 320.5156,252.4375 Q320.8906,252.4375 321.125,252.7031 Q321.3594,252.9531 321.3594,253.5625 L321.3594,255.0156 Q321.3594,255.625 321.125,255.8906 Q320.8906,256.1563 320.5156,256.1563 Q320.1719,256.1563 319.9688,255.9531 Q319.7656,255.7656 319.6563,255.25 Q319.6094,254.8906 319.4219,254.7031 Q319.0938,254.3281 318.4844,254.1094 Q317.875,253.8906 317.25,253.8906 Q316.4844,253.8906 315.8438,254.2188 Q315.2188,254.5469 314.7188,255.2969 Q314.2344,256.0469 314.2344,257.0781 L314.2344,258.1719 Q314.2344,259.4063 315.125,260.2344 Q316.0156,261.0469 317.6094,261.0469 Q318.5469,261.0469 319.2031,260.7969 Q319.5938,260.6406 320.0156,260.2031 Q320.2813,259.9375 320.4219,259.8594 Q320.5781,259.7813 320.7813,259.7813 Q321.1094,259.7813 321.3594,260.0469 Q321.625,260.2969 321.625,260.6406 Q321.625,260.9844 321.2813,261.3906 Q320.7813,261.9688 319.9844,262.2969 Q318.9063,262.75 317.6094,262.75 Q316.0938,262.75 314.8906,262.125 Q313.9063,261.625 313.2188,260.5625 Q312.5313,259.4844 312.5313,258.2031 L312.5313,257.0469 Q312.5313,255.7188 313.1406,254.5781 Q313.7656,253.4219 314.8594,252.8125 Q315.9531,252.1875 317.1875,252.1875 Q317.9219,252.1875 318.5625,252.3594 Q319.2188,252.5156 319.7656,252.875 Z " fill="#000000"/><text fill="#000000" font-family="sans-serif" font-size="14" lengthAdjust="spacing" textLength="96" x="331" y="262.7285">DocumentType</text><line style="stroke:#181818;stroke-width:0.5;" x1="303" x2="429" y1="273" y2="273"/><line style="stroke:#181818;stroke-width:0.5;" x1="303" x2="429" y1="281" y2="281"/></g><!--reverse link EventTarget to Node--><g id="link_EventTarget_Node"><path codeLine="9" d="M269.0395,69.092 C254.7995,86.162 246.8,95.72 231.04,114.61 " fill="none" id="EventTarget-backto-Node" style="stroke:#181818;stroke-width:1.0;"/><polygon fill="none" points="280.57,55.27,264.4322,65.2485,273.6469,72.9355,280.57,55.27" style="stroke:#181818;stroke-width:1.0;"/></g><!--reverse link Node to Attr--><g id="link_Node_Attr"><path codeLine="12" d="M155.9341,193.218 C135.2741,212.228 122.8,223.7 104.12,240.89 " fill="none" id="Node-backto-Attr" style="stroke:#181818;stroke-width:1.0;"/><polygon fill="none" points="169.18,181.03,151.8715,188.8027,159.9968,197.6333,169.18,181.03" style="stroke:#181818;stroke-width:1.0;"/></g><!--reverse link Node to CharacterData--><g id="link_Node_CharacterData"><path codeLine="18" d="M204,199.03 C204,218.04 204,223.7 204,240.89 " fill="none" id="Node-backto-CharacterData" style="stroke:#181818;stroke-width:1.0;"/><polygon fill="none" points="204,181.03,198,199.03,210,199.03,204,181.03" style="stroke:#181818;stroke-width:1.0;"/></g><!--reverse link CharacterData to Text--><g id="link_CharacterData_Text"><path codeLine="21" d="M204,307 C204,324.66 204,330.94 204,348.68 " fill="none" id="CharacterData-backto-Text" style="stroke:#181818;stroke-width:1.0;"/><polygon fill="none" points="204,289,198,307,210,307,204,289" style="stroke:#181818;stroke-width:1.0;"/></g><!--reverse link CharacterData to Comment--><g id="link_CharacterData_Comment"><path codeLine="24" d="M241.1067,301.4324 C259.5967,319.0924 272,330.94 290.58,348.68 " fill="none" id="CharacterData-backto-Comment" style="stroke:#181818;stroke-width:1.0;"/><polygon fill="none" points="228.09,289,236.9626,305.7713,245.2509,297.0935,228.09,289" style="stroke:#181818;stroke-width:1.0;"/></g><!--reverse link Node to DocumentType--><g id="link_Node_DocumentType"><path codeLine="27" d="M263.806,191.4518 C290.576,210.4618 309.23,223.7 333.44,240.89 " fill="none" id="Node-backto-DocumentType" style="stroke:#181818;stroke-width:1.0;"/><polygon fill="none" points="249.13,181.03,260.3321,196.3438,267.28,186.5598,249.13,181.03" style="stroke:#181818;stroke-width:1.0;"/></g><!--SRC=[RKyn3i8m3Dpz2eymy0CML5ZBqW-OnAAHshWaRaK5F8Qty37QKDGYaSc-kzoTJKKnOYwMyGOuF6eQzZOhNMLN8xo61tXHHfK6d3TLwon5j1nSH-DqQHaXFs8KZrnnpLubedTenRJZ1eCVZXPmw8Qre71cnUrziqcv02PrsAa6I4KIbTQ9oaeAP9J3dfG-RKwYAZMKr6FzUYxwp6cpr-__oRJWgy8Fyn4d_1iiTRhWZ-nBJShzT6pHDyla9Vm6]--></g></svg>